{"glyphs":{"0":{"ha":715,"x_min":44,"x_max":671,"o":"m 505 328 q 467 487 505 431 q 358 542 429 542 q 248 487 286 542 q 210 328 210 431 q 248 170 210 225 q 358 115 286 115 q 467 170 429 115 q 505 328 505 225 m 671 328 q 651 191 671 254 q 592 82 631 128 q 494 9 553 36 q 358 -17 435 -17 q 224 9 282 -17 q 125 82 165 36 q 65 191 85 128 q 44 328 44 254 q 65 465 44 402 q 125 575 85 528 q 224 647 165 621 q 358 673 282 673 q 494 647 435 673 q 592 575 553 621 q 651 465 631 528 q 671 328 671 402 z "},"1":{"ha":687,"x_min":61,"x_max":642,"o":"m 290 136 l 290 486 l 61 421 l 61 564 l 327 657 l 450 657 l 450 136 l 642 136 l 642 0 l 75 0 l 75 136 l 290 136 z "},"2":{"ha":693,"x_min":61,"x_max":635,"o":"m 581 456 q 561 366 581 408 q 506 285 541 323 q 423 209 471 246 q 319 134 375 172 l 319 131 q 458 136 412 136 l 635 136 l 635 0 l 61 0 l 61 98 q 197 194 132 147 q 310 284 261 241 q 387 368 358 328 q 415 448 415 409 q 406 488 415 472 q 381 515 397 505 q 344 530 366 526 q 298 535 323 535 q 190 519 249 535 q 68 473 131 504 l 68 610 q 117 632 90 621 q 176 653 144 644 q 244 668 208 662 q 319 673 281 673 q 425 659 377 673 q 508 617 473 645 q 562 550 543 590 q 581 456 581 509 z "},"3":{"ha":677,"x_min":51,"x_max":603,"o":"m 583 425 q 553 303 583 357 q 458 219 523 250 l 458 216 q 516 189 490 208 q 562 144 543 171 q 592 84 581 118 q 603 10 603 51 q 582 -110 603 -56 q 517 -201 560 -163 q 408 -260 473 -239 q 255 -280 342 -280 q 203 -278 231 -280 q 150 -270 176 -275 q 97 -258 123 -265 q 51 -240 72 -250 l 51 -100 q 139 -130 89 -118 q 247 -142 189 -142 q 336 -130 300 -142 q 395 -97 372 -118 q 427 -49 417 -77 q 437 9 437 -22 q 418 83 437 54 q 365 127 399 113 q 325 138 347 135 q 270 141 302 141 l 164 141 l 164 277 l 236 277 q 292 280 267 277 q 336 292 316 283 q 395 339 374 307 q 416 420 416 372 q 404 474 416 452 q 371 510 392 496 q 321 530 350 524 q 265 536 293 536 q 160 525 208 536 q 65 494 111 513 l 65 633 q 162 662 109 650 q 286 673 215 673 q 411 654 355 673 q 504 601 466 635 q 563 523 543 568 q 583 425 583 477 z "},"4":{"ha":733,"x_min":44,"x_max":696,"o":"m 216 132 l 217 130 q 347 136 272 136 l 417 136 l 417 304 l 578 304 l 578 136 l 696 136 l 696 0 l 578 0 l 578 -262 l 417 -262 l 417 0 l 44 0 l 44 115 l 292 657 l 456 657 l 216 132 z "},"5":{"ha":680,"x_min":61,"x_max":615,"o":"m 261 302 q 294 302 280 302 q 434 282 374 302 q 534 225 494 262 q 595 137 574 189 q 615 22 615 85 q 592 -97 615 -42 q 523 -193 568 -153 q 411 -257 477 -234 q 259 -280 345 -280 q 153 -269 203 -280 q 61 -241 102 -258 l 61 -101 q 159 -133 113 -123 q 248 -142 205 -142 q 340 -130 302 -142 q 402 -97 378 -118 q 438 -46 427 -75 q 449 18 449 -16 q 437 84 449 56 q 398 133 425 113 q 330 163 371 153 q 231 174 288 174 q 162 171 199 174 q 84 161 126 168 l 154 657 l 614 657 l 614 511 l 291 511 l 261 302 z "},"6":{"ha":764,"x_min":64,"x_max":700,"o":"m 394 121 q 449 130 424 121 q 494 158 475 139 q 523 208 513 178 q 534 278 534 237 q 522 350 534 321 q 491 395 511 378 q 445 418 471 412 q 388 425 419 425 q 308 416 349 425 q 231 389 267 407 q 243 267 231 317 q 277 183 255 216 q 329 136 298 151 q 394 121 359 121 m 408 563 q 523 545 469 563 q 616 492 576 527 q 677 405 655 456 q 700 287 700 354 q 679 164 700 220 q 619 68 659 109 q 522 5 579 28 q 391 -17 464 -17 q 253 12 313 -17 q 151 94 193 41 q 86 223 109 148 q 64 393 64 299 q 91 597 64 500 q 169 766 117 693 q 297 882 221 839 q 473 924 373 924 q 576 913 529 924 q 650 888 624 901 l 650 750 q 568 776 610 766 q 485 787 526 787 q 404 772 443 787 q 333 726 365 758 q 276 645 300 694 q 239 526 252 595 l 242 526 q 408 563 318 562 z "},"7":{"ha":678,"x_min":40,"x_max":627,"o":"m 40 511 l 40 657 l 627 657 l 627 547 l 243 -262 l 78 -262 l 444 511 l 40 511 z "},"8":{"ha":772,"x_min":68,"x_max":704,"o":"m 386 530 q 484 580 450 544 q 519 671 519 616 q 508 725 519 702 q 480 763 498 747 q 438 785 462 778 q 386 793 414 793 q 334 785 359 793 q 292 763 310 778 q 263 725 274 747 q 253 671 253 702 q 288 580 253 616 q 386 530 322 544 m 386 115 q 446 124 418 115 q 494 152 474 134 q 526 195 515 170 q 538 252 538 220 q 527 313 538 286 q 495 358 515 339 q 447 388 475 376 q 386 403 419 399 q 325 388 353 399 q 277 358 297 376 q 245 313 256 339 q 234 252 234 286 q 245 195 234 220 q 277 152 257 170 q 326 124 298 134 q 386 115 353 115 m 386 -17 q 256 3 315 -17 q 156 57 197 22 q 91 140 114 92 q 68 246 68 189 q 80 327 68 291 q 112 391 92 363 q 161 438 133 418 q 222 469 189 458 l 222 472 q 123 550 159 500 q 87 669 87 600 q 110 777 87 729 q 174 857 134 824 q 270 907 215 890 q 386 924 324 924 q 502 907 448 924 q 597 857 557 890 q 662 777 638 824 q 685 669 685 729 q 649 550 685 600 q 549 472 612 500 l 549 469 q 611 438 583 458 q 660 391 639 418 q 692 327 680 363 q 704 246 704 291 q 681 140 704 189 q 616 57 658 92 q 516 3 574 22 q 386 -17 457 -17 z "},"9":{"ha":765,"x_min":64,"x_max":701,"o":"m 271 -142 q 446 -77 380 -142 q 529 130 511 -12 l 526 130 q 446 103 492 112 q 352 94 401 94 q 239 111 292 94 q 148 164 186 129 q 87 251 109 199 q 64 370 64 302 q 85 490 64 435 q 144 586 105 545 q 240 650 183 627 q 370 673 297 673 q 512 645 450 673 q 615 562 573 616 q 679 426 657 507 q 701 242 701 346 q 691 107 701 173 q 660 -17 681 41 q 605 -123 638 -75 q 526 -207 572 -172 q 419 -261 479 -241 q 283 -280 359 -280 q 174 -269 226 -280 q 83 -239 122 -258 l 83 -98 q 177 -131 127 -120 q 271 -142 227 -142 m 372 231 q 455 240 413 231 q 534 268 498 249 q 519 393 532 342 q 485 476 507 444 q 433 522 463 507 q 368 536 404 536 q 313 526 338 536 q 269 497 288 517 q 241 449 251 478 q 231 380 231 420 q 241 311 231 339 q 270 264 251 282 q 315 239 289 247 q 372 231 341 231 z "},"\u0000":{"ha":0,"x_min":0,"x_max":0,"o":""},"\r":{"ha":286,"x_min":0,"x_max":0,"o":""}," ":{"ha":286,"x_min":0,"x_max":0,"o":""},"A":{"ha":913,"x_min":20,"x_max":892,"o":"m 628 231 l 286 231 l 197 0 l 20 0 l 380 907 l 532 907 l 892 0 l 717 0 l 628 231 m 456 689 q 371 451 408 547 l 340 370 l 574 370 l 543 451 q 458 689 506 547 l 456 689 z "},"B":{"ha":865,"x_min":109,"x_max":804,"o":"m 766 666 q 739 558 766 607 q 652 476 713 509 l 652 473 q 714 444 686 462 q 762 401 742 426 q 793 345 782 376 q 804 275 804 314 q 794 204 804 242 q 757 131 783 166 q 686 65 730 95 q 575 18 642 35 q 538 10 558 14 q 494 4 518 7 q 439 1 469 2 q 372 0 410 0 l 109 0 l 109 907 l 424 907 q 587 887 525 907 q 667 848 633 872 q 723 794 701 824 q 755 732 745 765 q 766 666 766 699 m 275 395 l 275 139 l 383 139 q 458 141 427 139 q 511 149 489 144 q 569 169 546 157 q 606 198 592 182 q 627 233 621 214 q 633 274 633 252 q 612 340 633 312 q 546 383 591 369 q 500 392 526 389 q 432 395 473 395 l 275 395 m 425 534 q 526 547 492 534 q 579 590 563 563 q 595 652 595 618 q 576 716 595 688 q 514 758 558 745 q 471 766 496 764 q 411 768 447 768 l 275 768 l 275 534 l 425 534 z "},"C":{"ha":812,"x_min":68,"x_max":751,"o":"m 550 784 q 425 762 482 784 q 327 696 368 739 q 262 591 286 654 q 239 448 239 528 q 260 307 239 368 q 321 205 281 246 q 417 144 360 165 q 545 123 473 123 q 650 132 597 123 q 751 155 704 140 l 751 12 q 648 -9 703 -1 q 534 -17 593 -17 q 332 16 419 -17 q 185 109 244 49 q 97 253 127 169 q 68 437 68 336 q 99 630 68 541 q 190 784 131 719 q 339 886 250 849 q 541 924 428 924 q 650 917 598 924 q 743 895 701 909 l 743 753 q 642 777 688 770 q 550 784 595 784 z "},"D":{"ha":957,"x_min":109,"x_max":889,"o":"m 109 0 l 109 907 l 349 907 q 413 905 380 907 q 477 899 446 903 q 538 889 509 895 q 591 876 567 884 q 720 813 664 852 q 813 720 775 774 q 870 601 850 667 q 889 457 889 534 q 873 320 889 384 q 823 203 857 256 q 740 110 790 150 q 620 43 689 69 q 489 11 562 22 q 324 0 416 0 l 109 0 m 343 139 q 571 179 489 139 q 681 283 644 215 q 718 458 718 352 q 706 559 718 514 q 671 638 694 604 q 615 699 648 673 q 541 740 582 724 q 454 762 502 755 q 348 768 407 768 l 275 768 l 275 139 l 343 139 z "},"E":{"ha":789,"x_min":109,"x_max":721,"o":"m 275 139 l 721 139 l 721 0 l 109 0 l 109 907 l 696 907 l 696 768 l 275 768 l 275 534 l 637 534 l 637 395 l 275 395 l 275 139 z "},"F":{"ha":724,"x_min":109,"x_max":686,"o":"m 275 0 l 109 0 l 109 907 l 686 907 l 686 768 l 275 768 l 275 534 l 627 534 l 627 395 l 275 395 l 275 0 z "},"G":{"ha":934,"x_min":68,"x_max":839,"o":"m 673 347 l 469 347 l 469 486 l 839 486 l 839 28 q 787 12 819 20 q 716 -2 755 4 q 636 -13 677 -9 q 554 -17 595 -17 q 341 16 432 -17 q 189 109 250 49 q 98 251 128 168 q 68 433 68 333 q 84 567 68 503 q 131 686 100 631 q 205 785 161 741 q 306 860 250 829 q 430 908 363 891 q 575 924 498 924 q 705 915 644 924 q 806 890 767 905 l 806 749 q 700 775 753 766 q 591 784 646 784 q 452 762 517 784 q 341 697 388 740 q 267 591 294 654 q 239 445 239 528 q 323 204 240 284 q 560 123 407 123 q 619 126 589 123 q 673 134 650 130 l 673 347 z "},"H":{"ha":970,"x_min":109,"x_max":861,"o":"m 275 534 l 695 534 l 695 907 l 861 907 l 861 0 l 695 0 l 695 395 l 275 395 l 275 0 l 109 0 l 109 907 l 275 907 l 275 534 z "},"I":{"ha":383,"x_min":109,"x_max":275,"o":"m 109 0 l 109 907 l 275 907 l 275 0 l 109 0 z "},"J":{"ha":559,"x_min":34,"x_max":454,"o":"m 288 907 l 454 907 l 454 237 q 447 160 454 192 q 428 103 441 127 q 385 48 411 71 q 327 11 359 25 q 257 -11 294 -4 q 180 -17 220 -17 q 99 -10 138 -17 q 34 7 60 -3 l 34 149 q 98 130 64 137 q 165 123 132 123 q 258 153 229 123 q 288 241 288 183 l 288 907 z "},"K":{"ha":878,"x_min":109,"x_max":857,"o":"m 109 0 l 109 907 l 275 907 l 275 494 l 277 494 l 620 907 l 826 907 l 448 458 l 857 0 l 644 0 l 277 410 l 275 410 l 275 0 l 109 0 z "},"L":{"ha":747,"x_min":109,"x_max":699,"o":"m 275 907 l 275 139 l 699 139 l 699 0 l 109 0 l 109 907 l 275 907 z "},"M":{"ha":1147,"x_min":109,"x_max":1039,"o":"m 575 243 q 649 473 605 351 l 806 907 l 1039 907 l 1039 0 l 873 0 l 873 460 q 881 694 873 561 l 875 694 q 848 608 863 656 q 815 513 832 559 l 627 0 l 520 0 l 332 513 q 300 608 315 559 q 273 694 284 656 l 267 694 q 275 460 275 569 l 275 0 l 109 0 l 109 907 l 340 907 l 497 475 q 571 243 536 368 l 575 243 z "},"N":{"ha":1010,"x_min":109,"x_max":902,"o":"m 581 486 q 740 239 679 347 l 744 239 q 736 496 736 416 l 736 907 l 902 907 l 902 0 l 728 0 l 432 418 q 271 669 354 526 l 267 669 q 275 411 275 503 l 275 0 l 109 0 l 109 907 l 283 907 l 581 486 z "},"O":{"ha":1020,"x_min":68,"x_max":952,"o":"m 781 454 q 760 598 781 536 q 704 702 740 661 q 618 764 668 743 q 510 784 569 784 q 401 764 451 784 q 316 702 352 743 q 260 598 280 661 q 239 454 239 536 q 260 309 239 371 q 316 206 280 247 q 401 144 352 165 q 510 123 451 123 q 618 144 569 123 q 704 206 668 165 q 760 309 740 247 q 781 454 781 371 m 952 454 q 923 263 952 350 q 837 115 893 177 q 697 18 780 52 q 510 -17 615 -17 q 322 18 405 -17 q 183 115 240 52 q 97 263 127 177 q 68 454 68 350 q 97 644 68 557 q 183 793 127 730 q 322 890 240 855 q 510 924 405 924 q 697 890 615 924 q 837 793 780 855 q 923 644 893 730 q 952 454 952 557 z "},"P":{"ha":834,"x_min":109,"x_max":766,"o":"m 359 351 q 315 352 337 351 q 275 355 294 353 l 275 0 l 109 0 l 109 907 l 370 907 q 485 902 436 907 q 573 884 534 896 q 716 793 666 856 q 766 635 766 731 q 739 516 766 569 q 660 427 712 464 q 532 371 608 391 q 359 351 457 351 m 275 494 q 311 491 289 492 q 357 490 333 490 q 469 501 424 490 q 543 531 515 512 q 583 578 570 551 q 595 638 595 606 q 576 707 595 678 q 513 753 558 736 q 454 765 489 761 q 368 768 419 768 l 275 768 l 275 494 z "},"Q":{"ha":1056,"x_min":68,"x_max":988,"o":"m 781 454 q 760 598 781 536 q 704 702 740 661 q 618 764 668 743 q 510 784 569 784 q 401 764 451 784 q 316 702 352 743 q 260 598 280 661 q 239 454 239 536 q 260 309 239 371 q 316 206 280 247 q 401 144 352 165 q 510 123 451 123 q 618 144 569 123 q 704 206 668 165 q 760 309 740 247 q 781 454 781 371 m 799 116 q 838 125 816 121 q 883 132 859 129 q 929 136 906 134 q 975 137 953 137 l 988 137 l 988 -7 q 901 -2 952 -4 q 793 0 850 0 q 717 -2 751 0 q 649 -6 683 -4 q 577 -11 614 -9 q 505 -13 541 -13 q 317 21 399 -13 q 180 117 236 55 q 96 264 125 178 q 68 454 68 350 q 97 644 68 557 q 183 793 127 730 q 322 890 240 855 q 510 924 405 924 q 697 890 615 924 q 837 793 780 855 q 923 647 893 732 q 952 460 952 562 q 942 357 952 408 q 912 264 932 307 q 864 183 893 220 q 798 118 835 145 l 799 116 z "},"R":{"ha":872,"x_min":109,"x_max":835,"o":"m 780 635 q 727 474 780 540 q 565 376 675 408 l 565 373 l 835 0 l 635 0 l 389 351 l 275 351 l 275 0 l 109 0 l 109 907 l 385 907 q 512 900 453 907 q 613 876 571 892 q 736 786 693 846 q 780 635 780 726 m 357 490 q 453 495 414 490 q 520 511 493 500 q 590 563 570 530 q 609 638 609 595 q 594 703 609 675 q 542 747 578 731 q 482 763 518 758 q 393 768 446 768 l 275 768 l 275 490 l 357 490 z "},"S":{"ha":802,"x_min":80,"x_max":726,"o":"m 555 260 q 538 316 555 295 q 492 351 521 338 q 426 373 463 365 q 350 390 390 382 q 249 417 297 401 q 164 461 201 433 q 106 533 127 490 q 84 642 84 576 q 109 767 84 713 q 177 855 134 820 q 278 907 220 890 q 409 924 336 924 q 555 910 481 924 q 681 873 628 896 l 681 731 q 546 771 610 759 q 424 784 481 784 q 297 754 342 784 q 253 665 253 724 q 268 608 253 630 q 307 571 282 585 q 365 547 332 556 q 434 531 397 538 q 544 503 492 519 q 637 458 597 487 q 702 384 678 430 q 726 267 726 338 q 699 140 726 194 q 622 52 671 87 q 500 0 572 17 q 345 -17 429 -17 q 199 -2 271 -17 q 80 39 127 12 l 80 179 q 211 137 147 150 q 342 123 275 123 q 420 130 382 123 q 488 152 458 136 q 536 194 518 168 q 555 260 555 221 z "},"T":{"ha":792,"x_min":20,"x_max":772,"o":"m 479 0 l 313 0 l 313 768 l 20 768 l 20 907 l 772 907 l 772 768 l 479 768 l 479 0 z "},"U":{"ha":972,"x_min":105,"x_max":867,"o":"m 484 -17 q 356 -3 413 -17 q 256 37 299 11 q 182 101 212 63 q 133 186 151 138 q 112 270 118 224 q 105 373 105 316 l 105 907 l 271 907 l 271 388 q 294 237 271 292 q 370 150 320 177 q 486 123 419 123 q 603 150 553 123 q 678 237 652 177 q 701 388 701 292 l 701 907 l 867 907 l 867 373 q 861 270 867 316 q 840 186 854 224 q 790 101 821 138 q 715 37 760 63 q 613 -3 671 11 q 484 -17 555 -17 z "},"V":{"ha":886,"x_min":14,"x_max":872,"o":"m 445 222 q 481 327 470 296 q 528 456 492 359 l 696 907 l 872 907 l 517 0 l 368 0 l 14 907 l 191 907 l 359 456 q 406 327 395 359 q 442 222 417 296 l 445 222 z "},"W":{"ha":1264,"x_min":14,"x_max":1251,"o":"m 630 669 q 569 407 604 542 l 467 0 l 302 0 l 14 907 l 191 907 l 300 546 q 380 238 349 376 l 384 238 q 453 541 414 386 l 547 907 l 718 907 l 811 541 q 880 238 850 387 l 884 238 q 964 546 922 401 l 1074 907 l 1251 907 l 962 0 l 797 0 l 695 407 q 634 669 661 545 l 630 669 z "},"X":{"ha":883,"x_min":14,"x_max":869,"o":"m 348 721 q 440 584 414 625 l 444 584 q 535 720 480 641 l 665 907 l 856 907 l 540 461 l 869 0 l 681 0 l 539 203 q 443 344 487 277 l 440 344 q 344 203 394 275 l 202 0 l 14 0 l 343 461 l 27 907 l 218 907 l 348 721 z "},"Y":{"ha":881,"x_min":14,"x_max":867,"o":"m 441 517 l 683 907 l 867 907 l 524 366 l 524 0 l 357 0 l 357 366 l 14 907 l 198 907 l 439 517 l 441 517 z "},"Z":{"ha":835,"x_min":61,"x_max":774,"o":"m 768 907 l 768 817 l 282 139 l 774 139 l 774 0 l 61 0 l 61 90 l 547 768 l 73 768 l 73 907 l 768 907 z "},"À":{"ha":913,"x_min":20,"x_max":892,"o":"m 628 231 l 286 231 l 197 0 l 20 0 l 380 907 l 532 907 l 892 0 l 717 0 l 628 231 m 456 689 q 371 451 408 547 l 340 370 l 574 370 l 543 451 q 458 689 506 547 l 456 689 m 434 1123 l 528 956 l 400 956 l 271 1123 l 434 1123 m 159 907 z "},"Á":{"ha":913,"x_min":20,"x_max":892,"o":"m 628 231 l 286 231 l 197 0 l 20 0 l 380 907 l 532 907 l 892 0 l 717 0 l 628 231 m 456 689 q 371 451 408 547 l 340 370 l 574 370 l 543 451 q 458 689 506 547 l 456 689 m 642 1123 l 513 956 l 386 956 l 479 1123 l 642 1123 m 265 907 z "},"Â":{"ha":913,"x_min":20,"x_max":892,"o":"m 628 231 l 286 231 l 197 0 l 20 0 l 380 907 l 532 907 l 892 0 l 717 0 l 628 231 m 456 689 q 371 451 408 547 l 340 370 l 574 370 l 543 451 q 458 689 506 547 l 456 689 m 388 1123 l 528 1123 l 674 956 l 534 956 l 459 1041 l 456 1041 l 381 956 l 241 956 l 388 1123 m 186 907 z "},"Ã":{"ha":913,"x_min":20,"x_max":892,"o":"m 628 231 l 286 231 l 197 0 l 20 0 l 380 907 l 532 907 l 892 0 l 717 0 l 628 231 m 456 689 q 371 451 408 547 l 340 370 l 574 370 l 543 451 q 458 689 506 547 l 456 689 m 355 1123 q 408 1114 382 1123 q 456 1093 433 1105 q 500 1070 479 1080 q 536 1061 521 1061 q 563 1074 555 1061 q 570 1118 570 1086 l 677 1118 q 677 1095 677 1107 q 672 1044 677 1069 q 651 997 666 1018 q 613 964 637 976 q 556 951 589 951 q 504 961 529 951 q 456 981 479 970 q 412 1004 433 994 q 376 1014 391 1014 q 349 1001 357 1014 q 341 957 341 988 l 235 957 q 234 979 234 968 q 240 1031 234 1006 q 260 1078 245 1057 q 299 1111 275 1099 q 355 1123 323 1123 m 184 908 z "},"Ä":{"ha":913,"x_min":20,"x_max":892,"o":"m 628 231 l 286 231 l 197 0 l 20 0 l 380 907 l 532 907 l 892 0 l 717 0 l 628 231 m 456 689 q 371 451 408 547 l 340 370 l 574 370 l 543 451 q 458 689 506 547 l 456 689 m 240 1135 l 392 1135 l 392 982 l 240 982 l 240 1135 m 519 1135 l 671 1135 l 671 982 l 519 982 l 519 1135 m 184 907 z "},"Ā":{"ha":913,"x_min":20,"x_max":892,"o":"m 628 231 l 286 231 l 197 0 l 20 0 l 380 907 l 532 907 l 892 0 l 717 0 l 628 231 m 456 689 q 371 451 408 547 l 340 370 l 574 370 l 543 451 q 458 689 506 547 l 456 689 m 265 1097 l 645 1097 l 645 982 l 265 982 l 265 1097 m 184 907 z "},"Ă":{"ha":913,"x_min":20,"x_max":892,"o":"m 628 231 l 286 231 l 197 0 l 20 0 l 380 907 l 532 907 l 892 0 l 717 0 l 628 231 m 456 689 q 371 451 408 547 l 340 370 l 574 370 l 543 451 q 458 689 506 547 l 456 689 m 456 1063 q 513 1081 489 1063 q 544 1139 536 1099 l 684 1139 q 662 1060 679 1095 q 616 1001 645 1025 q 547 964 587 977 q 456 951 507 951 q 365 964 405 951 q 296 1001 325 977 q 250 1060 267 1025 q 228 1139 233 1095 l 368 1139 q 399 1081 375 1099 q 456 1063 422 1063 m 184 907 z "},"Å":{"ha":913,"x_min":20,"x_max":892,"o":"m 628 231 l 286 231 l 197 0 l 20 0 l 380 907 l 532 907 l 892 0 l 717 0 l 628 231 m 456 689 q 371 451 408 547 l 340 370 l 574 370 l 543 451 q 458 689 506 547 l 456 689 m 455 927 q 387 936 418 927 q 334 962 356 945 q 298 1004 311 979 q 286 1060 286 1029 q 298 1116 286 1092 q 334 1158 311 1141 q 387 1184 356 1175 q 455 1193 418 1193 q 523 1184 492 1193 q 576 1158 554 1175 q 612 1116 599 1141 q 625 1060 625 1092 q 612 1004 625 1029 q 576 962 599 979 q 523 936 554 945 q 455 927 492 927 m 455 1118 q 406 1103 426 1118 q 387 1060 387 1088 q 406 1017 387 1031 q 455 1002 426 1002 q 504 1017 484 1002 q 524 1060 524 1031 q 504 1103 524 1088 q 455 1118 484 1118 m 184 907 z "},"Ǻ":{"ha":913,"x_min":20,"x_max":892,"o":"m 642 1318 l 514 1183 l 404 1183 l 496 1318 l 642 1318 m 454 924 q 389 932 418 924 q 338 955 359 940 q 304 993 316 970 q 292 1044 292 1015 q 304 1096 292 1074 q 338 1134 316 1118 q 389 1157 359 1149 q 454 1164 418 1164 q 518 1157 489 1164 q 570 1134 548 1149 q 604 1096 591 1118 q 616 1044 616 1074 q 604 993 616 1015 q 570 955 591 970 q 518 932 548 940 q 454 924 489 924 m 454 1093 q 408 1081 427 1093 q 389 1044 389 1069 q 408 1008 389 1019 q 454 996 427 996 q 499 1008 480 996 q 518 1044 518 1019 q 499 1081 518 1069 q 454 1093 480 1093 m 628 231 l 286 231 l 197 0 l 20 0 l 380 907 l 532 907 l 892 0 l 717 0 l 628 231 m 456 689 q 371 451 408 547 l 340 370 l 574 370 l 543 451 q 458 689 506 547 l 456 689 z "},"Ą":{"ha":913,"x_min":20,"x_max":892,"o":"m 892 0 q 821 -38 852 -17 q 766 -82 789 -59 q 731 -129 743 -105 q 719 -173 719 -152 q 734 -209 719 -197 q 778 -220 749 -220 q 859 -205 817 -220 l 859 -315 q 810 -327 840 -321 q 745 -332 780 -332 q 681 -325 711 -332 q 630 -301 652 -317 q 596 -261 608 -285 q 583 -204 583 -237 q 616 -99 584 -147 q 717 0 649 -50 l 628 231 l 286 231 l 197 0 l 20 0 l 380 907 l 532 907 l 892 0 m 456 689 q 371 451 408 547 l 340 370 l 574 370 l 543 451 q 458 689 506 547 l 456 689 z "},"Æ":{"ha":1297,"x_min":17,"x_max":1250,"o":"m 828 139 l 1250 139 l 1250 0 l 686 0 l 654 231 l 308 231 l 194 0 l 17 0 l 470 907 l 1175 907 l 1175 768 l 740 768 l 773 534 l 1111 534 l 1111 395 l 792 395 l 828 139 m 376 370 l 634 370 l 578 768 l 573 768 l 376 370 z "},"Ǽ":{"ha":1297,"x_min":17,"x_max":1250,"o":"m 828 139 l 1250 139 l 1250 0 l 686 0 l 654 231 l 308 231 l 194 0 l 17 0 l 470 907 l 1175 907 l 1175 768 l 740 768 l 773 534 l 1111 534 l 1111 395 l 792 395 l 828 139 m 376 370 l 634 370 l 578 768 l 573 768 l 376 370 m 988 1123 l 859 956 l 732 956 l 825 1123 l 988 1123 m 611 907 z "},"Ć":{"ha":812,"x_min":68,"x_max":751,"o":"m 550 784 q 425 762 482 784 q 327 696 368 739 q 262 591 286 654 q 239 448 239 528 q 260 307 239 368 q 321 205 281 246 q 417 144 360 165 q 545 123 473 123 q 650 132 597 123 q 751 155 704 140 l 751 12 q 648 -9 703 -1 q 534 -17 593 -17 q 332 16 419 -17 q 185 109 244 49 q 97 253 127 169 q 68 437 68 336 q 99 630 68 541 q 190 784 131 719 q 339 886 250 849 q 541 924 428 924 q 650 917 598 924 q 743 895 701 909 l 743 753 q 642 777 688 770 q 550 784 595 784 m 694 1123 l 565 956 l 437 956 l 531 1123 l 694 1123 m 317 907 z "},"Ĉ":{"ha":812,"x_min":68,"x_max":751,"o":"m 550 784 q 425 762 482 784 q 327 696 368 739 q 262 591 286 654 q 239 448 239 528 q 260 307 239 368 q 321 205 281 246 q 417 144 360 165 q 545 123 473 123 q 650 132 597 123 q 751 155 704 140 l 751 12 q 648 -9 703 -1 q 534 -17 593 -17 q 332 16 419 -17 q 185 109 244 49 q 97 253 127 169 q 68 437 68 336 q 99 630 68 541 q 190 784 131 719 q 339 886 250 849 q 541 924 428 924 q 650 917 598 924 q 743 895 701 909 l 743 753 q 642 777 688 770 q 550 784 595 784 m 439 1123 l 578 1123 l 725 956 l 585 956 l 510 1041 l 507 1041 l 432 956 l 292 956 l 439 1123 m 237 907 z "},"Č":{"ha":812,"x_min":68,"x_max":751,"o":"m 550 784 q 425 762 482 784 q 327 696 368 739 q 262 591 286 654 q 239 448 239 528 q 260 307 239 368 q 321 205 281 246 q 417 144 360 165 q 545 123 473 123 q 650 132 597 123 q 751 155 704 140 l 751 12 q 648 -9 703 -1 q 534 -17 593 -17 q 332 16 419 -17 q 185 109 244 49 q 97 253 127 169 q 68 437 68 336 q 99 630 68 541 q 190 784 131 719 q 339 886 250 849 q 541 924 428 924 q 650 917 598 924 q 743 895 701 909 l 743 753 q 642 777 688 770 q 550 784 595 784 m 581 956 l 441 956 l 295 1124 l 435 1124 l 510 1038 l 513 1038 l 588 1124 l 728 1124 l 581 956 m 240 907 z "},"Ċ":{"ha":812,"x_min":68,"x_max":751,"o":"m 550 784 q 425 762 482 784 q 327 696 368 739 q 262 591 286 654 q 239 448 239 528 q 260 307 239 368 q 321 205 281 246 q 417 144 360 165 q 545 123 473 123 q 650 132 597 123 q 751 155 704 140 l 751 12 q 648 -9 703 -1 q 534 -17 593 -17 q 332 16 419 -17 q 185 109 244 49 q 97 253 127 169 q 68 437 68 336 q 99 630 68 541 q 190 784 131 719 q 339 886 250 849 q 541 924 428 924 q 650 917 598 924 q 743 895 701 909 l 743 753 q 642 777 688 770 q 550 784 595 784 m 431 1156 l 600 1156 l 600 982 l 431 982 l 431 1156 m 245 907 z "},"Ç":{"ha":812,"x_min":68,"x_max":751,"o":"m 406 -5 q 259 51 322 12 q 153 147 195 90 q 89 278 111 204 q 68 437 68 351 q 99 630 68 541 q 191 785 131 720 q 340 887 252 850 q 541 924 428 924 q 651 917 600 924 q 743 895 701 909 l 743 753 q 641 777 689 770 q 550 784 593 784 q 425 762 482 784 q 327 696 368 739 q 262 591 286 654 q 239 448 239 528 q 260 307 239 368 q 321 205 281 246 q 417 144 360 165 q 545 123 473 123 q 655 133 600 123 q 751 155 711 142 l 751 12 q 648 -9 703 -1 q 534 -17 593 -17 q 515 -17 524 -17 q 505 -16 506 -16 l 488 -80 q 538 -93 515 -84 q 578 -117 561 -102 q 604 -151 595 -132 q 614 -194 614 -170 q 600 -248 614 -222 q 561 -292 587 -273 q 493 -321 534 -311 q 404 -332 452 -332 q 350 -329 378 -332 q 309 -319 323 -325 l 309 -220 q 350 -229 323 -225 q 397 -232 376 -232 q 440 -228 422 -232 q 468 -217 458 -224 q 482 -203 478 -211 q 486 -189 486 -195 q 457 -157 486 -168 q 364 -146 427 -147 l 406 -5 z "},"Ď":{"ha":957,"x_min":109,"x_max":889,"o":"m 109 0 l 109 907 l 349 907 q 413 905 380 907 q 477 899 446 903 q 538 889 509 895 q 591 876 567 884 q 720 813 664 852 q 813 720 775 774 q 870 601 850 667 q 889 457 889 534 q 873 320 889 384 q 823 203 857 256 q 740 110 790 150 q 620 43 689 69 q 489 11 562 22 q 324 0 416 0 l 109 0 m 343 139 q 571 179 489 139 q 681 283 644 215 q 718 458 718 352 q 706 559 718 514 q 671 638 694 604 q 615 699 648 673 q 541 740 582 724 q 454 762 502 755 q 348 768 407 768 l 275 768 l 275 139 l 343 139 m 532 956 l 393 956 l 246 1124 l 387 1124 l 461 1038 l 464 1038 l 539 1124 l 679 1124 l 532 956 m 191 907 z "},"Đ":{"ha":1006,"x_min":41,"x_max":938,"o":"m 41 534 l 157 534 l 157 907 l 397 907 q 462 905 429 907 q 526 899 495 903 q 587 889 557 895 q 640 876 616 884 q 768 813 713 852 q 862 720 824 774 q 919 601 899 667 q 938 457 938 534 q 922 320 938 384 q 872 203 905 256 q 788 110 839 150 q 669 43 738 69 q 538 11 611 22 q 373 0 466 0 l 157 0 l 157 395 l 41 395 l 41 534 m 391 139 q 619 179 537 139 q 729 283 692 215 q 766 458 766 352 q 754 559 766 514 q 719 638 742 604 q 663 699 696 673 q 589 740 630 724 q 503 762 550 755 q 396 768 455 768 l 323 768 l 323 534 l 558 534 l 558 395 l 323 395 l 323 139 l 391 139 z "},"È":{"ha":789,"x_min":109,"x_max":721,"o":"m 275 139 l 721 139 l 721 0 l 109 0 l 109 907 l 696 907 l 696 768 l 275 768 l 275 534 l 637 534 l 637 395 l 275 395 l 275 139 m 395 1123 l 488 956 l 361 956 l 232 1123 l 395 1123 m 119 907 z "},"É":{"ha":789,"x_min":109,"x_max":721,"o":"m 275 139 l 721 139 l 721 0 l 109 0 l 109 907 l 696 907 l 696 768 l 275 768 l 275 534 l 637 534 l 637 395 l 275 395 l 275 139 m 578 1123 l 449 956 l 321 956 l 415 1123 l 578 1123 m 201 907 z "},"Ê":{"ha":789,"x_min":109,"x_max":721,"o":"m 275 139 l 721 139 l 721 0 l 109 0 l 109 907 l 696 907 l 696 768 l 275 768 l 275 534 l 637 534 l 637 395 l 275 395 l 275 139 m 338 1123 l 477 1123 l 624 956 l 484 956 l 409 1041 l 406 1041 l 331 956 l 191 956 l 338 1123 m 136 907 z "},"Ě":{"ha":789,"x_min":109,"x_max":721,"o":"m 275 139 l 721 139 l 721 0 l 109 0 l 109 907 l 696 907 l 696 768 l 275 768 l 275 534 l 637 534 l 637 395 l 275 395 l 275 139 m 473 956 l 334 956 l 187 1124 l 328 1124 l 402 1038 l 405 1038 l 480 1124 l 620 1124 l 473 956 m 132 907 z "},"Ë":{"ha":789,"x_min":109,"x_max":721,"o":"m 275 139 l 721 139 l 721 0 l 109 0 l 109 907 l 696 907 l 696 768 l 275 768 l 275 534 l 637 534 l 637 395 l 275 395 l 275 139 m 192 1135 l 344 1135 l 344 982 l 192 982 l 192 1135 m 471 1135 l 623 1135 l 623 982 l 471 982 l 471 1135 m 136 907 z "},"Ē":{"ha":789,"x_min":109,"x_max":721,"o":"m 275 139 l 721 139 l 721 0 l 109 0 l 109 907 l 696 907 l 696 768 l 275 768 l 275 534 l 637 534 l 637 395 l 275 395 l 275 139 m 205 1097 l 585 1097 l 585 982 l 205 982 l 205 1097 m 124 907 z "},"Ĕ":{"ha":789,"x_min":109,"x_max":721,"o":"m 275 139 l 721 139 l 721 0 l 109 0 l 109 907 l 696 907 l 696 768 l 275 768 l 275 534 l 637 534 l 637 395 l 275 395 l 275 139 m 401 1063 q 458 1081 435 1063 q 490 1139 482 1099 l 629 1139 q 608 1060 625 1095 q 562 1001 591 1025 q 492 964 532 977 q 401 951 452 951 q 311 964 351 951 q 241 1001 271 977 q 195 1060 212 1025 q 174 1139 178 1095 l 313 1139 q 345 1081 321 1099 q 401 1063 368 1063 m 130 907 z "},"Ė":{"ha":789,"x_min":109,"x_max":721,"o":"m 275 139 l 721 139 l 721 0 l 109 0 l 109 907 l 696 907 l 696 768 l 275 768 l 275 534 l 637 534 l 637 395 l 275 395 l 275 139 m 320 1156 l 489 1156 l 489 982 l 320 982 l 320 1156 m 134 907 z "},"Ę":{"ha":789,"x_min":109,"x_max":721,"o":"m 109 0 l 109 907 l 696 907 l 696 768 l 275 768 l 275 534 l 637 534 l 637 395 l 275 395 l 275 139 l 721 139 l 721 0 q 668 -42 693 -20 q 623 -86 642 -64 q 592 -130 604 -108 q 581 -173 581 -152 q 594 -208 581 -195 q 638 -220 608 -220 q 721 -205 678 -220 l 721 -315 q 669 -327 699 -322 q 607 -332 640 -332 q 543 -325 572 -332 q 492 -301 513 -317 q 457 -261 470 -285 q 445 -204 445 -237 q 478 -100 445 -147 q 578 -3 511 -53 l 578 0 l 109 0 z "},"Ĝ":{"ha":934,"x_min":68,"x_max":839,"o":"m 673 347 l 469 347 l 469 486 l 839 486 l 839 28 q 787 12 819 20 q 716 -2 755 4 q 636 -13 677 -9 q 554 -17 595 -17 q 341 16 432 -17 q 189 109 250 49 q 98 251 128 168 q 68 433 68 333 q 84 567 68 503 q 131 686 100 631 q 205 785 161 741 q 306 860 250 829 q 430 908 363 891 q 575 924 498 924 q 705 915 644 924 q 806 890 767 905 l 806 749 q 700 775 753 766 q 591 784 646 784 q 452 762 517 784 q 341 697 388 740 q 267 591 294 654 q 239 445 239 528 q 323 204 240 284 q 560 123 407 123 q 619 126 589 123 q 673 134 650 130 l 673 347 m 447 1123 l 587 1123 l 733 956 l 593 956 l 518 1041 l 515 1041 l 440 956 l 300 956 l 447 1123 m 245 907 z "},"Ğ":{"ha":934,"x_min":68,"x_max":839,"o":"m 673 347 l 469 347 l 469 486 l 839 486 l 839 28 q 787 12 819 20 q 716 -2 755 4 q 636 -13 677 -9 q 554 -17 595 -17 q 341 16 432 -17 q 189 109 250 49 q 98 251 128 168 q 68 433 68 333 q 84 567 68 503 q 131 686 100 631 q 205 785 161 741 q 306 860 250 829 q 430 908 363 891 q 575 924 498 924 q 705 915 644 924 q 806 890 767 905 l 806 749 q 700 775 753 766 q 591 784 646 784 q 452 762 517 784 q 341 697 388 740 q 267 591 294 654 q 239 445 239 528 q 323 204 240 284 q 560 123 407 123 q 619 126 589 123 q 673 134 650 130 l 673 347 m 487 1063 q 544 1081 520 1063 q 575 1139 568 1099 l 715 1139 q 693 1060 710 1095 q 647 1001 676 1025 q 578 964 618 977 q 487 951 538 951 q 396 964 436 951 q 327 1001 356 977 q 281 1060 298 1025 q 259 1139 264 1095 l 399 1139 q 430 1081 406 1099 q 487 1063 454 1063 m 216 907 z "},"Ġ":{"ha":934,"x_min":68,"x_max":839,"o":"m 673 347 l 469 347 l 469 486 l 839 486 l 839 28 q 787 12 819 20 q 716 -2 755 4 q 636 -13 677 -9 q 554 -17 595 -17 q 341 16 432 -17 q 189 109 250 49 q 98 251 128 168 q 68 433 68 333 q 84 567 68 503 q 131 686 100 631 q 205 785 161 741 q 306 860 250 829 q 430 908 363 891 q 575 924 498 924 q 705 915 644 924 q 806 890 767 905 l 806 749 q 700 775 753 766 q 591 784 646 784 q 452 762 517 784 q 341 697 388 740 q 267 591 294 654 q 239 445 239 528 q 323 204 240 284 q 560 123 407 123 q 619 126 589 123 q 673 134 650 130 l 673 347 m 430 1156 l 599 1156 l 599 982 l 430 982 l 430 1156 m 244 907 z "},"Ģ":{"ha":934,"x_min":68,"x_max":839,"o":"m 673 347 l 469 347 l 469 486 l 839 486 l 839 28 q 787 12 819 20 q 716 -2 755 4 q 636 -13 677 -9 q 554 -17 595 -17 q 341 16 432 -17 q 189 109 250 49 q 98 251 128 168 q 68 433 68 333 q 84 567 68 503 q 131 686 100 631 q 205 785 161 741 q 306 860 250 829 q 430 908 363 891 q 575 924 498 924 q 705 915 644 924 q 806 890 767 905 l 806 749 q 700 775 753 766 q 591 784 646 784 q 452 762 517 784 q 341 697 388 740 q 267 591 294 654 q 239 445 239 528 q 323 204 240 284 q 560 123 407 123 q 619 126 589 123 q 673 134 650 130 l 673 347 m 509 -230 q 494 -198 509 -208 q 455 -189 479 -189 l 455 -74 q 479 -73 467 -73 q 591 -105 549 -73 q 633 -199 633 -137 q 620 -267 633 -232 q 583 -332 606 -302 l 461 -332 q 495 -278 481 -304 q 509 -230 509 -252 z "},"Ĥ":{"ha":970,"x_min":109,"x_max":861,"o":"m 275 534 l 695 534 l 695 907 l 861 907 l 861 0 l 695 0 l 695 395 l 275 395 l 275 0 l 109 0 l 109 907 l 275 907 l 275 534 m 414 1123 l 554 1123 l 701 956 l 560 956 l 486 1041 l 483 1041 l 408 956 l 268 956 l 414 1123 m 213 907 z "},"Ħ":{"ha":970,"x_min":0,"x_max":968,"o":"m 0 797 l 109 797 l 109 907 l 275 907 l 275 797 l 695 797 l 695 907 l 861 907 l 861 797 l 968 797 l 968 663 l 861 663 l 861 0 l 695 0 l 695 395 l 275 395 l 275 0 l 109 0 l 109 663 l 0 663 l 0 797 m 695 534 l 695 663 l 275 663 l 275 534 l 695 534 z "},"Ì":{"ha":383,"x_min":-88,"x_max":281,"o":"m 109 0 l 109 907 l 275 907 l 275 0 l 109 0 m 187 1123 l 281 956 l 153 956 l 24 1123 l 187 1123 m -88 907 z "},"Í":{"ha":383,"x_min":-3,"x_max":374,"o":"m 109 0 l 109 907 l 275 907 l 275 0 l 109 0 m 374 1123 l 245 956 l 118 956 l 212 1123 l 374 1123 m -3 907 z "},"Î":{"ha":383,"x_min":-75,"x_max":413,"o":"m 109 0 l 109 907 l 275 907 l 275 0 l 109 0 m 127 1123 l 267 1123 l 413 956 l 273 956 l 198 1041 l 195 1041 l 120 956 l -20 956 l 127 1123 m -75 907 z "},"Ĩ":{"ha":383,"x_min":-73,"x_max":420,"o":"m 109 0 l 109 907 l 275 907 l 275 0 l 109 0 m 98 1123 q 151 1114 125 1123 q 199 1093 176 1105 q 243 1070 222 1080 q 279 1061 264 1061 q 306 1074 298 1061 q 313 1118 313 1086 l 420 1118 q 420 1095 420 1107 q 415 1044 420 1069 q 394 997 409 1018 q 356 964 380 976 q 299 951 332 951 q 247 961 272 951 q 199 981 222 970 q 155 1004 176 994 q 119 1014 134 1014 q 92 1001 100 1014 q 84 957 84 988 l -22 957 q -23 979 -23 968 q -17 1031 -23 1006 q 3 1078 -12 1057 q 42 1111 18 1099 q 98 1123 66 1123 m -73 908 z "},"Ï":{"ha":383,"x_min":-75,"x_max":412,"o":"m 109 0 l 109 907 l 275 907 l 275 0 l 109 0 m -19 1135 l 133 1135 l 133 982 l -19 982 l -19 1135 m 260 1135 l 412 1135 l 412 982 l 260 982 l 260 1135 m -75 907 z "},"Ī":{"ha":383,"x_min":-74,"x_max":387,"o":"m 109 0 l 109 907 l 275 907 l 275 0 l 109 0 m 7 1097 l 387 1097 l 387 982 l 7 982 l 7 1097 m -74 907 z "},"Ĭ":{"ha":383,"x_min":-75,"x_max":425,"o":"m 109 0 l 109 907 l 275 907 l 275 0 l 109 0 m 197 1063 q 254 1081 230 1063 q 285 1139 277 1099 l 425 1139 q 403 1060 420 1095 q 357 1001 386 1025 q 288 964 328 977 q 197 951 248 951 q 106 964 146 951 q 37 1001 66 977 q -9 1060 7 1025 q -31 1139 -26 1095 l 109 1139 q 140 1081 116 1099 q 197 1063 163 1063 m -75 907 z "},"İ":{"ha":383,"x_min":-73,"x_max":282,"o":"m 109 0 l 109 907 l 275 907 l 275 0 l 109 0 m 113 1156 l 282 1156 l 282 982 l 113 982 l 113 1156 m -73 907 z "},"Į":{"ha":383,"x_min":7,"x_max":286,"o":"m 109 907 l 275 907 l 275 0 q 218 -39 243 -18 q 177 -82 194 -60 q 152 -126 160 -104 q 143 -167 143 -149 q 148 -193 143 -182 q 162 -209 153 -203 q 181 -218 170 -215 q 205 -220 193 -220 q 286 -205 243 -220 l 286 -315 q 238 -327 267 -321 q 174 -332 210 -332 q 105 -323 136 -332 q 53 -296 75 -314 q 19 -253 31 -279 q 7 -194 7 -227 q 15 -137 7 -163 q 36 -88 22 -111 q 68 -43 50 -64 q 109 0 86 -21 l 109 907 z "},"Ĳ":{"ha":907,"x_min":109,"x_max":802,"o":"m 109 0 l 109 907 l 275 907 l 275 0 l 109 0 m 635 907 l 802 907 l 802 237 q 795 160 802 192 q 776 103 789 127 q 733 48 759 71 q 675 11 707 25 q 605 -11 642 -4 q 528 -17 568 -17 q 447 -10 486 -17 q 382 7 408 -3 l 382 149 q 446 130 412 137 q 513 123 479 123 q 606 153 577 123 q 635 241 635 183 l 635 907 z "},"Ĵ":{"ha":559,"x_min":34,"x_max":587,"o":"m 288 907 l 454 907 l 454 237 q 447 160 454 192 q 428 103 441 127 q 385 48 411 71 q 327 11 359 25 q 257 -11 294 -4 q 180 -17 220 -17 q 99 -10 138 -17 q 34 7 60 -3 l 34 149 q 98 130 64 137 q 165 123 132 123 q 258 153 229 123 q 288 241 288 183 l 288 907 m 300 1123 l 440 1123 l 587 956 l 446 956 l 372 1041 l 369 1041 l 294 956 l 154 956 l 300 1123 m 99 907 z "},"Ķ":{"ha":878,"x_min":109,"x_max":857,"o":"m 109 0 l 109 907 l 275 907 l 275 494 l 277 494 l 620 907 l 826 907 l 448 458 l 857 0 l 644 0 l 277 410 l 275 410 l 275 0 l 109 0 m 431 -230 q 416 -198 431 -208 q 377 -189 401 -189 l 377 -74 q 401 -73 389 -73 q 513 -105 471 -73 q 555 -199 555 -137 q 542 -267 555 -232 q 505 -332 528 -302 l 383 -332 q 417 -278 404 -304 q 431 -230 431 -252 z "},"Ĺ":{"ha":747,"x_min":-4,"x_max":699,"o":"m 275 907 l 275 139 l 699 139 l 699 0 l 109 0 l 109 907 l 275 907 m 373 1123 l 244 956 l 117 956 l 210 1123 l 373 1123 m -4 907 z "},"Ľ":{"ha":747,"x_min":109,"x_max":699,"o":"m 275 907 l 275 139 l 699 139 l 699 0 l 109 0 l 109 907 l 275 907 m 456 757 q 441 788 456 779 q 402 798 426 798 l 402 913 q 425 913 414 913 q 539 882 497 913 q 581 791 581 850 q 567 722 581 757 q 530 654 553 686 l 408 654 q 442 709 428 682 q 456 757 456 736 z "},"Ļ":{"ha":747,"x_min":109,"x_max":699,"o":"m 275 907 l 275 139 l 699 139 l 699 0 l 109 0 l 109 907 l 275 907 m 395 -230 q 380 -198 395 -208 q 342 -189 366 -189 l 342 -74 q 366 -73 354 -73 q 478 -105 436 -73 q 520 -199 520 -137 q 507 -267 520 -232 q 469 -332 493 -302 l 348 -332 q 382 -278 368 -304 q 395 -230 395 -252 z "},"Ł":{"ha":747,"x_min":9,"x_max":699,"o":"m 509 499 l 275 412 l 275 139 l 699 139 l 699 0 l 109 0 l 109 351 l 9 314 l 9 456 l 109 493 l 109 907 l 275 907 l 275 554 l 509 642 l 509 499 z "},"Ŀ":{"ha":747,"x_min":109,"x_max":699,"o":"m 275 907 l 275 139 l 699 139 l 699 0 l 109 0 l 109 907 l 275 907 m 424 597 l 593 597 l 593 422 l 424 422 l 424 597 z "},"Ń":{"ha":1010,"x_min":109,"x_max":902,"o":"m 581 486 q 740 239 679 347 l 744 239 q 736 496 736 416 l 736 907 l 902 907 l 902 0 l 728 0 l 432 418 q 271 669 354 526 l 267 669 q 275 411 275 503 l 275 0 l 109 0 l 109 907 l 283 907 l 581 486 m 692 1123 l 563 956 l 435 956 l 529 1123 l 692 1123 m 315 907 z "},"Ň":{"ha":1010,"x_min":109,"x_max":902,"o":"m 581 486 q 740 239 679 347 l 744 239 q 736 496 736 416 l 736 907 l 902 907 l 902 0 l 728 0 l 432 418 q 271 669 354 526 l 267 669 q 275 411 275 503 l 275 0 l 109 0 l 109 907 l 283 907 l 581 486 m 576 956 l 436 956 l 290 1124 l 430 1124 l 505 1038 l 507 1038 l 583 1124 l 722 1124 l 576 956 m 235 907 z "},"Ñ":{"ha":1010,"x_min":109,"x_max":902,"o":"m 581 486 q 740 239 679 347 l 744 239 q 736 496 736 416 l 736 907 l 902 907 l 902 0 l 728 0 l 432 418 q 271 669 354 526 l 267 669 q 275 411 275 503 l 275 0 l 109 0 l 109 907 l 283 907 l 581 486 m 408 1123 q 460 1114 435 1123 q 509 1093 486 1105 q 553 1070 532 1080 q 589 1061 574 1061 q 615 1074 608 1061 q 623 1118 623 1086 l 730 1118 q 730 1095 730 1107 q 725 1044 730 1069 q 704 997 719 1018 q 666 964 690 976 q 609 951 642 951 q 557 961 582 951 q 509 981 532 970 q 465 1004 486 994 q 429 1014 444 1014 q 402 1001 410 1014 q 394 957 394 988 l 288 957 q 287 979 287 968 q 293 1031 287 1006 q 313 1078 298 1057 q 352 1111 328 1099 q 408 1123 376 1123 m 237 908 z "},"Ņ":{"ha":1010,"x_min":109,"x_max":902,"o":"m 581 486 q 740 239 679 347 l 744 239 q 736 496 736 416 l 736 907 l 902 907 l 902 0 l 728 0 l 432 418 q 271 669 354 526 l 267 669 q 275 411 275 503 l 275 0 l 109 0 l 109 907 l 283 907 l 581 486 m 481 -230 q 466 -198 481 -208 q 427 -189 451 -189 l 427 -74 q 451 -73 439 -73 q 564 -105 522 -73 q 606 -199 606 -137 q 592 -267 606 -232 q 555 -332 578 -302 l 433 -332 q 467 -278 454 -304 q 481 -230 481 -252 z "},"Ò":{"ha":1020,"x_min":68,"x_max":952,"o":"m 781 454 q 760 598 781 536 q 704 702 740 661 q 618 764 668 743 q 510 784 569 784 q 401 764 451 784 q 316 702 352 743 q 260 598 280 661 q 239 454 239 536 q 260 309 239 371 q 316 206 280 247 q 401 144 352 165 q 510 123 451 123 q 618 144 569 123 q 704 206 668 165 q 760 309 740 247 q 781 454 781 371 m 952 454 q 923 263 952 350 q 837 115 893 177 q 697 18 780 52 q 510 -17 615 -17 q 322 18 405 -17 q 183 115 240 52 q 97 263 127 177 q 68 454 68 350 q 97 644 68 557 q 183 793 127 730 q 322 890 240 855 q 510 924 405 924 q 697 890 615 924 q 837 793 780 855 q 923 644 893 730 q 952 454 952 557 m 481 1123 l 575 956 l 448 956 l 319 1123 l 481 1123 m 206 907 z "},"Ó":{"ha":1020,"x_min":68,"x_max":952,"o":"m 781 454 q 760 598 781 536 q 704 702 740 661 q 618 764 668 743 q 510 784 569 784 q 401 764 451 784 q 316 702 352 743 q 260 598 280 661 q 239 454 239 536 q 260 309 239 371 q 316 206 280 247 q 401 144 352 165 q 510 123 451 123 q 618 144 569 123 q 704 206 668 165 q 760 309 740 247 q 781 454 781 371 m 952 454 q 923 263 952 350 q 837 115 893 177 q 697 18 780 52 q 510 -17 615 -17 q 322 18 405 -17 q 183 115 240 52 q 97 263 127 177 q 68 454 68 350 q 97 644 68 557 q 183 793 127 730 q 322 890 240 855 q 510 924 405 924 q 697 890 615 924 q 837 793 780 855 q 923 644 893 730 q 952 454 952 557 m 700 1123 l 571 956 l 444 956 l 537 1123 l 700 1123 m 323 907 z "},"Ô":{"ha":1020,"x_min":68,"x_max":952,"o":"m 781 454 q 760 598 781 536 q 704 702 740 661 q 618 764 668 743 q 510 784 569 784 q 401 764 451 784 q 316 702 352 743 q 260 598 280 661 q 239 454 239 536 q 260 309 239 371 q 316 206 280 247 q 401 144 352 165 q 510 123 451 123 q 618 144 569 123 q 704 206 668 165 q 760 309 740 247 q 781 454 781 371 m 952 454 q 923 263 952 350 q 837 115 893 177 q 697 18 780 52 q 510 -17 615 -17 q 322 18 405 -17 q 183 115 240 52 q 97 263 127 177 q 68 454 68 350 q 97 644 68 557 q 183 793 127 730 q 322 890 240 855 q 510 924 405 924 q 697 890 615 924 q 837 793 780 855 q 923 644 893 730 q 952 454 952 557 m 440 1123 l 580 1123 l 726 956 l 586 956 l 511 1041 l 509 1041 l 433 956 l 294 956 l 440 1123 m 239 907 z "},"Õ":{"ha":1020,"x_min":68,"x_max":952,"o":"m 781 454 q 760 598 781 536 q 704 702 740 661 q 618 764 668 743 q 510 784 569 784 q 401 764 451 784 q 316 702 352 743 q 260 598 280 661 q 239 454 239 536 q 260 309 239 371 q 316 206 280 247 q 401 144 352 165 q 510 123 451 123 q 618 144 569 123 q 704 206 668 165 q 760 309 740 247 q 781 454 781 371 m 952 454 q 923 263 952 350 q 837 115 893 177 q 697 18 780 52 q 510 -17 615 -17 q 322 18 405 -17 q 183 115 240 52 q 97 263 127 177 q 68 454 68 350 q 97 644 68 557 q 183 793 127 730 q 322 890 240 855 q 510 924 405 924 q 697 890 615 924 q 837 793 780 855 q 923 644 893 730 q 952 454 952 557 m 414 1123 q 467 1114 441 1123 q 515 1093 492 1105 q 559 1070 538 1080 q 595 1061 580 1061 q 622 1074 614 1061 q 629 1118 629 1086 l 736 1118 q 736 1095 736 1107 q 731 1044 736 1069 q 710 997 725 1018 q 672 964 696 976 q 615 951 648 951 q 563 961 588 951 q 515 981 538 970 q 471 1004 492 994 q 435 1014 450 1014 q 408 1001 416 1014 q 400 957 400 988 l 294 957 q 293 979 293 968 q 299 1031 293 1006 q 319 1078 304 1057 q 358 1111 334 1099 q 414 1123 382 1123 m 243 908 z "},"Ö":{"ha":1020,"x_min":68,"x_max":952,"o":"m 781 454 q 760 598 781 536 q 704 702 740 661 q 618 764 668 743 q 510 784 569 784 q 401 764 451 784 q 316 702 352 743 q 260 598 280 661 q 239 454 239 536 q 260 309 239 371 q 316 206 280 247 q 401 144 352 165 q 510 123 451 123 q 618 144 569 123 q 704 206 668 165 q 760 309 740 247 q 781 454 781 371 m 952 454 q 923 263 952 350 q 837 115 893 177 q 697 18 780 52 q 510 -17 615 -17 q 322 18 405 -17 q 183 115 240 52 q 97 263 127 177 q 68 454 68 350 q 97 644 68 557 q 183 793 127 730 q 322 890 240 855 q 510 924 405 924 q 697 890 615 924 q 837 793 780 855 q 923 644 893 730 q 952 454 952 557 m 296 1135 l 448 1135 l 448 982 l 296 982 l 296 1135 m 576 1135 l 728 1135 l 728 982 l 576 982 l 576 1135 m 241 907 z "},"Ō":{"ha":1020,"x_min":68,"x_max":952,"o":"m 781 454 q 760 598 781 536 q 704 702 740 661 q 618 764 668 743 q 510 784 569 784 q 401 764 451 784 q 316 702 352 743 q 260 598 280 661 q 239 454 239 536 q 260 309 239 371 q 316 206 280 247 q 401 144 352 165 q 510 123 451 123 q 618 144 569 123 q 704 206 668 165 q 760 309 740 247 q 781 454 781 371 m 952 454 q 923 263 952 350 q 837 115 893 177 q 697 18 780 52 q 510 -17 615 -17 q 322 18 405 -17 q 183 115 240 52 q 97 263 127 177 q 68 454 68 350 q 97 644 68 557 q 183 793 127 730 q 322 890 240 855 q 510 924 405 924 q 697 890 615 924 q 837 793 780 855 q 923 644 893 730 q 952 454 952 557 m 321 1097 l 701 1097 l 701 982 l 321 982 l 321 1097 m 240 907 z "},"Ŏ":{"ha":1020,"x_min":68,"x_max":952,"o":"m 781 454 q 760 598 781 536 q 704 702 740 661 q 618 764 668 743 q 510 784 569 784 q 401 764 451 784 q 316 702 352 743 q 260 598 280 661 q 239 454 239 536 q 260 309 239 371 q 316 206 280 247 q 401 144 352 165 q 510 123 451 123 q 618 144 569 123 q 704 206 668 165 q 760 309 740 247 q 781 454 781 371 m 952 454 q 923 263 952 350 q 837 115 893 177 q 697 18 780 52 q 510 -17 615 -17 q 322 18 405 -17 q 183 115 240 52 q 97 263 127 177 q 68 454 68 350 q 97 644 68 557 q 183 793 127 730 q 322 890 240 855 q 510 924 405 924 q 697 890 615 924 q 837 793 780 855 q 923 644 893 730 q 952 454 952 557 m 511 1063 q 568 1081 544 1063 q 599 1139 591 1099 l 739 1139 q 717 1060 734 1095 q 671 1001 700 1025 q 602 964 642 977 q 511 951 562 951 q 420 964 460 951 q 351 1001 380 977 q 304 1060 321 1025 q 283 1139 288 1095 l 422 1139 q 454 1081 430 1099 q 511 1063 477 1063 m 239 907 z "},"Ő":{"ha":1020,"x_min":68,"x_max":952,"o":"m 781 454 q 760 598 781 536 q 704 702 740 661 q 618 764 668 743 q 510 784 569 784 q 401 764 451 784 q 316 702 352 743 q 260 598 280 661 q 239 454 239 536 q 260 309 239 371 q 316 206 280 247 q 401 144 352 165 q 510 123 451 123 q 618 144 569 123 q 704 206 668 165 q 760 309 740 247 q 781 454 781 371 m 952 454 q 923 263 952 350 q 837 115 893 177 q 697 18 780 52 q 510 -17 615 -17 q 322 18 405 -17 q 183 115 240 52 q 97 263 127 177 q 68 454 68 350 q 97 644 68 557 q 183 793 127 730 q 322 890 240 855 q 510 924 405 924 q 697 890 615 924 q 837 793 780 855 q 923 644 893 730 q 952 454 952 557 m 597 1123 l 468 956 l 340 956 l 434 1123 l 597 1123 m 819 1123 l 678 956 l 548 956 l 653 1123 l 819 1123 m 304 907 z "},"Ø":{"ha":1020,"x_min":68,"x_max":952,"o":"m 163 -17 l 68 73 l 148 160 q 88 293 109 219 q 68 454 68 367 q 97 644 68 557 q 183 793 127 730 q 322 890 240 855 q 510 924 405 924 q 660 903 592 924 q 781 842 728 882 l 857 924 l 952 834 l 871 747 q 932 614 911 688 q 952 454 952 541 q 923 263 952 350 q 837 115 893 177 q 697 18 780 52 q 510 -17 615 -17 q 360 4 428 -17 q 239 64 292 25 l 163 -17 m 781 454 q 773 544 781 503 q 753 619 766 585 l 344 178 q 419 137 378 151 q 510 123 461 123 q 618 144 569 123 q 704 206 668 165 q 760 309 740 247 q 781 454 781 371 m 510 784 q 401 764 451 784 q 316 702 352 743 q 260 598 280 661 q 239 454 239 536 q 246 364 239 405 q 267 288 253 323 l 675 729 q 600 770 642 757 q 510 784 558 784 z "},"Ǿ":{"ha":1020,"x_min":68,"x_max":952,"o":"m 163 -17 l 68 73 l 148 160 q 88 293 109 219 q 68 454 68 367 q 97 644 68 557 q 183 793 127 730 q 322 890 240 855 q 510 924 405 924 q 660 903 592 924 q 781 842 728 882 l 857 924 l 952 834 l 871 747 q 932 614 911 688 q 952 454 952 541 q 923 263 952 350 q 837 115 893 177 q 697 18 780 52 q 510 -17 615 -17 q 360 4 428 -17 q 239 64 292 25 l 163 -17 m 781 454 q 773 544 781 503 q 753 619 766 585 l 344 178 q 419 137 378 151 q 510 123 461 123 q 618 144 569 123 q 704 206 668 165 q 760 309 740 247 q 781 454 781 371 m 510 784 q 401 764 451 784 q 316 702 352 743 q 260 598 280 661 q 239 454 239 536 q 246 364 239 405 q 267 288 253 323 l 675 729 q 600 770 642 757 q 510 784 558 784 m 707 1123 l 578 956 l 451 956 l 545 1123 l 707 1123 m 330 907 z "},"Œ":{"ha":1454,"x_min":68,"x_max":1386,"o":"m 940 139 l 1386 139 l 1386 0 l 781 0 l 781 94 l 778 94 q 663 13 730 42 q 500 -17 595 -17 q 319 18 399 -17 q 183 115 239 52 q 97 263 127 177 q 68 454 68 350 q 97 644 68 557 q 182 793 127 730 q 318 890 238 855 q 498 924 398 924 q 661 895 592 924 q 778 813 730 865 l 781 813 l 781 907 l 1362 907 l 1362 768 l 940 768 l 940 534 l 1302 534 l 1302 395 l 940 395 l 940 139 m 781 454 q 760 598 781 536 q 704 702 740 661 q 618 764 668 743 q 510 784 569 784 q 401 764 451 784 q 316 702 352 743 q 260 598 280 661 q 239 454 239 536 q 260 309 239 371 q 316 206 280 247 q 401 144 352 165 q 510 123 451 123 q 618 144 569 123 q 704 206 668 165 q 760 309 740 247 q 781 454 781 371 z "},"Ŕ":{"ha":872,"x_min":109,"x_max":835,"o":"m 780 635 q 727 474 780 540 q 565 376 675 408 l 565 373 l 835 0 l 635 0 l 389 351 l 275 351 l 275 0 l 109 0 l 109 907 l 385 907 q 512 900 453 907 q 613 876 571 892 q 736 786 693 846 q 780 635 780 726 m 357 490 q 453 495 414 490 q 520 511 493 500 q 590 563 570 530 q 609 638 609 595 q 594 703 609 675 q 542 747 578 731 q 482 763 518 758 q 393 768 446 768 l 275 768 l 275 490 l 357 490 m 605 1123 l 476 956 l 349 956 l 442 1123 l 605 1123 m 228 907 z "},"Ř":{"ha":872,"x_min":109,"x_max":835,"o":"m 780 635 q 727 474 780 540 q 565 376 675 408 l 565 373 l 835 0 l 635 0 l 389 351 l 275 351 l 275 0 l 109 0 l 109 907 l 385 907 q 512 900 453 907 q 613 876 571 892 q 736 786 693 846 q 780 635 780 726 m 357 490 q 453 495 414 490 q 520 511 493 500 q 590 563 570 530 q 609 638 609 595 q 594 703 609 675 q 542 747 578 731 q 482 763 518 758 q 393 768 446 768 l 275 768 l 275 490 l 357 490 m 495 956 l 355 956 l 209 1124 l 349 1124 l 424 1038 l 427 1038 l 502 1124 l 642 1124 l 495 956 m 154 907 z "},"Ŗ":{"ha":872,"x_min":109,"x_max":835,"o":"m 780 635 q 727 474 780 540 q 565 376 675 408 l 565 373 l 835 0 l 635 0 l 389 351 l 275 351 l 275 0 l 109 0 l 109 907 l 385 907 q 512 900 453 907 q 613 876 571 892 q 736 786 693 846 q 780 635 780 726 m 357 490 q 453 495 414 490 q 520 511 493 500 q 590 563 570 530 q 609 638 609 595 q 594 703 609 675 q 542 747 578 731 q 482 763 518 758 q 393 768 446 768 l 275 768 l 275 490 l 357 490 m 416 -230 q 401 -198 416 -208 q 363 -189 387 -189 l 363 -74 q 387 -73 375 -73 q 499 -105 457 -73 q 541 -199 541 -137 q 528 -267 541 -232 q 490 -332 514 -302 l 369 -332 q 403 -278 389 -304 q 416 -230 416 -252 z "},"Ś":{"ha":802,"x_min":80,"x_max":726,"o":"m 555 260 q 538 316 555 295 q 492 351 521 338 q 426 373 463 365 q 350 390 390 382 q 249 417 297 401 q 164 461 201 433 q 106 533 127 490 q 84 642 84 576 q 109 767 84 713 q 177 855 134 820 q 278 907 220 890 q 409 924 336 924 q 555 910 481 924 q 681 873 628 896 l 681 731 q 546 771 610 759 q 424 784 481 784 q 297 754 342 784 q 253 665 253 724 q 268 608 253 630 q 307 571 282 585 q 365 547 332 556 q 434 531 397 538 q 544 503 492 519 q 637 458 597 487 q 702 384 678 430 q 726 267 726 338 q 699 140 726 194 q 622 52 671 87 q 500 0 572 17 q 345 -17 429 -17 q 199 -2 271 -17 q 80 39 127 12 l 80 179 q 211 137 147 150 q 342 123 275 123 q 420 130 382 123 q 488 152 458 136 q 536 194 518 168 q 555 260 555 221 m 600 1123 l 471 956 l 343 956 l 437 1123 l 600 1123 m 222 907 z "},"Ŝ":{"ha":802,"x_min":80,"x_max":726,"o":"m 555 260 q 538 316 555 295 q 492 351 521 338 q 426 373 463 365 q 350 390 390 382 q 249 417 297 401 q 164 461 201 433 q 106 533 127 490 q 84 642 84 576 q 109 767 84 713 q 177 855 134 820 q 278 907 220 890 q 409 924 336 924 q 555 910 481 924 q 681 873 628 896 l 681 731 q 546 771 610 759 q 424 784 481 784 q 297 754 342 784 q 253 665 253 724 q 268 608 253 630 q 307 571 282 585 q 365 547 332 556 q 434 531 397 538 q 544 503 492 519 q 637 458 597 487 q 702 384 678 430 q 726 267 726 338 q 699 140 726 194 q 622 52 671 87 q 500 0 572 17 q 345 -17 429 -17 q 199 -2 271 -17 q 80 39 127 12 l 80 179 q 211 137 147 150 q 342 123 275 123 q 420 130 382 123 q 488 152 458 136 q 536 194 518 168 q 555 260 555 221 m 342 1123 l 482 1123 l 629 956 l 488 956 l 414 1041 l 411 1041 l 336 956 l 196 956 l 342 1123 m 141 907 z "},"Š":{"ha":802,"x_min":80,"x_max":726,"o":"m 555 260 q 538 316 555 295 q 492 351 521 338 q 426 373 463 365 q 350 390 390 382 q 249 417 297 401 q 164 461 201 433 q 106 533 127 490 q 84 642 84 576 q 109 767 84 713 q 177 855 134 820 q 278 907 220 890 q 409 924 336 924 q 555 910 481 924 q 681 873 628 896 l 681 731 q 546 771 610 759 q 424 784 481 784 q 297 754 342 784 q 253 665 253 724 q 268 608 253 630 q 307 571 282 585 q 365 547 332 556 q 434 531 397 538 q 544 503 492 519 q 637 458 597 487 q 702 384 678 430 q 726 267 726 338 q 699 140 726 194 q 622 52 671 87 q 500 0 572 17 q 345 -17 429 -17 q 199 -2 271 -17 q 80 39 127 12 l 80 179 q 211 137 147 150 q 342 123 275 123 q 420 130 382 123 q 488 152 458 136 q 536 194 518 168 q 555 260 555 221 m 481 956 l 341 956 l 195 1124 l 335 1124 l 410 1038 l 412 1038 l 488 1124 l 627 1124 l 481 956 m 140 907 z "},"Ş":{"ha":802,"x_min":80,"x_max":726,"o":"m 555 260 q 538 316 555 295 q 492 351 521 338 q 427 373 464 365 q 350 390 390 382 q 249 417 297 401 q 164 461 201 433 q 106 533 127 490 q 84 642 84 576 q 109 767 84 713 q 177 855 134 820 q 278 907 220 890 q 402 924 336 924 q 474 921 437 924 q 547 912 511 918 q 617 896 583 905 q 681 873 651 886 l 681 731 q 546 772 610 760 q 424 784 481 784 q 297 754 342 784 q 253 665 253 724 q 268 608 253 630 q 307 571 282 585 q 365 547 332 556 q 434 531 397 538 q 544 503 492 519 q 637 458 597 487 q 702 384 677 430 q 726 267 726 338 q 704 151 726 201 q 640 66 682 100 q 539 11 598 31 q 406 -14 480 -9 l 388 -80 q 438 -93 416 -84 q 478 -117 461 -102 q 505 -151 495 -132 q 514 -194 514 -170 q 501 -247 514 -222 q 461 -291 488 -272 q 394 -321 435 -311 q 304 -332 354 -332 q 251 -329 277 -332 q 209 -319 224 -325 l 209 -220 q 250 -229 224 -225 q 296 -232 276 -232 q 340 -228 322 -232 q 368 -217 358 -224 q 382 -204 378 -211 q 387 -189 387 -197 q 357 -157 387 -168 q 264 -146 328 -147 l 303 -16 q 244 -9 275 -14 q 184 1 214 -5 q 128 17 155 8 q 80 39 102 26 l 80 179 q 211 137 147 150 q 342 123 275 123 q 420 130 382 123 q 488 152 458 136 q 536 194 518 168 q 555 260 555 220 z "},"Ș":{"ha":802,"x_min":80,"x_max":726,"o":"m 555 260 q 538 316 555 295 q 492 351 521 338 q 426 373 463 365 q 350 390 390 382 q 249 417 297 401 q 164 461 201 433 q 106 533 127 490 q 84 642 84 576 q 109 767 84 713 q 177 855 134 820 q 278 907 220 890 q 409 924 336 924 q 555 910 481 924 q 681 873 628 896 l 681 731 q 546 771 610 759 q 424 784 481 784 q 297 754 342 784 q 253 665 253 724 q 268 608 253 630 q 307 571 282 585 q 365 547 332 556 q 434 531 397 538 q 544 503 492 519 q 637 458 597 487 q 702 384 678 430 q 726 267 726 338 q 699 140 726 194 q 622 52 671 87 q 500 0 572 17 q 345 -17 429 -17 q 199 -2 271 -17 q 80 39 127 12 l 80 179 q 211 137 147 150 q 342 123 275 123 q 420 130 382 123 q 488 152 458 136 q 536 194 518 168 q 555 260 555 221 m 382 -230 q 368 -198 382 -208 q 329 -189 353 -189 l 329 -74 q 353 -73 341 -73 q 465 -105 423 -73 q 507 -199 507 -137 q 494 -267 507 -232 q 456 -332 480 -302 l 335 -332 q 369 -278 355 -304 q 382 -230 382 -252 z "},"Ť":{"ha":792,"x_min":20,"x_max":772,"o":"m 479 0 l 313 0 l 313 768 l 20 768 l 20 907 l 772 907 l 772 768 l 479 768 l 479 0 m 464 956 l 324 956 l 178 1124 l 318 1124 l 393 1038 l 395 1038 l 471 1124 l 610 1124 l 464 956 m 123 907 z "},"Ţ":{"ha":792,"x_min":20,"x_max":772,"o":"m 479 0 l 313 0 l 313 768 l 20 768 l 20 907 l 772 907 l 772 768 l 479 768 l 479 0 m 366 -230 q 351 -198 366 -208 q 313 -189 336 -189 l 313 -74 q 336 -73 325 -73 q 449 -105 407 -73 q 491 -199 491 -137 q 477 -267 491 -232 q 440 -332 464 -302 l 319 -332 q 353 -278 339 -304 q 366 -230 366 -252 z "},"Ŧ":{"ha":792,"x_min":20,"x_max":772,"o":"m 152 534 l 313 534 l 313 768 l 20 768 l 20 907 l 772 907 l 772 768 l 479 768 l 479 534 l 644 534 l 644 395 l 479 395 l 479 0 l 313 0 l 313 395 l 152 395 l 152 534 z "},"Ù":{"ha":972,"x_min":105,"x_max":867,"o":"m 484 -17 q 356 -3 413 -17 q 256 37 299 11 q 182 101 212 63 q 133 186 151 138 q 112 270 118 224 q 105 373 105 316 l 105 907 l 271 907 l 271 388 q 294 237 271 292 q 370 150 320 177 q 486 123 419 123 q 603 150 553 123 q 678 237 652 177 q 701 388 701 292 l 701 907 l 867 907 l 867 373 q 861 270 867 316 q 840 186 854 224 q 790 101 821 138 q 715 37 760 63 q 613 -3 671 11 q 484 -17 555 -17 m 469 1123 l 563 956 l 435 956 l 307 1123 l 469 1123 m 194 907 z "},"Ú":{"ha":972,"x_min":105,"x_max":867,"o":"m 484 -17 q 356 -3 413 -17 q 256 37 299 11 q 182 101 212 63 q 133 186 151 138 q 112 270 118 224 q 105 373 105 316 l 105 907 l 271 907 l 271 388 q 294 237 271 292 q 370 150 320 177 q 486 123 419 123 q 603 150 553 123 q 678 237 652 177 q 701 388 701 292 l 701 907 l 867 907 l 867 373 q 861 270 867 316 q 840 186 854 224 q 790 101 821 138 q 715 37 760 63 q 613 -3 671 11 q 484 -17 555 -17 m 680 1123 l 551 956 l 424 956 l 517 1123 l 680 1123 m 303 907 z "},"Û":{"ha":972,"x_min":105,"x_max":867,"o":"m 484 -17 q 356 -3 413 -17 q 256 37 299 11 q 182 101 212 63 q 133 186 151 138 q 112 270 118 224 q 105 373 105 316 l 105 907 l 271 907 l 271 388 q 294 237 271 292 q 370 150 320 177 q 486 123 419 123 q 603 150 553 123 q 678 237 652 177 q 701 388 701 292 l 701 907 l 867 907 l 867 373 q 861 270 867 316 q 840 186 854 224 q 790 101 821 138 q 715 37 760 63 q 613 -3 671 11 q 484 -17 555 -17 m 416 1123 l 555 1123 l 702 956 l 562 956 l 487 1041 l 484 1041 l 409 956 l 269 956 l 416 1123 m 214 907 z "},"Ũ":{"ha":972,"x_min":105,"x_max":867,"o":"m 484 -17 q 356 -3 413 -17 q 256 37 299 11 q 182 101 212 63 q 133 186 151 138 q 112 270 118 224 q 105 373 105 316 l 105 907 l 271 907 l 271 388 q 294 237 271 292 q 370 150 320 177 q 486 123 419 123 q 603 150 553 123 q 678 237 652 177 q 701 388 701 292 l 701 907 l 867 907 l 867 373 q 861 270 867 316 q 840 186 854 224 q 790 101 821 138 q 715 37 760 63 q 613 -3 671 11 q 484 -17 555 -17 m 389 1123 q 441 1114 415 1123 q 489 1093 467 1105 q 533 1070 513 1080 q 569 1061 554 1061 q 596 1074 588 1061 q 604 1118 604 1086 l 710 1118 q 711 1095 711 1107 q 705 1044 711 1069 q 685 997 699 1018 q 646 964 670 976 q 589 951 622 951 q 537 961 562 951 q 490 981 512 970 q 445 1004 466 994 q 409 1014 425 1014 q 382 1001 390 1014 q 374 957 374 988 l 268 957 q 267 979 267 968 q 273 1031 267 1006 q 293 1078 279 1057 q 332 1111 308 1099 q 389 1123 356 1123 m 218 908 z "},"Ü":{"ha":972,"x_min":105,"x_max":867,"o":"m 484 -17 q 356 -3 413 -17 q 256 37 299 11 q 182 101 212 63 q 133 186 151 138 q 112 270 118 224 q 105 373 105 316 l 105 907 l 271 907 l 271 388 q 294 237 271 292 q 370 150 320 177 q 486 123 419 123 q 603 150 553 123 q 678 237 652 177 q 701 388 701 292 l 701 907 l 867 907 l 867 373 q 861 270 867 316 q 840 186 854 224 q 790 101 821 138 q 715 37 760 63 q 613 -3 671 11 q 484 -17 555 -17 m 271 1135 l 423 1135 l 423 982 l 271 982 l 271 1135 m 551 1135 l 703 1135 l 703 982 l 551 982 l 551 1135 m 216 907 z "},"Ū":{"ha":972,"x_min":105,"x_max":867,"o":"m 484 -17 q 356 -3 413 -17 q 256 37 299 11 q 182 101 212 63 q 133 186 151 138 q 112 270 118 224 q 105 373 105 316 l 105 907 l 271 907 l 271 388 q 294 237 271 292 q 370 150 320 177 q 486 123 419 123 q 603 150 553 123 q 678 237 652 177 q 701 388 701 292 l 701 907 l 867 907 l 867 373 q 861 270 867 316 q 840 186 854 224 q 790 101 821 138 q 715 37 760 63 q 613 -3 671 11 q 484 -17 555 -17 m 296 1097 l 675 1097 l 675 982 l 296 982 l 296 1097 m 214 907 z "},"Ŭ":{"ha":972,"x_min":105,"x_max":867,"o":"m 484 -17 q 356 -3 413 -17 q 256 37 299 11 q 182 101 212 63 q 133 186 151 138 q 112 270 118 224 q 105 373 105 316 l 105 907 l 271 907 l 271 388 q 294 237 271 292 q 370 150 320 177 q 486 123 419 123 q 603 150 553 123 q 678 237 652 177 q 701 388 701 292 l 701 907 l 867 907 l 867 373 q 861 270 867 316 q 840 186 854 224 q 790 101 821 138 q 715 37 760 63 q 613 -3 671 11 q 484 -17 555 -17 m 486 1063 q 543 1081 519 1063 q 574 1139 567 1099 l 714 1139 q 692 1060 709 1095 q 646 1001 675 1025 q 577 964 617 977 q 486 951 537 951 q 395 964 435 951 q 326 1001 355 977 q 280 1060 297 1025 q 258 1139 263 1095 l 398 1139 q 429 1081 406 1099 q 486 1063 453 1063 m 215 907 z "},"Ů":{"ha":972,"x_min":105,"x_max":867,"o":"m 484 -17 q 356 -3 413 -17 q 256 37 299 11 q 182 101 212 63 q 133 186 151 138 q 112 270 118 224 q 105 373 105 316 l 105 907 l 271 907 l 271 388 q 294 237 271 292 q 370 150 320 177 q 486 123 419 123 q 603 150 553 123 q 678 237 652 177 q 701 388 701 292 l 701 907 l 867 907 l 867 373 q 861 270 867 316 q 840 186 854 224 q 790 101 821 138 q 715 37 760 63 q 613 -3 671 11 q 484 -17 555 -17 m 489 927 q 421 936 452 927 q 368 962 390 945 q 332 1004 345 979 q 319 1060 319 1029 q 332 1116 319 1092 q 368 1158 345 1141 q 421 1184 390 1175 q 489 1193 452 1193 q 557 1184 526 1193 q 610 1158 588 1175 q 646 1116 633 1141 q 659 1060 659 1092 q 646 1004 659 1029 q 610 962 633 979 q 557 936 588 945 q 489 927 526 927 m 489 1118 q 440 1103 460 1118 q 420 1060 420 1088 q 440 1017 420 1031 q 489 1002 460 1002 q 538 1017 518 1002 q 557 1060 557 1031 q 538 1103 557 1088 q 489 1118 518 1118 m 218 907 z "},"Ű":{"ha":972,"x_min":105,"x_max":867,"o":"m 484 -17 q 356 -3 413 -17 q 256 37 299 11 q 182 101 212 63 q 133 186 151 138 q 112 270 118 224 q 105 373 105 316 l 105 907 l 271 907 l 271 388 q 294 237 271 292 q 370 150 320 177 q 486 123 419 123 q 603 150 553 123 q 678 237 652 177 q 701 388 701 292 l 701 907 l 867 907 l 867 373 q 861 270 867 316 q 840 186 854 224 q 790 101 821 138 q 715 37 760 63 q 613 -3 671 11 q 484 -17 555 -17 m 559 1123 l 431 956 l 303 956 l 397 1123 l 559 1123 m 781 1123 l 641 956 l 511 956 l 616 1123 l 781 1123 m 267 907 z "},"Ų":{"ha":972,"x_min":105,"x_max":867,"o":"m 536 -9 q 507 -14 524 -12 q 475 -16 489 -16 q 352 -2 407 -16 q 254 38 297 12 q 181 101 212 64 q 133 186 151 138 q 112 270 118 224 q 105 373 105 316 l 105 907 l 271 907 l 271 388 q 294 237 271 292 q 370 150 320 177 q 486 123 419 123 q 603 150 553 123 q 678 237 652 177 q 701 388 701 292 l 701 907 l 867 907 l 867 369 q 857 252 867 302 q 830 161 847 201 q 790 93 812 122 q 741 39 767 63 q 675 -18 708 7 q 614 -68 642 -44 q 570 -119 586 -93 q 553 -172 553 -146 q 570 -210 554 -199 q 611 -220 585 -220 q 694 -205 651 -220 l 694 -315 q 645 -327 674 -321 q 580 -332 616 -332 q 516 -325 545 -332 q 465 -301 486 -317 q 430 -261 443 -285 q 418 -204 418 -237 q 448 -105 418 -151 q 537 -12 477 -59 l 536 -9 z "},"Ẁ":{"ha":1264,"x_min":14,"x_max":1251,"o":"m 630 669 q 569 407 604 542 l 467 0 l 302 0 l 14 907 l 191 907 l 300 546 q 380 238 349 376 l 384 238 q 453 541 414 386 l 547 907 l 718 907 l 811 541 q 880 238 850 387 l 884 238 q 964 546 922 401 l 1074 907 l 1251 907 l 962 0 l 797 0 l 695 407 q 634 669 661 545 l 630 669 m 617 1123 l 711 956 l 583 956 l 454 1123 l 617 1123 m 342 907 z "},"Ẃ":{"ha":1264,"x_min":14,"x_max":1251,"o":"m 630 669 q 569 407 604 542 l 467 0 l 302 0 l 14 907 l 191 907 l 300 546 q 380 238 349 376 l 384 238 q 453 541 414 386 l 547 907 l 718 907 l 811 541 q 880 238 850 387 l 884 238 q 964 546 922 401 l 1074 907 l 1251 907 l 962 0 l 797 0 l 695 407 q 634 669 661 545 l 630 669 m 810 1123 l 681 956 l 553 956 l 647 1123 l 810 1123 m 433 907 z "},"Ŵ":{"ha":1264,"x_min":14,"x_max":1251,"o":"m 630 669 q 569 407 604 542 l 467 0 l 302 0 l 14 907 l 191 907 l 300 546 q 380 238 349 376 l 384 238 q 453 541 414 386 l 547 907 l 718 907 l 811 541 q 880 238 850 387 l 884 238 q 964 546 922 401 l 1074 907 l 1251 907 l 962 0 l 797 0 l 695 407 q 634 669 661 545 l 630 669 m 561 1123 l 701 1123 l 847 956 l 707 956 l 632 1041 l 629 1041 l 554 956 l 414 956 l 561 1123 m 359 907 z "},"Ẅ":{"ha":1264,"x_min":14,"x_max":1251,"o":"m 630 669 q 569 407 604 542 l 467 0 l 302 0 l 14 907 l 191 907 l 300 546 q 380 238 349 376 l 384 238 q 453 541 414 386 l 547 907 l 718 907 l 811 541 q 880 238 850 387 l 884 238 q 964 546 922 401 l 1074 907 l 1251 907 l 962 0 l 797 0 l 695 407 q 634 669 661 545 l 630 669 m 418 1135 l 570 1135 l 570 982 l 418 982 l 418 1135 m 697 1135 l 849 1135 l 849 982 l 697 982 l 697 1135 m 362 907 z "},"Ỳ":{"ha":881,"x_min":14,"x_max":867,"o":"m 441 517 l 683 907 l 867 907 l 524 366 l 524 0 l 357 0 l 357 366 l 14 907 l 198 907 l 439 517 l 441 517 m 421 1123 l 515 956 l 387 956 l 258 1123 l 421 1123 m 146 907 z "},"Ý":{"ha":881,"x_min":14,"x_max":867,"o":"m 441 517 l 683 907 l 867 907 l 524 366 l 524 0 l 357 0 l 357 366 l 14 907 l 198 907 l 439 517 l 441 517 m 635 1123 l 506 956 l 378 956 l 472 1123 l 635 1123 m 258 907 z "},"Ŷ":{"ha":881,"x_min":14,"x_max":867,"o":"m 441 517 l 683 907 l 867 907 l 524 366 l 524 0 l 357 0 l 357 366 l 14 907 l 198 907 l 439 517 l 441 517 m 368 1123 l 508 1123 l 654 956 l 514 956 l 439 1041 l 437 1041 l 361 956 l 222 956 l 368 1123 m 167 907 z "},"Ÿ":{"ha":881,"x_min":14,"x_max":867,"o":"m 441 517 l 683 907 l 867 907 l 524 366 l 524 0 l 357 0 l 357 366 l 14 907 l 198 907 l 439 517 l 441 517 m 223 1135 l 375 1135 l 375 982 l 223 982 l 223 1135 m 503 1135 l 654 1135 l 654 982 l 503 982 l 503 1135 m 168 907 z "},"Ź":{"ha":835,"x_min":61,"x_max":774,"o":"m 768 907 l 768 817 l 282 139 l 774 139 l 774 0 l 61 0 l 61 90 l 547 768 l 73 768 l 73 907 l 768 907 m 585 1123 l 456 956 l 329 956 l 422 1123 l 585 1123 m 208 907 z "},"Ž":{"ha":835,"x_min":61,"x_max":774,"o":"m 768 907 l 768 817 l 282 139 l 774 139 l 774 0 l 61 0 l 61 90 l 547 768 l 73 768 l 73 907 l 768 907 m 490 956 l 350 956 l 203 1124 l 344 1124 l 418 1038 l 421 1038 l 496 1124 l 636 1124 l 490 956 m 149 907 z "},"Ż":{"ha":835,"x_min":61,"x_max":774,"o":"m 768 907 l 768 817 l 282 139 l 774 139 l 774 0 l 61 0 l 61 90 l 547 768 l 73 768 l 73 907 l 768 907 m 334 1156 l 503 1156 l 503 982 l 334 982 l 334 1156 m 148 907 z "},"Ŋ":{"ha":1010,"x_min":109,"x_max":902,"o":"m 902 907 l 902 -43 q 842 -218 902 -157 q 652 -280 781 -279 q 624 -279 639 -280 q 597 -276 608 -278 l 597 -141 q 632 -144 614 -144 q 686 -137 665 -144 q 719 -116 707 -130 q 736 -80 731 -102 q 741 -30 741 -58 l 741 -17 l 432 418 q 271 669 354 526 l 267 669 q 275 411 275 503 l 275 0 l 109 0 l 109 907 l 283 907 l 581 486 q 740 239 679 347 l 744 239 q 736 496 736 416 l 736 907 l 902 907 z "},"Ð":{"ha":1006,"x_min":41,"x_max":938,"o":"m 41 534 l 157 534 l 157 907 l 397 907 q 462 905 429 907 q 526 899 495 903 q 587 889 557 895 q 640 876 616 884 q 768 813 713 852 q 862 720 824 774 q 919 601 899 667 q 938 457 938 534 q 922 320 938 384 q 872 203 905 256 q 788 110 839 150 q 669 43 738 69 q 538 11 611 22 q 373 0 466 0 l 157 0 l 157 395 l 41 395 l 41 534 m 391 139 q 619 179 537 139 q 729 283 692 215 q 766 458 766 352 q 754 559 766 514 q 719 638 742 604 q 663 699 696 673 q 589 740 630 724 q 503 762 550 755 q 396 768 455 768 l 323 768 l 323 534 l 558 534 l 558 395 l 323 395 l 323 139 l 391 139 z "},"Þ":{"ha":834,"x_min":109,"x_max":766,"o":"m 275 327 q 311 324 289 325 q 357 323 333 323 q 468 334 422 323 q 542 364 515 345 q 582 411 570 383 q 595 471 595 438 q 576 541 595 511 q 513 585 557 570 q 454 597 489 593 q 368 601 419 601 l 275 601 l 275 327 m 370 740 q 485 734 436 740 q 573 717 534 728 q 716 626 666 688 q 766 467 766 563 q 739 349 766 401 q 660 260 712 296 q 532 203 608 223 q 360 184 456 184 q 311 185 334 184 q 275 187 287 186 l 275 0 l 109 0 l 109 907 l 275 907 l 275 740 l 370 740 z "},"a":{"ha":715,"x_min":58,"x_max":627,"o":"m 475 70 l 472 70 q 439 41 458 56 q 396 13 420 26 q 342 -9 372 -1 q 277 -17 312 -17 q 190 -2 231 -17 q 120 40 149 12 q 74 106 91 67 q 58 193 58 145 q 77 288 58 246 q 131 359 96 330 q 214 404 165 389 q 320 419 262 419 q 399 414 363 419 q 462 401 435 408 l 462 427 q 454 472 462 450 q 429 510 446 493 q 384 536 412 526 q 316 546 356 546 q 218 535 267 546 q 113 503 170 524 l 113 628 q 218 661 162 650 q 334 673 273 673 q 460 656 406 673 q 550 607 514 638 q 605 534 587 576 q 623 443 623 492 l 623 195 q 624 83 623 130 q 627 0 625 37 l 481 0 l 475 70 m 462 280 q 409 290 439 286 q 349 294 379 294 q 255 271 290 294 q 221 199 221 248 q 229 160 221 177 q 250 133 237 144 q 281 117 263 122 q 318 111 298 111 q 364 118 342 111 q 404 134 386 124 q 437 156 422 144 q 462 180 452 168 l 462 280 z "},"b":{"ha":774,"x_min":95,"x_max":720,"o":"m 720 340 q 694 182 720 251 q 626 70 668 114 q 532 4 585 26 q 427 -17 480 -17 q 360 -8 390 -17 q 308 15 330 1 q 270 43 286 28 q 246 70 255 58 l 243 70 l 228 0 l 95 0 q 97 72 96 29 q 98 154 98 115 l 98 982 l 259 982 l 259 709 q 259 655 259 680 q 258 616 258 630 l 259 616 q 293 637 275 627 q 333 656 311 648 q 380 669 355 664 q 433 673 405 673 q 539 653 488 673 q 632 592 591 633 q 696 487 672 551 q 720 340 720 423 m 553 332 q 538 438 553 393 q 499 506 524 482 q 449 537 475 529 q 397 545 423 545 q 326 531 362 545 q 259 493 289 517 l 259 178 q 282 156 269 168 q 314 134 296 144 q 351 118 331 124 q 395 111 372 111 q 464 127 434 111 q 513 172 493 143 q 543 242 533 201 q 553 332 553 282 z "},"c":{"ha":612,"x_min":54,"x_max":562,"o":"m 562 14 q 487 -8 531 1 q 394 -17 443 -17 q 261 3 323 -17 q 153 65 199 24 q 81 170 107 106 q 54 318 54 233 q 85 481 54 413 q 164 591 115 549 q 273 653 212 633 q 393 673 334 673 q 477 666 437 673 q 551 644 518 658 l 551 513 q 488 534 522 526 q 416 542 454 542 q 342 530 377 542 q 279 492 307 518 q 236 424 252 467 q 220 322 220 382 q 233 240 220 279 q 268 175 245 202 q 328 131 292 148 q 414 115 364 115 q 494 123 458 115 q 562 145 530 132 l 562 14 z "},"d":{"ha":774,"x_min":54,"x_max":680,"o":"m 371 111 q 416 117 395 111 q 456 134 437 123 q 490 156 475 144 q 515 180 505 168 l 515 492 q 451 530 486 515 q 376 545 416 545 q 324 535 351 545 q 274 500 296 525 q 236 433 251 476 q 220 322 220 389 q 259 168 220 223 q 371 111 297 112 m 54 315 q 78 469 54 401 q 143 582 102 536 q 237 651 184 628 q 347 673 290 673 q 397 669 373 673 q 441 656 420 664 q 481 637 463 648 q 515 616 499 627 l 516 616 q 515 655 515 630 q 515 709 515 680 l 515 982 l 675 982 l 675 195 q 677 83 675 130 q 680 0 678 37 l 534 0 l 528 70 l 525 70 q 491 37 511 53 q 447 8 471 20 q 394 -10 422 -3 q 331 -17 365 -17 q 228 2 277 -17 q 140 61 179 21 q 78 164 101 100 q 54 315 54 229 z "},"e":{"ha":712,"x_min":54,"x_max":651,"o":"m 427 113 q 524 122 473 113 q 627 149 575 132 l 627 21 q 532 -5 596 7 q 398 -17 467 -17 q 266 1 328 -17 q 156 59 203 19 q 82 163 109 99 q 54 317 54 227 q 80 474 54 407 q 149 585 106 541 q 249 651 193 629 q 364 673 304 673 q 479 654 427 673 q 570 595 532 635 q 630 490 608 554 q 651 338 651 426 q 649 281 650 304 l 218 281 q 239 203 222 235 q 283 151 256 171 q 347 122 311 131 q 427 113 384 113 m 362 548 q 308 537 332 548 q 267 506 284 526 q 239 461 250 487 q 226 406 229 435 l 484 406 q 476 461 484 435 q 453 506 469 487 q 415 537 438 526 q 362 548 393 548 z "},"f":{"ha":456,"x_min":7,"x_max":500,"o":"m 500 852 q 445 863 473 859 q 392 867 417 867 q 344 861 365 867 q 308 840 323 854 q 286 801 294 825 q 279 743 279 777 l 279 657 l 461 657 l 461 525 l 279 525 l 279 0 l 118 0 l 118 525 l 7 525 l 7 657 l 118 657 l 118 735 q 137 854 118 804 q 191 936 157 904 q 273 984 226 968 q 374 999 319 999 q 442 993 408 999 q 500 979 475 987 l 500 852 z "},"g":{"ha":764,"x_min":54,"x_max":675,"o":"m 515 -17 q 515 17 515 -3 q 517 50 515 37 l 515 50 q 481 26 500 38 q 439 4 462 14 q 388 -11 416 -5 q 331 -17 360 -17 q 229 2 279 -17 q 140 61 179 20 q 78 164 102 101 q 54 316 54 227 q 78 472 54 405 q 142 583 102 538 q 234 651 182 628 q 341 673 286 673 q 448 648 401 673 q 525 583 495 623 l 528 583 l 534 657 l 675 657 l 675 -12 q 666 -111 675 -70 q 638 -184 656 -153 q 583 -250 616 -222 q 506 -296 549 -277 q 412 -323 463 -314 q 302 -332 360 -332 q 239 -330 270 -332 q 180 -323 208 -328 q 130 -313 153 -319 q 92 -301 107 -307 l 92 -170 q 185 -193 136 -185 q 289 -201 235 -201 q 456 -159 397 -201 q 515 -33 515 -117 l 515 -17 m 371 111 q 417 117 395 111 q 457 133 439 123 q 490 154 475 142 q 515 177 505 165 l 515 471 q 451 522 489 501 q 370 543 413 542 q 339 539 355 543 q 305 526 322 535 q 273 500 288 516 q 246 460 258 484 q 228 401 235 435 q 220 323 220 368 q 230 234 220 273 q 258 168 239 195 q 306 126 277 140 q 371 111 334 111 z "},"h":{"ha":777,"x_min":95,"x_max":689,"o":"m 256 714 q 254 630 256 663 q 248 571 252 597 l 251 571 q 286 609 265 590 q 331 642 307 628 q 388 665 356 656 q 457 673 419 673 q 520 667 490 673 q 578 647 551 661 q 627 612 605 633 q 664 560 649 590 q 683 502 677 534 q 689 422 689 469 l 689 0 l 528 0 l 528 401 q 526 451 528 431 q 516 484 523 470 q 475 526 502 514 q 415 538 449 538 q 329 516 368 538 q 256 452 289 494 l 256 0 l 95 0 l 95 982 l 256 982 l 256 714 z "},"i":{"ha":345,"x_min":88,"x_max":257,"o":"m 92 657 l 253 657 l 253 0 l 92 0 l 92 657 m 88 982 l 257 982 l 257 808 l 88 808 l 88 982 z "},"j":{"ha":365,"x_min":-105,"x_max":277,"o":"m 273 -86 q 243 -229 273 -178 q 154 -307 213 -281 q 14 -332 95 -332 q -51 -328 -22 -332 q -105 -317 -79 -324 l -105 -185 q -57 -196 -83 -191 q -5 -201 -30 -201 q 52 -193 27 -201 q 91 -168 76 -186 q 107 -130 102 -154 q 112 -73 112 -106 l 112 657 l 273 657 l 273 -86 m 108 982 l 277 982 l 277 808 l 108 808 l 108 982 z "},"k":{"ha":717,"x_min":95,"x_max":710,"o":"m 95 982 l 256 982 l 256 391 l 259 391 l 509 657 l 708 657 l 420 349 l 710 0 l 515 0 l 258 306 l 256 306 l 256 0 l 95 0 l 95 982 z "},"l":{"ha":351,"x_min":95,"x_max":256,"o":"m 95 0 l 95 982 l 256 982 l 256 0 l 95 0 z "},"m":{"ha":1183,"x_min":88,"x_max":1095,"o":"m 935 400 q 933 439 935 421 q 928 471 932 458 q 899 519 921 501 q 838 538 878 538 q 795 532 817 538 q 750 515 772 526 q 708 488 728 504 q 672 452 688 472 l 672 0 l 511 0 l 511 400 q 510 439 511 421 q 505 471 509 458 q 476 519 498 501 q 415 538 455 538 q 372 532 394 538 q 327 515 349 526 q 285 488 305 504 q 249 452 265 472 l 249 0 l 88 0 l 88 657 l 221 657 l 236 566 l 239 566 q 275 606 253 586 q 324 640 296 625 q 384 664 351 655 q 454 673 417 673 q 571 645 519 673 q 650 555 623 616 l 652 555 q 695 603 671 581 q 747 640 718 625 q 808 665 775 656 q 878 673 841 673 q 997 644 949 673 q 1070 565 1044 615 q 1082 537 1077 552 q 1089 503 1086 522 q 1094 460 1093 484 q 1095 408 1095 437 l 1095 0 l 935 0 l 935 400 z "},"n":{"ha":770,"x_min":88,"x_max":682,"o":"m 236 566 l 239 566 q 275 606 253 586 q 324 640 296 625 q 386 664 352 655 q 457 673 419 673 q 527 665 493 673 q 588 640 560 657 q 637 595 616 623 q 671 530 659 568 q 680 484 677 509 q 682 427 682 459 l 682 0 l 522 0 l 522 401 q 519 447 522 428 q 512 480 517 466 q 475 525 500 511 q 415 538 450 538 q 325 516 368 538 q 249 452 282 494 l 249 0 l 88 0 l 88 657 l 221 657 l 236 566 z "},"o":{"ha":769,"x_min":54,"x_max":715,"o":"m 549 328 q 536 420 549 380 q 503 488 524 460 q 450 528 481 515 q 384 542 420 542 q 318 528 349 542 q 267 488 288 515 q 233 420 245 460 q 220 328 220 380 q 233 236 220 276 q 267 169 245 196 q 319 129 289 142 q 385 115 349 115 q 451 129 421 115 q 503 169 481 142 q 536 236 524 196 q 549 328 549 276 m 715 328 q 692 187 715 251 q 626 78 669 123 q 522 8 583 33 q 385 -17 460 -17 q 247 8 308 -17 q 142 78 185 33 q 77 187 100 123 q 54 328 54 251 q 77 469 54 406 q 143 578 100 533 q 248 649 186 624 q 384 673 309 673 q 523 649 461 673 q 627 578 584 624 q 692 469 669 533 q 715 328 715 406 z "},"p":{"ha":764,"x_min":88,"x_max":709,"o":"m 396 545 q 316 524 354 544 q 249 470 278 504 l 249 177 q 273 154 259 165 q 305 133 288 142 q 344 117 323 123 q 389 111 366 111 q 455 127 426 111 q 504 172 484 143 q 533 242 523 201 q 543 332 543 282 q 533 425 543 385 q 503 491 522 465 q 456 531 484 517 q 396 545 429 545 m 417 -17 q 321 2 364 -17 q 250 50 278 22 l 247 50 q 248 12 248 37 q 249 -42 249 -13 l 249 -315 l 88 -315 l 88 657 l 229 657 l 236 583 l 239 583 q 315 648 269 623 q 424 673 362 673 q 529 653 477 673 q 621 592 581 633 q 685 488 661 551 q 709 338 709 425 q 684 179 709 246 q 616 69 658 113 q 523 4 574 25 q 417 -17 471 -17 z "},"q":{"ha":764,"x_min":54,"x_max":675,"o":"m 371 111 q 417 117 395 111 q 457 133 439 123 q 490 154 475 142 q 515 177 505 165 l 515 469 q 454 522 490 499 q 375 545 418 545 q 324 535 351 545 q 273 500 297 526 q 235 431 250 475 q 220 323 220 387 q 230 234 220 273 q 258 168 239 195 q 306 126 277 140 q 371 111 334 111 m 528 583 l 534 657 l 675 657 l 675 -315 l 515 -315 l 515 -42 q 515 12 515 -13 q 517 50 516 37 l 515 50 q 481 26 500 38 q 439 4 462 14 q 389 -11 416 -5 q 331 -17 361 -17 q 229 2 279 -17 q 140 61 179 20 q 78 165 101 101 q 54 316 54 229 q 78 471 54 403 q 142 583 102 538 q 234 651 182 628 q 341 673 286 673 q 447 649 400 673 q 525 583 494 624 l 528 583 z "},"r":{"ha":486,"x_min":88,"x_max":479,"o":"m 479 530 l 465 530 q 335 508 391 530 q 249 440 279 486 l 249 0 l 88 0 l 88 657 l 221 657 l 236 566 l 239 566 q 317 645 267 616 q 437 673 367 673 q 479 671 461 673 l 479 530 z "},"s":{"ha":589,"x_min":58,"x_max":538,"o":"m 379 191 q 367 225 379 212 q 336 248 355 239 q 291 264 316 257 q 237 277 265 271 q 170 299 202 287 q 112 332 137 312 q 73 384 87 353 q 58 459 58 414 q 78 554 58 514 q 131 621 98 595 q 209 661 165 648 q 303 673 254 673 q 416 664 363 673 q 512 638 469 654 l 512 507 q 465 521 490 515 q 415 532 440 528 q 364 540 389 537 q 317 543 339 543 q 269 538 288 543 q 237 523 249 532 q 219 502 224 514 q 214 477 214 490 q 225 441 214 455 q 258 418 237 427 q 302 403 279 409 q 347 392 326 397 q 415 372 381 384 q 476 340 449 361 q 520 287 503 319 q 538 203 538 254 q 517 106 538 147 q 458 37 496 64 q 368 -4 420 9 q 252 -17 315 -17 q 140 -7 190 -17 q 58 18 90 3 l 58 147 q 155 120 111 127 q 239 113 200 113 q 294 118 269 113 q 339 132 320 122 q 368 156 357 141 q 379 191 379 170 z "},"t":{"ha":527,"x_min":7,"x_max":490,"o":"m 490 1 q 425 -12 463 -7 q 355 -17 387 -17 q 219 10 272 -17 q 145 87 167 37 q 130 184 130 123 l 130 525 l 7 525 l 7 657 l 130 657 l 130 841 l 290 841 l 290 657 l 480 657 l 480 525 l 290 525 l 290 205 q 302 149 290 168 q 382 118 322 118 q 438 122 410 118 q 490 134 465 127 l 490 1 z "},"u":{"ha":757,"x_min":81,"x_max":675,"o":"m 378 -17 q 214 17 279 -17 q 116 107 149 50 q 90 174 98 138 q 81 256 81 211 l 81 657 l 242 657 l 242 273 q 247 215 242 239 q 261 174 252 191 q 307 129 277 144 q 378 115 337 115 q 453 131 422 115 q 499 180 484 147 q 515 269 515 212 l 515 657 l 675 657 l 675 256 q 648 121 675 176 q 607 64 632 90 q 549 21 583 39 q 473 -7 515 3 q 378 -17 431 -17 z "},"v":{"ha":682,"x_min":7,"x_max":675,"o":"m 675 657 l 421 0 l 262 0 l 7 657 l 176 657 l 268 406 q 340 195 307 300 l 342 195 q 413 402 371 286 l 505 657 l 675 657 z "},"w":{"ha":1040,"x_min":7,"x_max":1034,"o":"m 519 479 q 474 288 500 380 l 395 0 l 237 0 l 7 657 l 176 657 l 261 382 q 313 197 290 286 l 315 197 q 361 382 334 283 l 436 657 l 606 657 l 680 382 q 725 197 703 294 l 728 197 q 779 382 751 288 l 864 657 l 1034 657 l 804 0 l 646 0 l 566 288 q 522 479 539 385 l 519 479 z "},"x":{"ha":724,"x_min":7,"x_max":718,"o":"m 361 229 l 191 0 l 7 0 l 267 335 l 22 657 l 212 657 l 365 440 l 521 657 l 711 657 l 460 336 l 718 0 l 530 0 l 361 229 z "},"y":{"ha":713,"x_min":7,"x_max":707,"o":"m 7 657 l 179 657 l 277 419 q 356 218 333 283 l 359 218 q 431 407 376 269 l 532 657 l 707 657 l 283 -315 l 125 -315 l 275 37 l 7 657 z "},"z":{"ha":650,"x_min":44,"x_max":606,"o":"m 376 525 l 55 525 l 55 657 l 582 657 l 582 557 l 256 132 l 606 132 l 606 0 l 44 0 l 44 91 l 376 525 z "},"à":{"ha":715,"x_min":28,"x_max":627,"o":"m 475 70 l 472 70 q 439 41 458 56 q 396 13 420 26 q 342 -9 372 -1 q 277 -17 312 -17 q 190 -2 231 -17 q 120 40 149 12 q 74 106 91 67 q 58 193 58 145 q 77 288 58 246 q 131 359 96 330 q 214 404 165 389 q 320 419 262 419 q 399 414 363 419 q 462 401 435 408 l 462 427 q 454 472 462 450 q 429 510 446 493 q 384 536 412 526 q 316 546 356 546 q 218 535 267 546 q 113 503 170 524 l 113 628 q 218 661 162 650 q 334 673 273 673 q 460 656 406 673 q 550 607 514 638 q 605 534 587 576 q 623 443 623 492 l 623 195 q 624 83 623 130 q 627 0 625 37 l 481 0 l 475 70 m 462 280 q 409 290 439 286 q 349 294 379 294 q 255 271 290 294 q 221 199 221 248 q 229 160 221 177 q 250 133 237 144 q 281 117 263 122 q 318 111 298 111 q 364 118 342 111 q 404 134 386 124 q 437 156 422 144 q 462 180 452 168 l 462 280 m 339 999 l 420 762 l 295 762 l 183 999 l 339 999 m 28 657 z "},"á":{"ha":715,"x_min":58,"x_max":627,"o":"m 475 70 l 472 70 q 439 41 458 56 q 396 13 420 26 q 342 -9 372 -1 q 277 -17 312 -17 q 190 -2 231 -17 q 120 40 149 12 q 74 106 91 67 q 58 193 58 145 q 77 288 58 246 q 131 359 96 330 q 214 404 165 389 q 320 419 262 419 q 399 414 363 419 q 462 401 435 408 l 462 427 q 454 472 462 450 q 429 510 446 493 q 384 536 412 526 q 316 546 356 546 q 218 535 267 546 q 113 503 170 524 l 113 628 q 218 661 162 650 q 334 673 273 673 q 460 656 406 673 q 550 607 514 638 q 605 534 587 576 q 623 443 623 492 l 623 195 q 624 83 623 130 q 627 0 625 37 l 481 0 l 475 70 m 462 280 q 409 290 439 286 q 349 294 379 294 q 255 271 290 294 q 221 199 221 248 q 229 160 221 177 q 250 133 237 144 q 281 117 263 122 q 318 111 298 111 q 364 118 342 111 q 404 134 386 124 q 437 156 422 144 q 462 180 452 168 l 462 280 m 511 999 l 399 762 l 275 762 l 355 999 l 511 999 m 113 656 z "},"â":{"ha":715,"x_min":58,"x_max":627,"o":"m 475 70 l 472 70 q 439 41 458 56 q 396 13 420 26 q 342 -9 372 -1 q 277 -17 312 -17 q 190 -2 231 -17 q 120 40 149 12 q 74 106 91 67 q 58 193 58 145 q 77 288 58 246 q 131 359 96 330 q 214 404 165 389 q 320 419 262 419 q 399 414 363 419 q 462 401 435 408 l 462 427 q 454 472 462 450 q 429 510 446 493 q 384 536 412 526 q 316 546 356 546 q 218 535 267 546 q 113 503 170 524 l 113 628 q 218 661 162 650 q 334 673 273 673 q 460 656 406 673 q 550 607 514 638 q 605 534 587 576 q 623 443 623 492 l 623 195 q 624 83 623 130 q 627 0 625 37 l 481 0 l 475 70 m 462 280 q 409 290 439 286 q 349 294 379 294 q 255 271 290 294 q 221 199 221 248 q 229 160 221 177 q 250 133 237 144 q 281 117 263 122 q 318 111 298 111 q 364 118 342 111 q 404 134 386 124 q 437 156 422 144 q 462 180 452 168 l 462 280 m 286 999 l 426 999 l 568 762 l 443 762 l 357 906 l 355 906 l 269 762 l 144 762 l 286 999 m 85 657 z "},"ã":{"ha":715,"x_min":58,"x_max":627,"o":"m 475 70 l 472 70 q 439 41 458 56 q 396 13 420 26 q 342 -9 372 -1 q 277 -17 312 -17 q 190 -2 231 -17 q 120 40 149 12 q 74 106 91 67 q 58 193 58 145 q 77 288 58 246 q 131 359 96 330 q 214 404 165 389 q 320 419 262 419 q 399 414 363 419 q 462 401 435 408 l 462 427 q 454 472 462 450 q 429 510 446 493 q 384 536 412 526 q 316 546 356 546 q 218 535 267 546 q 113 503 170 524 l 113 628 q 218 661 162 650 q 334 673 273 673 q 460 656 406 673 q 550 607 514 638 q 605 534 587 576 q 623 443 623 492 l 623 195 q 624 83 623 130 q 627 0 625 37 l 481 0 l 475 70 m 462 280 q 409 290 439 286 q 349 294 379 294 q 255 271 290 294 q 221 199 221 248 q 229 160 221 177 q 250 133 237 144 q 281 117 263 122 q 318 111 298 111 q 364 118 342 111 q 404 134 386 124 q 437 156 422 144 q 462 180 452 168 l 462 280 m 249 954 q 302 944 277 954 q 349 924 327 935 q 393 901 373 911 q 429 891 414 891 q 456 904 448 891 q 464 948 464 917 l 570 948 q 571 923 571 939 q 566 876 571 903 q 545 827 560 848 q 506 794 530 806 q 450 782 482 782 q 398 791 423 782 q 349 812 372 800 q 303 835 323 825 q 269 844 283 844 q 242 831 250 844 q 235 787 235 819 l 128 787 q 127 805 127 801 q 133 860 127 834 q 153 907 138 885 q 192 941 168 929 q 249 954 216 954 m 106 657 z "},"ä":{"ha":715,"x_min":58,"x_max":627,"o":"m 475 70 l 472 70 q 439 41 458 56 q 396 13 420 26 q 342 -9 372 -1 q 277 -17 312 -17 q 190 -2 231 -17 q 120 40 149 12 q 74 106 91 67 q 58 193 58 145 q 77 288 58 246 q 131 359 96 330 q 214 404 165 389 q 320 419 262 419 q 399 414 363 419 q 462 401 435 408 l 462 427 q 454 472 462 450 q 429 510 446 493 q 384 536 412 526 q 316 546 356 546 q 218 535 267 546 q 113 503 170 524 l 113 628 q 218 661 162 650 q 334 673 273 673 q 460 656 406 673 q 550 607 514 638 q 605 534 587 576 q 623 443 623 492 l 623 195 q 624 83 623 130 q 627 0 625 37 l 481 0 l 475 70 m 462 280 q 409 290 439 286 q 349 294 379 294 q 255 271 290 294 q 221 199 221 248 q 229 160 221 177 q 250 133 237 144 q 281 117 263 122 q 318 111 298 111 q 364 118 342 111 q 404 134 386 124 q 437 156 422 144 q 462 180 452 168 l 462 280 m 139 958 l 287 958 l 287 808 l 139 808 l 139 958 m 417 958 l 565 958 l 565 808 l 417 808 l 417 958 m 81 657 z "},"ā":{"ha":715,"x_min":58,"x_max":627,"o":"m 475 70 l 472 70 q 439 41 458 56 q 396 13 420 26 q 342 -9 372 -1 q 277 -17 312 -17 q 190 -2 231 -17 q 120 40 149 12 q 74 106 91 67 q 58 193 58 145 q 77 288 58 246 q 131 359 96 330 q 214 404 165 389 q 320 419 262 419 q 399 414 363 419 q 462 401 435 408 l 462 427 q 454 472 462 450 q 429 510 446 493 q 384 536 412 526 q 316 546 356 546 q 218 535 267 546 q 113 503 170 524 l 113 628 q 218 661 162 650 q 334 673 273 673 q 460 656 406 673 q 550 607 514 638 q 605 534 587 576 q 623 443 623 492 l 623 195 q 624 83 623 130 q 627 0 625 37 l 481 0 l 475 70 m 462 280 q 409 290 439 286 q 349 294 379 294 q 255 271 290 294 q 221 199 221 248 q 229 160 221 177 q 250 133 237 144 q 281 117 263 122 q 318 111 298 111 q 364 118 342 111 q 404 134 386 124 q 437 156 422 144 q 462 180 452 168 l 462 280 m 160 907 l 540 907 l 540 794 l 160 794 l 160 907 m 79 657 z "},"ă":{"ha":715,"x_min":58,"x_max":627,"o":"m 475 70 l 472 70 q 439 41 458 56 q 396 13 420 26 q 342 -9 372 -1 q 277 -17 312 -17 q 190 -2 231 -17 q 120 40 149 12 q 74 106 91 67 q 58 193 58 145 q 77 288 58 246 q 131 359 96 330 q 214 404 165 389 q 320 419 262 419 q 399 414 363 419 q 462 401 435 408 l 462 427 q 454 472 462 450 q 429 510 446 493 q 384 536 412 526 q 316 546 356 546 q 218 535 267 546 q 113 503 170 524 l 113 628 q 218 661 162 650 q 334 673 273 673 q 460 656 406 673 q 550 607 514 638 q 605 534 587 576 q 623 443 623 492 l 623 195 q 624 83 623 130 q 627 0 625 37 l 481 0 l 475 70 m 462 280 q 409 290 439 286 q 349 294 379 294 q 255 271 290 294 q 221 199 221 248 q 229 160 221 177 q 250 133 237 144 q 281 117 263 122 q 318 111 298 111 q 364 118 342 111 q 404 134 386 124 q 437 156 422 144 q 462 180 452 168 l 462 280 m 354 852 q 418 880 394 852 q 448 968 442 908 l 585 968 q 568 876 583 918 q 524 804 553 834 q 453 756 495 773 q 354 739 410 739 q 256 756 298 739 q 184 804 213 773 q 140 876 155 834 q 123 968 125 918 l 260 968 q 290 880 266 908 q 354 852 314 852 m 83 657 z "},"å":{"ha":715,"x_min":58,"x_max":627,"o":"m 475 70 l 472 70 q 439 41 458 56 q 396 13 420 26 q 342 -9 372 -1 q 277 -17 312 -17 q 190 -2 231 -17 q 120 40 149 12 q 74 106 91 67 q 58 193 58 145 q 77 288 58 246 q 131 359 96 330 q 214 404 165 389 q 320 419 262 419 q 399 414 363 419 q 462 401 435 408 l 462 427 q 454 472 462 450 q 429 510 446 493 q 384 536 412 526 q 316 546 356 546 q 218 535 267 546 q 113 503 170 524 l 113 628 q 218 661 162 650 q 334 673 273 673 q 460 656 406 673 q 550 607 514 638 q 605 534 587 576 q 623 443 623 492 l 623 195 q 624 83 623 130 q 627 0 625 37 l 481 0 l 475 70 m 462 280 q 409 290 439 286 q 349 294 379 294 q 255 271 290 294 q 221 199 221 248 q 229 160 221 177 q 250 133 237 144 q 281 117 263 122 q 318 111 298 111 q 364 118 342 111 q 404 134 386 124 q 437 156 422 144 q 462 180 452 168 l 462 280 m 345 739 q 277 749 309 739 q 224 776 246 758 q 189 820 201 794 q 176 878 176 846 q 189 937 176 911 q 224 980 201 962 q 277 1008 246 998 q 345 1017 309 1017 q 413 1008 382 1017 q 467 980 444 998 q 502 937 489 962 q 515 878 515 911 q 502 820 515 846 q 467 776 489 794 q 413 749 444 758 q 345 739 382 739 m 345 941 q 296 925 316 941 q 277 878 277 909 q 296 832 277 848 q 345 816 316 816 q 394 832 374 816 q 414 878 414 848 q 394 925 414 909 q 345 941 374 941 m 74 657 z "},"ǻ":{"ha":715,"x_min":58,"x_max":627,"o":"m 544 1204 l 408 1030 l 294 1030 l 394 1204 l 544 1204 m 349 727 q 281 736 313 727 q 228 762 250 745 q 193 804 205 779 q 180 860 180 829 q 193 916 180 892 q 228 958 205 941 q 281 984 250 975 q 349 993 313 993 q 417 984 386 993 q 471 958 448 975 q 506 916 493 941 q 519 860 519 892 q 506 804 519 829 q 471 762 493 779 q 417 736 448 745 q 349 727 386 727 m 349 918 q 300 903 320 918 q 281 860 281 888 q 300 817 281 831 q 349 802 320 802 q 398 817 378 802 q 418 860 418 831 q 398 903 418 888 q 349 918 378 918 m 475 70 l 472 70 q 439 41 458 56 q 396 13 420 26 q 342 -9 372 -1 q 277 -17 312 -17 q 190 -2 231 -17 q 120 40 149 12 q 74 106 91 67 q 58 193 58 145 q 77 288 58 246 q 131 359 96 330 q 214 404 165 389 q 320 419 262 419 q 399 414 363 419 q 462 401 435 408 l 462 427 q 454 472 462 450 q 429 510 446 493 q 384 536 412 526 q 316 546 356 546 q 218 535 267 546 q 113 503 170 524 l 113 628 q 218 661 162 650 q 334 673 273 673 q 460 656 406 673 q 550 607 514 638 q 605 534 587 576 q 623 443 623 492 l 623 195 q 624 83 623 130 q 627 0 625 37 l 481 0 l 475 70 m 462 280 q 409 290 439 286 q 349 294 379 294 q 255 271 290 294 q 221 199 221 248 q 229 160 221 177 q 250 133 237 144 q 281 117 263 122 q 318 111 298 111 q 364 118 342 111 q 404 134 386 124 q 437 156 422 144 q 462 180 452 168 l 462 280 z "},"ą":{"ha":715,"x_min":58,"x_max":627,"o":"m 462 280 q 409 290 439 286 q 349 294 379 294 q 255 271 289 294 q 221 199 221 248 q 229 160 221 177 q 250 133 237 144 q 281 117 263 122 q 318 111 298 111 q 364 118 342 111 q 404 134 386 124 q 437 156 422 144 q 462 180 452 168 l 462 280 m 475 70 l 472 70 q 439 41 458 56 q 396 13 420 26 q 343 -8 372 0 q 278 -17 313 -17 q 190 -2 231 -17 q 120 40 149 12 q 74 106 91 67 q 58 193 58 145 q 77 288 58 246 q 131 359 96 330 q 214 404 165 389 q 320 419 262 419 q 400 413 365 419 q 462 401 436 408 l 462 427 q 454 472 462 451 q 429 510 446 493 q 384 536 412 526 q 316 546 356 546 q 218 535 267 546 q 113 503 170 524 l 113 628 q 159 646 133 637 q 213 661 184 654 q 273 670 242 667 q 334 673 304 673 q 460 656 406 673 q 551 607 515 638 q 605 534 587 576 q 623 443 623 492 l 623 195 q 624 83 623 130 q 627 0 625 37 q 569 -44 595 -22 q 522 -87 542 -66 q 491 -131 503 -109 q 480 -173 480 -152 q 496 -210 481 -199 q 536 -220 511 -220 q 621 -205 578 -220 l 621 -315 q 572 -327 601 -321 q 507 -332 543 -332 q 443 -325 472 -332 q 391 -301 413 -317 q 357 -261 370 -285 q 345 -204 345 -237 q 378 -99 345 -147 q 481 0 412 -52 l 475 70 z "},"æ":{"ha":1109,"x_min":58,"x_max":1048,"o":"m 334 673 q 413 665 378 673 q 475 643 448 657 q 521 608 502 628 q 553 564 541 588 l 556 564 q 650 645 595 616 q 772 673 705 673 q 880 654 830 673 q 968 595 930 635 q 1026 491 1005 554 q 1048 338 1048 427 q 1047 307 1048 321 q 1046 281 1046 292 l 615 281 q 635 203 618 235 q 680 151 652 171 q 744 122 707 131 q 823 113 781 113 q 921 122 870 113 q 1024 149 971 132 l 1024 21 q 977 6 1003 13 q 920 -6 950 -1 q 859 -14 890 -12 q 795 -17 827 -17 q 656 5 720 -17 q 547 74 592 27 l 545 74 q 493 39 522 56 q 432 11 465 23 q 364 -9 399 -2 q 292 -17 329 -17 q 196 -2 239 -17 q 122 40 153 12 q 74 106 91 67 q 58 193 58 145 q 77 288 58 246 q 131 359 96 330 q 214 404 165 389 q 320 419 262 419 q 400 413 365 419 q 460 401 435 408 l 462 401 l 462 425 q 454 471 462 449 q 429 509 446 492 q 384 536 412 526 q 316 546 356 546 q 220 535 269 546 q 113 503 170 524 l 113 628 q 219 662 161 650 q 334 673 277 673 m 318 111 q 370 118 345 111 q 416 134 395 124 q 454 154 437 143 q 482 174 471 165 q 460 280 465 223 q 407 290 437 286 q 349 294 377 294 q 256 272 290 294 q 221 199 221 249 q 229 160 221 177 q 250 133 237 144 q 281 117 263 122 q 318 111 298 111 m 762 548 q 707 537 731 548 q 666 506 684 526 q 639 461 649 487 q 625 406 629 435 l 884 406 q 876 461 884 435 q 853 506 868 487 q 815 537 838 526 q 762 548 792 548 z "},"ǽ":{"ha":1109,"x_min":58,"x_max":1048,"o":"m 334 673 q 413 665 378 673 q 475 643 448 657 q 521 608 502 628 q 553 564 541 588 l 556 564 q 650 645 595 616 q 772 673 705 673 q 880 654 830 673 q 968 595 930 635 q 1026 491 1005 554 q 1048 338 1048 427 q 1047 307 1048 321 q 1046 281 1046 292 l 615 281 q 635 203 618 235 q 680 151 652 171 q 744 122 707 131 q 823 113 781 113 q 921 122 870 113 q 1024 149 971 132 l 1024 21 q 977 6 1003 13 q 920 -6 950 -1 q 859 -14 890 -12 q 795 -17 827 -17 q 656 5 720 -17 q 547 74 592 27 l 545 74 q 493 39 522 56 q 432 11 465 23 q 364 -9 399 -2 q 292 -17 329 -17 q 196 -2 239 -17 q 122 40 153 12 q 74 106 91 67 q 58 193 58 145 q 77 288 58 246 q 131 359 96 330 q 214 404 165 389 q 320 419 262 419 q 400 413 365 419 q 460 401 435 408 l 462 401 l 462 425 q 454 471 462 449 q 429 509 446 492 q 384 536 412 526 q 316 546 356 546 q 220 535 269 546 q 113 503 170 524 l 113 628 q 219 662 161 650 q 334 673 277 673 m 318 111 q 370 118 345 111 q 416 134 395 124 q 454 154 437 143 q 482 174 471 165 q 460 280 465 223 q 407 290 437 286 q 349 294 377 294 q 256 272 290 294 q 221 199 221 249 q 229 160 221 177 q 250 133 237 144 q 281 117 263 122 q 318 111 298 111 m 762 548 q 707 537 731 548 q 666 506 684 526 q 639 461 649 487 q 625 406 629 435 l 884 406 q 876 461 884 435 q 853 506 868 487 q 815 537 838 526 q 762 548 792 548 m 752 999 l 640 762 l 515 762 l 596 999 l 752 999 m 353 656 z "},"ć":{"ha":612,"x_min":54,"x_max":562,"o":"m 562 14 q 487 -8 531 1 q 394 -17 443 -17 q 261 3 323 -17 q 153 65 199 24 q 81 170 107 106 q 54 318 54 233 q 85 481 54 413 q 164 591 115 549 q 273 653 212 633 q 393 673 334 673 q 477 666 437 673 q 551 644 518 658 l 551 513 q 488 534 522 526 q 416 542 454 542 q 342 530 377 542 q 279 492 307 518 q 236 424 252 467 q 220 322 220 382 q 233 240 220 279 q 268 175 245 202 q 328 131 292 148 q 414 115 364 115 q 494 123 458 115 q 562 145 530 132 l 562 14 m 536 999 l 425 762 l 300 762 l 380 999 l 536 999 m 138 656 z "},"ĉ":{"ha":612,"x_min":54,"x_max":572,"o":"m 562 14 q 487 -8 531 1 q 394 -17 443 -17 q 261 3 323 -17 q 153 65 199 24 q 81 170 107 106 q 54 318 54 233 q 85 481 54 413 q 164 591 115 549 q 273 653 212 633 q 393 673 334 673 q 477 666 437 673 q 551 644 518 658 l 551 513 q 488 534 522 526 q 416 542 454 542 q 342 530 377 542 q 279 492 307 518 q 236 424 252 467 q 220 322 220 382 q 233 240 220 279 q 268 175 245 202 q 328 131 292 148 q 414 115 364 115 q 494 123 458 115 q 562 145 530 132 l 562 14 m 290 999 l 430 999 l 572 762 l 447 762 l 361 906 l 359 906 l 273 762 l 148 762 l 290 999 m 89 657 z "},"č":{"ha":612,"x_min":54,"x_max":575,"o":"m 562 14 q 487 -8 531 1 q 394 -17 443 -17 q 261 3 323 -17 q 153 65 199 24 q 81 170 107 106 q 54 318 54 233 q 85 481 54 413 q 164 591 115 549 q 273 653 212 633 q 393 673 334 673 q 477 666 437 673 q 551 644 518 658 l 551 513 q 488 534 522 526 q 416 542 454 542 q 342 530 377 542 q 279 492 307 518 q 236 424 252 467 q 220 322 220 382 q 233 240 220 279 q 268 175 245 202 q 328 131 292 148 q 414 115 364 115 q 494 123 458 115 q 562 145 530 132 l 562 14 m 433 762 l 293 762 l 151 999 l 276 999 l 361 855 l 364 855 l 450 999 l 575 999 l 433 762 m 92 657 z "},"ċ":{"ha":612,"x_min":54,"x_max":562,"o":"m 562 14 q 487 -8 531 1 q 394 -17 443 -17 q 261 3 323 -17 q 153 65 199 24 q 81 170 107 106 q 54 318 54 233 q 85 481 54 413 q 164 591 115 549 q 273 653 212 633 q 393 673 334 673 q 477 666 437 673 q 551 644 518 658 l 551 513 q 488 534 522 526 q 416 542 454 542 q 342 530 377 542 q 279 492 307 518 q 236 424 252 467 q 220 322 220 382 q 233 240 220 279 q 268 175 245 202 q 328 131 292 148 q 414 115 364 115 q 494 123 458 115 q 562 145 530 132 l 562 14 m 275 982 l 444 982 l 444 808 l 275 808 l 275 982 m 90 657 z "},"ç":{"ha":612,"x_min":54,"x_max":562,"o":"m 284 -3 q 192 36 234 10 q 119 102 149 62 q 71 196 88 142 q 54 318 54 250 q 85 482 54 414 q 165 592 116 549 q 274 654 214 635 q 393 673 334 673 q 477 666 437 673 q 551 644 518 658 l 551 513 q 488 534 522 526 q 416 542 454 542 q 342 530 377 542 q 280 493 307 519 q 237 425 253 467 q 220 322 220 383 q 232 241 220 279 q 268 175 244 203 q 329 131 292 147 q 414 115 365 115 q 494 124 457 115 q 562 145 532 133 l 562 14 q 489 -7 532 2 q 394 -17 445 -17 l 381 -17 l 365 -80 q 415 -93 392 -84 q 455 -117 438 -102 q 481 -151 472 -132 q 491 -194 491 -170 q 478 -247 491 -222 q 438 -291 465 -272 q 371 -321 412 -311 q 281 -332 331 -332 q 228 -329 255 -332 q 186 -319 200 -325 l 186 -220 q 228 -229 204 -226 q 273 -232 252 -232 q 316 -228 298 -232 q 345 -217 335 -224 q 359 -203 355 -211 q 363 -189 363 -196 q 334 -157 363 -168 q 241 -146 304 -147 l 284 -3 z "},"ď":{"ha":774,"x_min":54,"x_max":918,"o":"m 371 111 q 416 117 395 111 q 456 134 437 123 q 490 156 475 144 q 515 180 505 168 l 515 492 q 451 530 486 515 q 376 545 416 545 q 324 535 351 545 q 274 500 296 525 q 236 433 251 476 q 220 322 220 389 q 259 168 220 223 q 371 111 297 112 m 54 315 q 78 469 54 401 q 143 582 102 536 q 237 651 184 628 q 347 673 290 673 q 397 669 373 673 q 441 656 420 664 q 481 637 463 648 q 515 616 499 627 l 516 616 q 515 655 515 630 q 515 709 515 680 l 515 982 l 675 982 l 675 195 q 677 83 675 130 q 680 0 678 37 l 534 0 l 528 70 l 525 70 q 491 37 511 53 q 447 8 471 20 q 394 -10 422 -3 q 331 -17 365 -17 q 228 2 277 -17 q 140 61 179 21 q 78 164 101 100 q 54 315 54 229 m 793 825 q 779 857 793 847 q 740 867 764 867 l 740 981 q 763 982 752 982 q 877 950 835 982 q 918 860 918 919 q 905 790 918 825 q 867 723 891 755 l 746 723 q 780 777 766 750 q 793 825 793 804 z "},"đ":{"ha":774,"x_min":54,"x_max":770,"o":"m 515 876 l 515 982 l 675 982 l 675 876 l 770 876 l 770 750 l 675 750 l 675 195 q 677 83 675 130 q 680 0 678 37 l 534 0 l 528 70 l 525 70 q 491 37 510 52 q 448 9 471 21 q 395 -10 424 -3 q 331 -17 366 -17 q 229 2 279 -17 q 140 60 179 20 q 78 164 102 100 q 54 315 54 228 q 78 471 54 404 q 143 583 102 538 q 237 650 184 627 q 347 673 290 673 q 397 669 373 673 q 441 656 420 664 q 481 637 463 648 q 515 616 499 627 l 516 616 q 515 655 515 630 q 515 709 515 680 l 515 750 l 343 750 l 343 876 l 515 876 m 371 111 q 417 118 395 111 q 457 134 439 124 q 490 156 475 144 q 515 180 504 168 l 515 492 q 451 530 486 515 q 378 545 416 545 q 324 535 351 545 q 273 500 296 524 q 235 432 250 475 q 220 322 220 388 q 259 167 220 223 q 371 111 297 111 z "},"è":{"ha":712,"x_min":46,"x_max":651,"o":"m 357 999 l 437 762 l 313 762 l 201 999 l 357 999 m 46 657 m 427 113 q 524 122 473 113 q 627 149 575 132 l 627 21 q 532 -5 596 7 q 398 -17 467 -17 q 266 1 328 -17 q 156 59 203 19 q 82 163 109 99 q 54 317 54 227 q 80 474 54 407 q 149 585 106 541 q 249 651 193 629 q 364 673 304 673 q 479 654 427 673 q 570 595 532 635 q 630 490 608 554 q 651 338 651 426 q 649 281 650 304 l 218 281 q 239 203 222 235 q 283 151 256 171 q 347 122 311 131 q 427 113 384 113 m 362 548 q 308 537 332 548 q 267 506 284 526 q 239 461 250 487 q 226 406 229 435 l 484 406 q 476 461 484 435 q 453 506 469 487 q 415 537 438 526 q 362 548 393 548 z "},"é":{"ha":712,"x_min":54,"x_max":651,"o":"m 534 999 l 422 762 l 297 762 l 378 999 l 534 999 m 135 656 m 427 113 q 524 122 473 113 q 627 149 575 132 l 627 21 q 532 -5 596 7 q 398 -17 467 -17 q 266 1 328 -17 q 156 59 203 19 q 82 163 109 99 q 54 317 54 227 q 80 474 54 407 q 149 585 106 541 q 249 651 193 629 q 364 673 304 673 q 479 654 427 673 q 570 595 532 635 q 630 490 608 554 q 651 338 651 426 q 649 281 650 304 l 218 281 q 239 203 222 235 q 283 151 256 171 q 347 122 311 131 q 427 113 384 113 m 362 548 q 308 537 332 548 q 267 506 284 526 q 239 461 250 487 q 226 406 229 435 l 484 406 q 476 461 484 435 q 453 506 469 487 q 415 537 438 526 q 362 548 393 548 z "},"ê":{"ha":712,"x_min":54,"x_max":651,"o":"m 290 999 l 430 999 l 572 762 l 447 762 l 361 906 l 359 906 l 273 762 l 148 762 l 290 999 m 89 657 m 427 113 q 524 122 473 113 q 627 149 575 132 l 627 21 q 532 -5 596 7 q 398 -17 467 -17 q 266 1 328 -17 q 156 59 203 19 q 82 163 109 99 q 54 317 54 227 q 80 474 54 407 q 149 585 106 541 q 249 651 193 629 q 364 673 304 673 q 479 654 427 673 q 570 595 532 635 q 630 490 608 554 q 651 338 651 426 q 649 281 650 304 l 218 281 q 239 203 222 235 q 283 151 256 171 q 347 122 311 131 q 427 113 384 113 m 362 548 q 308 537 332 548 q 267 506 284 526 q 239 461 250 487 q 226 406 229 435 l 484 406 q 476 461 484 435 q 453 506 469 487 q 415 537 438 526 q 362 548 393 548 z "},"ě":{"ha":712,"x_min":54,"x_max":651,"o":"m 437 762 l 297 762 l 155 999 l 280 999 l 366 855 l 368 855 l 454 999 l 579 999 l 437 762 m 96 657 m 427 113 q 524 122 473 113 q 627 149 575 132 l 627 21 q 532 -5 596 7 q 398 -17 467 -17 q 266 1 328 -17 q 156 59 203 19 q 82 163 109 99 q 54 317 54 227 q 80 474 54 407 q 149 585 106 541 q 249 651 193 629 q 364 673 304 673 q 479 654 427 673 q 570 595 532 635 q 630 490 608 554 q 651 338 651 426 q 649 281 650 304 l 218 281 q 239 203 222 235 q 283 151 256 171 q 347 122 311 131 q 427 113 384 113 m 362 548 q 308 537 332 548 q 267 506 284 526 q 239 461 250 487 q 226 406 229 435 l 484 406 q 476 461 484 435 q 453 506 469 487 q 415 537 438 526 q 362 548 393 548 z "},"ë":{"ha":712,"x_min":54,"x_max":651,"o":"m 150 958 l 298 958 l 298 808 l 150 808 l 150 958 m 428 958 l 576 958 l 576 808 l 428 808 l 428 958 m 92 657 m 427 113 q 524 122 473 113 q 627 149 575 132 l 627 21 q 532 -5 596 7 q 398 -17 467 -17 q 266 1 328 -17 q 156 59 203 19 q 82 163 109 99 q 54 317 54 227 q 80 474 54 407 q 149 585 106 541 q 249 651 193 629 q 364 673 304 673 q 479 654 427 673 q 570 595 532 635 q 630 490 608 554 q 651 338 651 426 q 649 281 650 304 l 218 281 q 239 203 222 235 q 283 151 256 171 q 347 122 311 131 q 427 113 384 113 m 362 548 q 308 537 332 548 q 267 506 284 526 q 239 461 250 487 q 226 406 229 435 l 484 406 q 476 461 484 435 q 453 506 469 487 q 415 537 438 526 q 362 548 393 548 z "},"ē":{"ha":712,"x_min":54,"x_max":651,"o":"m 173 907 l 553 907 l 553 794 l 173 794 l 173 907 m 92 657 m 427 113 q 524 122 473 113 q 627 149 575 132 l 627 21 q 532 -5 596 7 q 398 -17 467 -17 q 266 1 328 -17 q 156 59 203 19 q 82 163 109 99 q 54 317 54 227 q 80 474 54 407 q 149 585 106 541 q 249 651 193 629 q 364 673 304 673 q 479 654 427 673 q 570 595 532 635 q 630 490 608 554 q 651 338 651 426 q 649 281 650 304 l 218 281 q 239 203 222 235 q 283 151 256 171 q 347 122 311 131 q 427 113 384 113 m 362 548 q 308 537 332 548 q 267 506 284 526 q 239 461 250 487 q 226 406 229 435 l 484 406 q 476 461 484 435 q 453 506 469 487 q 415 537 438 526 q 362 548 393 548 z "},"ĕ":{"ha":712,"x_min":54,"x_max":651,"o":"m 361 852 q 425 880 401 852 q 454 968 449 908 l 592 968 q 575 876 590 918 q 531 804 559 834 q 459 756 502 773 q 361 739 417 739 q 262 756 305 739 q 191 804 220 773 q 147 876 162 834 q 130 968 132 918 l 267 968 q 297 880 273 908 q 361 852 321 852 m 90 657 m 427 113 q 524 122 473 113 q 627 149 575 132 l 627 21 q 532 -5 596 7 q 398 -17 467 -17 q 266 1 328 -17 q 156 59 203 19 q 82 163 109 99 q 54 317 54 227 q 80 474 54 407 q 149 585 106 541 q 249 651 193 629 q 364 673 304 673 q 479 654 427 673 q 570 595 532 635 q 630 490 608 554 q 651 338 651 426 q 649 281 650 304 l 218 281 q 239 203 222 235 q 283 151 256 171 q 347 122 311 131 q 427 113 384 113 m 362 548 q 308 537 332 548 q 267 506 284 526 q 239 461 250 487 q 226 406 229 435 l 484 406 q 476 461 484 435 q 453 506 469 487 q 415 537 438 526 q 362 548 393 548 z "},"ė":{"ha":712,"x_min":54,"x_max":651,"o":"m 277 982 l 446 982 l 446 808 l 277 808 l 277 982 m 92 657 m 427 113 q 524 122 473 113 q 627 149 575 132 l 627 21 q 532 -5 596 7 q 398 -17 467 -17 q 266 1 328 -17 q 156 59 203 19 q 82 163 109 99 q 54 317 54 227 q 80 474 54 407 q 149 585 106 541 q 249 651 193 629 q 364 673 304 673 q 479 654 427 673 q 570 595 532 635 q 630 490 608 554 q 651 338 651 426 q 649 281 650 304 l 218 281 q 239 203 222 235 q 283 151 256 171 q 347 122 311 131 q 427 113 384 113 m 362 548 q 308 537 332 548 q 267 506 284 526 q 239 461 250 487 q 226 406 229 435 l 484 406 q 476 461 484 435 q 453 506 469 487 q 415 537 438 526 q 362 548 393 548 z "},"ę":{"ha":712,"x_min":54,"x_max":651,"o":"m 435 -14 q 418 -16 431 -15 q 389 -17 405 -17 q 263 1 323 -17 q 156 59 203 19 q 82 163 110 99 q 54 317 54 227 q 80 474 54 407 q 149 585 106 541 q 249 651 193 629 q 364 673 304 673 q 479 654 427 673 q 570 595 532 635 q 630 491 608 554 q 651 338 651 427 q 649 281 651 315 l 218 281 q 239 203 222 235 q 283 151 256 171 q 347 122 311 131 q 427 113 384 113 q 524 122 473 113 q 627 149 575 132 l 627 27 q 558 -24 590 3 q 504 -76 527 -50 q 468 -127 481 -102 q 455 -173 455 -152 q 471 -209 455 -198 q 513 -220 486 -220 q 595 -205 551 -220 l 595 -315 q 546 -327 576 -321 q 481 -332 515 -332 q 417 -325 447 -332 q 366 -301 388 -317 q 332 -261 345 -285 q 319 -204 319 -237 q 348 -107 319 -152 q 435 -16 377 -63 l 435 -14 m 362 548 q 308 537 332 548 q 267 506 284 526 q 239 461 250 487 q 226 406 229 435 l 484 406 q 476 461 484 435 q 453 506 469 487 q 415 537 438 526 q 362 548 393 548 z "},"ĝ":{"ha":764,"x_min":54,"x_max":675,"o":"m 312 999 l 452 999 l 594 762 l 469 762 l 383 906 l 380 906 l 295 762 l 170 762 l 312 999 m 111 657 m 515 -17 q 515 17 515 -3 q 517 50 515 37 l 515 50 q 481 26 500 38 q 439 4 462 14 q 388 -11 416 -5 q 331 -17 360 -17 q 229 2 279 -17 q 140 61 179 20 q 78 164 102 101 q 54 316 54 227 q 78 472 54 405 q 142 583 102 538 q 234 651 182 628 q 341 673 286 673 q 448 648 401 673 q 525 583 495 623 l 528 583 l 534 657 l 675 657 l 675 -12 q 666 -111 675 -70 q 638 -184 656 -153 q 583 -250 616 -222 q 506 -296 549 -277 q 412 -323 463 -314 q 302 -332 360 -332 q 239 -330 270 -332 q 180 -323 208 -328 q 130 -313 153 -319 q 92 -301 107 -307 l 92 -170 q 185 -193 136 -185 q 289 -201 235 -201 q 456 -159 397 -201 q 515 -33 515 -117 l 515 -17 m 371 111 q 417 117 395 111 q 457 133 439 123 q 490 154 475 142 q 515 177 505 165 l 515 471 q 451 522 489 501 q 370 543 413 542 q 339 539 355 543 q 305 526 322 535 q 273 500 288 516 q 246 460 258 484 q 228 401 235 435 q 220 323 220 368 q 230 234 220 273 q 258 168 239 195 q 306 126 277 140 q 371 111 334 111 z "},"ğ":{"ha":764,"x_min":54,"x_max":675,"o":"m 390 852 q 454 880 430 852 q 484 968 478 908 l 621 968 q 604 876 619 918 q 560 804 589 834 q 489 756 531 773 q 390 739 446 739 q 292 756 334 739 q 220 804 249 773 q 176 876 191 834 q 159 968 161 918 l 296 968 q 326 880 302 908 q 390 852 350 852 m 119 657 m 515 -17 q 515 17 515 -3 q 517 50 515 37 l 515 50 q 481 26 500 38 q 439 4 462 14 q 388 -11 416 -5 q 331 -17 360 -17 q 229 2 279 -17 q 140 61 179 20 q 78 164 102 101 q 54 316 54 227 q 78 472 54 405 q 142 583 102 538 q 234 651 182 628 q 341 673 286 673 q 448 648 401 673 q 525 583 495 623 l 528 583 l 534 657 l 675 657 l 675 -12 q 666 -111 675 -70 q 638 -184 656 -153 q 583 -250 616 -222 q 506 -296 549 -277 q 412 -323 463 -314 q 302 -332 360 -332 q 239 -330 270 -332 q 180 -323 208 -328 q 130 -313 153 -319 q 92 -301 107 -307 l 92 -170 q 185 -193 136 -185 q 289 -201 235 -201 q 456 -159 397 -201 q 515 -33 515 -117 l 515 -17 m 371 111 q 417 117 395 111 q 457 133 439 123 q 490 154 475 142 q 515 177 505 165 l 515 471 q 451 522 489 501 q 370 543 413 542 q 339 539 355 543 q 305 526 322 535 q 273 500 288 516 q 246 460 258 484 q 228 401 235 435 q 220 323 220 368 q 230 234 220 273 q 258 168 239 195 q 306 126 277 140 q 371 111 334 111 z "},"ġ":{"ha":764,"x_min":54,"x_max":675,"o":"m 299 982 l 468 982 l 468 808 l 299 808 l 299 982 m 113 657 m 515 -17 q 515 17 515 -3 q 517 50 515 37 l 515 50 q 481 26 500 38 q 439 4 462 14 q 388 -11 416 -5 q 331 -17 360 -17 q 229 2 279 -17 q 140 61 179 20 q 78 164 102 101 q 54 316 54 227 q 78 472 54 405 q 142 583 102 538 q 234 651 182 628 q 341 673 286 673 q 448 648 401 673 q 525 583 495 623 l 528 583 l 534 657 l 675 657 l 675 -12 q 666 -111 675 -70 q 638 -184 656 -153 q 583 -250 616 -222 q 506 -296 549 -277 q 412 -323 463 -314 q 302 -332 360 -332 q 239 -330 270 -332 q 180 -323 208 -328 q 130 -313 153 -319 q 92 -301 107 -307 l 92 -170 q 185 -193 136 -185 q 289 -201 235 -201 q 456 -159 397 -201 q 515 -33 515 -117 l 515 -17 m 371 111 q 417 117 395 111 q 457 133 439 123 q 490 154 475 142 q 515 177 505 165 l 515 471 q 451 522 489 501 q 370 543 413 542 q 339 539 355 543 q 305 526 322 535 q 273 500 288 516 q 246 460 258 484 q 228 401 235 435 q 220 323 220 368 q 230 234 220 273 q 258 168 239 195 q 306 126 277 140 q 371 111 334 111 z "},"ģ":{"ha":764,"x_min":54,"x_max":770,"o":"m 403 897 q 418 865 403 875 q 456 855 433 855 l 456 741 q 437 740 446 740 q 321 771 364 740 q 278 862 278 802 q 292 932 278 897 q 329 999 305 967 l 450 999 q 417 944 431 970 q 403 897 403 918 m 770 657 m 515 -17 q 515 17 515 -3 q 517 50 515 37 l 515 50 q 481 26 500 38 q 439 4 462 14 q 388 -11 416 -5 q 331 -17 360 -17 q 229 2 279 -17 q 140 61 179 20 q 78 164 102 101 q 54 316 54 227 q 78 472 54 405 q 142 583 102 538 q 234 651 182 628 q 341 673 286 673 q 448 648 401 673 q 525 583 495 623 l 528 583 l 534 657 l 675 657 l 675 -12 q 666 -111 675 -70 q 638 -184 656 -153 q 583 -250 616 -222 q 506 -296 549 -277 q 412 -323 463 -314 q 302 -332 360 -332 q 239 -330 270 -332 q 180 -323 208 -328 q 130 -313 153 -319 q 92 -301 107 -307 l 92 -170 q 185 -193 136 -185 q 289 -201 235 -201 q 456 -159 397 -201 q 515 -33 515 -117 l 515 -17 m 371 111 q 417 117 395 111 q 457 133 439 123 q 490 154 475 142 q 515 177 505 165 l 515 471 q 451 522 489 501 q 370 543 413 542 q 339 539 355 543 q 305 526 322 535 q 273 500 288 516 q 246 460 258 484 q 228 401 235 435 q 220 323 220 368 q 230 234 220 273 q 258 168 239 195 q 306 126 277 140 q 371 111 334 111 z "},"ĥ":{"ha":777,"x_min":-36,"x_max":689,"o":"m 256 714 q 254 630 256 663 q 248 571 252 597 l 251 571 q 286 609 265 590 q 331 642 307 628 q 388 665 356 656 q 457 673 419 673 q 520 667 490 673 q 578 647 551 661 q 627 612 605 633 q 664 560 649 590 q 683 502 677 534 q 689 422 689 469 l 689 0 l 528 0 l 528 401 q 526 451 528 431 q 516 484 523 470 q 475 526 502 514 q 415 538 449 538 q 329 516 368 538 q 256 452 289 494 l 256 0 l 95 0 l 95 982 l 256 982 l 256 714 m 111 1198 l 250 1198 l 397 1031 l 256 1031 l 182 1116 l 179 1116 l 104 1031 l -36 1031 l 111 1198 z "},"ħ":{"ha":777,"x_min":0,"x_max":689,"o":"m 256 876 l 458 876 l 458 750 l 256 750 l 256 714 q 254 630 256 663 q 248 571 252 597 l 251 571 q 285 608 265 590 q 331 641 305 627 q 388 665 356 656 q 457 673 419 673 q 520 667 490 673 q 578 647 551 660 q 627 612 605 633 q 664 560 649 590 q 683 501 677 534 q 689 422 689 468 l 689 0 l 528 0 l 528 401 q 526 451 528 431 q 516 484 523 470 q 475 526 501 514 q 415 538 449 538 q 329 516 368 538 q 256 452 289 494 l 256 0 l 95 0 l 95 750 l 0 750 l 0 876 l 95 876 l 95 982 l 256 982 l 256 876 z "},"ì":{"ha":345,"x_min":-133,"x_max":258,"o":"m 92 657 l 253 657 l 253 0 l 92 0 l 92 657 m 178 999 l 258 762 l 134 762 l 22 999 l 178 999 m -133 657 z "},"í":{"ha":345,"x_min":-57,"x_max":342,"o":"m 92 657 l 253 657 l 253 0 l 92 0 l 92 657 m 342 999 l 230 762 l 105 762 l 186 999 l 342 999 m -57 656 z "},"î":{"ha":345,"x_min":-97,"x_max":387,"o":"m 92 657 l 253 657 l 253 0 l 92 0 l 92 657 m 104 999 l 244 999 l 387 762 l 261 762 l 176 906 l 173 906 l 87 762 l -38 762 l 104 999 m -97 657 z "},"ĩ":{"ha":345,"x_min":-63,"x_max":402,"o":"m 92 657 l 253 657 l 253 0 l 92 0 l 92 657 m 80 954 q 133 944 108 954 q 180 924 158 935 q 224 901 204 911 q 260 891 245 891 q 287 904 279 891 q 295 948 295 917 l 401 948 q 402 923 402 939 q 397 876 402 903 q 376 827 391 848 q 337 794 361 806 q 281 782 313 782 q 229 791 254 782 q 180 812 203 800 q 134 835 155 825 q 100 844 114 844 q 74 831 81 844 q 66 787 66 819 l -41 787 q -41 805 -41 801 q -36 860 -41 834 q -16 907 -31 885 q 23 941 -1 929 q 80 954 47 954 m -63 657 z "},"ï":{"ha":345,"x_min":-92,"x_max":392,"o":"m 92 657 l 253 657 l 253 0 l 92 0 l 92 657 m -34 958 l 114 958 l 114 808 l -34 808 l -34 958 m 244 958 l 392 958 l 392 808 l 244 808 l 244 958 m -92 657 z "},"ī":{"ha":345,"x_min":-93,"x_max":368,"o":"m 92 657 l 253 657 l 253 0 l 92 0 l 92 657 m -12 907 l 368 907 l 368 794 l -12 794 l -12 907 m -93 657 z "},"ĭ":{"ha":345,"x_min":-94,"x_max":409,"o":"m 92 657 l 253 657 l 253 0 l 92 0 l 92 657 m 178 852 q 242 880 218 852 q 271 968 266 908 l 409 968 q 392 876 407 918 q 348 804 376 834 q 276 756 319 773 q 178 739 234 739 q 79 756 122 739 q 8 804 37 773 q -36 876 -21 834 q -54 968 -52 918 l 84 968 q 114 880 90 908 q 178 852 138 852 m -94 657 z "},"į":{"ha":345,"x_min":-9,"x_max":270,"o":"m 88 982 l 257 982 l 257 808 l 88 808 l 88 982 m 92 657 l 253 657 l 253 0 q 158 -85 190 -40 q 127 -167 127 -130 q 132 -193 127 -182 q 145 -209 137 -203 q 165 -218 154 -215 q 189 -220 176 -220 q 270 -205 227 -220 l 270 -315 q 221 -327 250 -321 q 158 -332 192 -332 q 89 -323 120 -332 q 37 -296 58 -314 q 3 -253 15 -279 q -9 -194 -9 -227 q -1 -137 -9 -163 q 20 -88 6 -111 q 52 -43 33 -64 q 92 0 70 -21 l 92 657 z "},"ı":{"ha":345,"x_min":92,"x_max":253,"o":"m 92 657 l 253 657 l 253 0 l 92 0 l 92 657 z "},"ĳ":{"ha":693,"x_min":88,"x_max":605,"o":"m 92 657 l 253 657 l 253 0 l 92 0 l 92 657 m 88 982 l 257 982 l 257 808 l 88 808 l 88 982 m 601 -86 q 572 -229 601 -178 q 482 -307 541 -281 q 342 -332 423 -332 q 278 -328 307 -332 q 223 -317 249 -324 l 223 -185 q 272 -196 245 -191 q 323 -201 298 -201 q 380 -193 355 -201 q 419 -168 404 -186 q 435 -130 431 -154 q 440 -73 440 -106 l 440 657 l 601 657 l 601 -86 m 436 982 l 605 982 l 605 808 l 436 808 l 436 982 z "},"ĵ":{"ha":365,"x_min":-105,"x_max":405,"o":"m 273 -86 q 243 -229 273 -178 q 154 -307 213 -281 q 14 -332 95 -332 q -50 -328 -20 -332 q -105 -317 -79 -324 l -105 -185 q -58 -196 -85 -191 q -5 -201 -32 -201 q 52 -193 27 -201 q 91 -168 76 -186 q 107 -130 102 -154 q 112 -73 112 -106 l 112 657 l 273 657 l 273 -86 m 123 999 l 262 999 l 405 762 l 279 762 l 194 906 l 191 906 l 106 762 l -20 762 l 123 999 z "},"ķ":{"ha":724,"x_min":95,"x_max":710,"o":"m 95 982 l 256 982 l 256 391 l 259 391 l 509 657 l 708 657 l 420 349 l 710 0 l 515 0 l 258 306 l 256 306 l 256 0 l 95 0 l 95 982 m 350 -230 q 335 -198 350 -208 q 296 -189 320 -189 l 296 -74 q 320 -73 309 -73 q 433 -105 391 -73 q 475 -199 475 -137 q 461 -267 475 -232 q 424 -332 448 -302 l 302 -332 q 336 -278 323 -304 q 350 -230 350 -252 z "},"ĸ":{"ha":717,"x_min":88,"x_max":703,"o":"m 88 657 l 249 657 l 249 387 l 252 387 l 503 657 l 701 657 l 413 345 l 703 0 l 509 0 l 252 302 l 249 302 l 249 0 l 88 0 l 88 657 z "},"ĺ":{"ha":351,"x_min":95,"x_max":361,"o":"m 95 0 l 95 982 l 256 982 l 256 0 l 95 0 m 361 1198 l 232 1030 l 104 1030 l 198 1198 l 361 1198 z "},"ľ":{"ha":351,"x_min":95,"x_max":505,"o":"m 95 0 l 95 982 l 256 982 l 256 0 l 95 0 m 380 825 q 365 857 380 847 q 326 867 350 867 l 326 981 q 349 982 338 982 q 463 950 421 982 q 505 860 505 919 q 491 790 505 825 q 454 723 477 755 l 332 723 q 366 777 352 750 q 380 825 380 804 z "},"ļ":{"ha":351,"x_min":95,"x_max":279,"o":"m 95 0 l 95 982 l 256 982 l 256 0 l 95 0 m 155 -230 q 140 -198 155 -208 q 101 -189 125 -189 l 101 -74 q 125 -73 113 -73 q 237 -105 195 -73 q 279 -199 279 -137 q 266 -267 279 -232 q 229 -332 252 -302 l 107 -332 q 141 -278 127 -304 q 155 -230 155 -252 z "},"ł":{"ha":351,"x_min":1,"x_max":363,"o":"m 95 0 l 95 376 l 1 321 l 1 467 l 95 523 l 95 982 l 256 982 l 256 616 l 363 680 l 363 533 l 256 469 l 256 0 l 95 0 z "},"ŀ":{"ha":519,"x_min":95,"x_max":530,"o":"m 95 0 l 95 982 l 256 982 l 256 0 l 95 0 m 361 558 l 530 558 l 530 384 l 361 384 l 361 558 z "},"ń":{"ha":770,"x_min":88,"x_max":682,"o":"m 236 566 l 239 566 q 275 606 253 586 q 324 640 296 625 q 386 664 352 655 q 457 673 419 673 q 527 665 493 673 q 588 640 560 657 q 637 595 616 623 q 671 530 659 568 q 680 484 677 509 q 682 427 682 459 l 682 0 l 522 0 l 522 401 q 519 447 522 428 q 512 480 517 466 q 475 525 500 511 q 415 538 450 538 q 325 516 368 538 q 249 452 282 494 l 249 0 l 88 0 l 88 657 l 221 657 l 236 566 m 590 999 l 478 762 l 353 762 l 434 999 l 590 999 m 191 656 z "},"ň":{"ha":770,"x_min":88,"x_max":682,"o":"m 236 566 l 239 566 q 275 606 253 586 q 324 640 296 625 q 386 664 352 655 q 457 673 419 673 q 527 665 493 673 q 588 640 560 657 q 637 595 616 623 q 671 530 659 568 q 680 484 677 509 q 682 427 682 459 l 682 0 l 522 0 l 522 401 q 519 447 522 428 q 512 480 517 466 q 475 525 500 511 q 415 538 450 538 q 325 516 368 538 q 249 452 282 494 l 249 0 l 88 0 l 88 657 l 221 657 l 236 566 m 473 762 l 333 762 l 191 999 l 316 999 l 401 855 l 404 855 l 490 999 l 615 999 l 473 762 m 132 657 z "},"ñ":{"ha":770,"x_min":88,"x_max":682,"o":"m 236 566 l 239 566 q 275 606 253 586 q 324 640 296 625 q 386 664 352 655 q 457 673 419 673 q 527 665 493 673 q 588 640 560 657 q 637 595 616 623 q 671 530 659 568 q 680 484 677 509 q 682 427 682 459 l 682 0 l 522 0 l 522 401 q 519 447 522 428 q 512 480 517 466 q 475 525 500 511 q 415 538 450 538 q 325 516 368 538 q 249 452 282 494 l 249 0 l 88 0 l 88 657 l 221 657 l 236 566 m 287 954 q 340 944 315 954 q 387 924 365 935 q 431 901 411 911 q 467 891 452 891 q 494 904 486 891 q 502 948 502 917 l 608 948 q 609 923 609 939 q 604 876 609 903 q 583 827 598 848 q 544 794 568 806 q 488 782 520 782 q 436 791 461 782 q 387 812 410 800 q 341 835 361 825 q 307 844 321 844 q 280 831 288 844 q 273 787 273 819 l 166 787 q 165 805 165 801 q 171 860 165 834 q 191 907 176 885 q 230 941 206 929 q 287 954 254 954 m 144 657 z "},"ņ":{"ha":770,"x_min":88,"x_max":682,"o":"m 236 566 l 239 566 q 275 606 253 586 q 324 640 296 625 q 386 664 352 655 q 457 673 419 673 q 527 665 493 673 q 588 640 560 657 q 637 595 616 623 q 671 530 659 568 q 680 484 677 509 q 682 427 682 459 l 682 0 l 522 0 l 522 401 q 519 447 522 428 q 512 480 517 466 q 475 525 500 511 q 415 538 450 538 q 325 516 368 538 q 249 452 282 494 l 249 0 l 88 0 l 88 657 l 221 657 l 236 566 m 364 -230 q 349 -198 364 -208 q 311 -189 334 -189 l 311 -74 q 334 -73 323 -73 q 447 -105 405 -73 q 489 -199 489 -137 q 475 -267 489 -232 q 438 -332 462 -302 l 317 -332 q 351 -278 337 -304 q 364 -230 364 -252 z "},"ŉ":{"ha":770,"x_min":-12,"x_max":682,"o":"m 236 566 l 239 566 q 275 606 253 586 q 324 640 296 625 q 386 664 352 655 q 457 673 419 673 q 527 665 493 673 q 588 640 560 657 q 637 595 616 623 q 671 530 659 568 q 680 484 677 509 q 682 427 682 459 l 682 0 l 522 0 l 522 401 q 519 447 522 428 q 512 480 517 466 q 475 525 500 511 q 415 538 450 538 q 325 516 368 538 q 249 452 282 494 l 249 0 l 88 0 l 88 657 l 221 657 l 236 566 m 41 825 q 26 857 41 847 q -12 867 12 867 l -12 981 q 11 982 0 982 q 124 950 83 982 q 166 860 166 919 q 153 790 166 825 q 115 723 139 755 l -6 723 q 27 777 14 750 q 41 825 41 804 m 17 657 z "},"ò":{"ha":769,"x_min":54,"x_max":715,"o":"m 549 328 q 536 420 549 380 q 503 488 524 460 q 450 528 481 515 q 384 542 420 542 q 318 528 349 542 q 267 488 288 515 q 233 420 245 460 q 220 328 220 380 q 233 236 220 276 q 267 169 245 196 q 319 129 289 142 q 385 115 349 115 q 451 129 421 115 q 503 169 481 142 q 536 236 524 196 q 549 328 549 276 m 715 328 q 692 187 715 251 q 626 78 669 123 q 522 8 583 33 q 385 -17 460 -17 q 247 8 308 -17 q 142 78 185 33 q 77 187 100 123 q 54 328 54 251 q 77 469 54 406 q 143 578 100 533 q 248 649 186 624 q 384 673 309 673 q 523 649 461 673 q 627 578 584 624 q 692 469 669 533 q 715 328 715 406 m 367 999 l 448 762 l 323 762 l 211 999 l 367 999 m 56 657 z "},"ó":{"ha":769,"x_min":54,"x_max":715,"o":"m 549 328 q 536 420 549 380 q 503 488 524 460 q 450 528 481 515 q 384 542 420 542 q 318 528 349 542 q 267 488 288 515 q 233 420 245 460 q 220 328 220 380 q 233 236 220 276 q 267 169 245 196 q 319 129 289 142 q 385 115 349 115 q 451 129 421 115 q 503 169 481 142 q 536 236 524 196 q 549 328 549 276 m 715 328 q 692 187 715 251 q 626 78 669 123 q 522 8 583 33 q 385 -17 460 -17 q 247 8 308 -17 q 142 78 185 33 q 77 187 100 123 q 54 328 54 251 q 77 469 54 406 q 143 578 100 533 q 248 649 186 624 q 384 673 309 673 q 523 649 461 673 q 627 578 584 624 q 692 469 669 533 q 715 328 715 406 m 559 999 l 448 762 l 323 762 l 404 999 l 559 999 m 161 656 z "},"ô":{"ha":769,"x_min":54,"x_max":715,"o":"m 549 328 q 536 420 549 380 q 503 488 524 460 q 450 528 481 515 q 384 542 420 542 q 318 528 349 542 q 267 488 288 515 q 233 420 245 460 q 220 328 220 380 q 233 236 220 276 q 267 169 245 196 q 319 129 289 142 q 385 115 349 115 q 451 129 421 115 q 503 169 481 142 q 536 236 524 196 q 549 328 549 276 m 715 328 q 692 187 715 251 q 626 78 669 123 q 522 8 583 33 q 385 -17 460 -17 q 247 8 308 -17 q 142 78 185 33 q 77 187 100 123 q 54 328 54 251 q 77 469 54 406 q 143 578 100 533 q 248 649 186 624 q 384 673 309 673 q 523 649 461 673 q 627 578 584 624 q 692 469 669 533 q 715 328 715 406 m 309 999 l 448 999 l 591 762 l 465 762 l 380 906 l 377 906 l 292 762 l 166 762 l 309 999 m 107 657 z "},"õ":{"ha":769,"x_min":54,"x_max":715,"o":"m 549 328 q 536 420 549 380 q 503 488 524 460 q 450 528 481 515 q 384 542 420 542 q 318 528 349 542 q 267 488 288 515 q 233 420 245 460 q 220 328 220 380 q 233 236 220 276 q 267 169 245 196 q 319 129 289 142 q 385 115 349 115 q 451 129 421 115 q 503 169 481 142 q 536 236 524 196 q 549 328 549 276 m 715 328 q 692 187 715 251 q 626 78 669 123 q 522 8 583 33 q 385 -17 460 -17 q 247 8 308 -17 q 142 78 185 33 q 77 187 100 123 q 54 328 54 251 q 77 469 54 406 q 143 578 100 533 q 248 649 186 624 q 384 673 309 673 q 523 649 461 673 q 627 578 584 624 q 692 469 669 533 q 715 328 715 406 m 281 954 q 334 944 309 954 q 381 924 359 935 q 425 901 405 911 q 461 891 446 891 q 488 904 480 891 q 496 948 496 917 l 602 948 q 603 923 603 939 q 597 876 603 903 q 577 827 592 848 q 538 794 562 806 q 481 782 514 782 q 430 791 455 782 q 380 812 404 800 q 335 835 355 825 q 301 844 315 844 q 274 831 282 844 q 267 787 267 819 l 160 787 q 159 805 159 801 q 164 860 159 834 q 185 907 170 885 q 224 941 200 929 q 281 954 248 954 m 138 657 z "},"ö":{"ha":769,"x_min":54,"x_max":715,"o":"m 549 328 q 536 420 549 380 q 503 488 524 460 q 450 528 481 515 q 384 542 420 542 q 318 528 349 542 q 267 488 288 515 q 233 420 245 460 q 220 328 220 380 q 233 236 220 276 q 267 169 245 196 q 319 129 289 142 q 385 115 349 115 q 451 129 421 115 q 503 169 481 142 q 536 236 524 196 q 549 328 549 276 m 715 328 q 692 187 715 251 q 626 78 669 123 q 522 8 583 33 q 385 -17 460 -17 q 247 8 308 -17 q 142 78 185 33 q 77 187 100 123 q 54 328 54 251 q 77 469 54 406 q 143 578 100 533 q 248 649 186 624 q 384 673 309 673 q 523 649 461 673 q 627 578 584 624 q 692 469 669 533 q 715 328 715 406 m 170 958 l 317 958 l 317 808 l 170 808 l 170 958 m 448 958 l 595 958 l 595 808 l 448 808 l 448 958 m 111 657 z "},"ō":{"ha":769,"x_min":54,"x_max":715,"o":"m 549 328 q 536 420 549 380 q 503 488 524 460 q 450 528 481 515 q 384 542 420 542 q 318 528 349 542 q 267 488 288 515 q 233 420 245 460 q 220 328 220 380 q 233 236 220 276 q 267 169 245 196 q 319 129 289 142 q 385 115 349 115 q 451 129 421 115 q 503 169 481 142 q 536 236 524 196 q 549 328 549 276 m 715 328 q 692 187 715 251 q 626 78 669 123 q 522 8 583 33 q 385 -17 460 -17 q 247 8 308 -17 q 142 78 185 33 q 77 187 100 123 q 54 328 54 251 q 77 469 54 406 q 143 578 100 533 q 248 649 186 624 q 384 673 309 673 q 523 649 461 673 q 627 578 584 624 q 692 469 669 533 q 715 328 715 406 m 194 907 l 574 907 l 574 794 l 194 794 l 194 907 m 113 657 z "},"ŏ":{"ha":769,"x_min":54,"x_max":715,"o":"m 549 328 q 536 420 549 380 q 503 488 524 460 q 450 528 481 515 q 384 542 420 542 q 318 528 349 542 q 267 488 288 515 q 233 420 245 460 q 220 328 220 380 q 233 236 220 276 q 267 169 245 196 q 319 129 289 142 q 385 115 349 115 q 451 129 421 115 q 503 169 481 142 q 536 236 524 196 q 549 328 549 276 m 715 328 q 692 187 715 251 q 626 78 669 123 q 522 8 583 33 q 385 -17 460 -17 q 247 8 308 -17 q 142 78 185 33 q 77 187 100 123 q 54 328 54 251 q 77 469 54 406 q 143 578 100 533 q 248 649 186 624 q 384 673 309 673 q 523 649 461 673 q 627 578 584 624 q 692 469 669 533 q 715 328 715 406 m 384 852 q 448 880 424 852 q 477 968 472 908 l 615 968 q 598 876 613 918 q 554 804 583 834 q 483 756 525 773 q 384 739 440 739 q 286 756 328 739 q 214 804 243 773 q 170 876 185 834 q 153 968 155 918 l 290 968 q 320 880 296 908 q 384 852 344 852 m 113 657 z "},"ő":{"ha":769,"x_min":54,"x_max":715,"o":"m 549 328 q 536 420 549 380 q 503 488 524 460 q 450 528 481 515 q 384 542 420 542 q 318 528 349 542 q 267 488 288 515 q 233 420 245 460 q 220 328 220 380 q 233 236 220 276 q 267 169 245 196 q 319 129 289 142 q 385 115 349 115 q 451 129 421 115 q 503 169 481 142 q 536 236 524 196 q 549 328 549 276 m 715 328 q 692 187 715 251 q 626 78 669 123 q 522 8 583 33 q 385 -17 460 -17 q 247 8 308 -17 q 142 78 185 33 q 77 187 100 123 q 54 328 54 251 q 77 469 54 406 q 143 578 100 533 q 248 649 186 624 q 384 673 309 673 q 523 649 461 673 q 627 578 584 624 q 692 469 669 533 q 715 328 715 406 m 448 999 l 336 762 l 211 762 l 292 999 l 448 999 m 670 999 l 543 762 l 414 762 l 510 999 l 670 999 m 165 657 z "},"ø":{"ha":769,"x_min":54,"x_max":715,"o":"m 659 538 q 701 443 686 495 q 715 328 715 390 q 692 187 715 251 q 626 78 669 123 q 522 8 583 33 q 385 -17 460 -17 q 276 -3 326 -17 q 188 39 227 12 l 135 -17 l 54 58 l 111 118 q 68 213 83 161 q 54 328 54 266 q 77 469 54 406 q 143 578 100 533 q 248 649 186 624 q 384 673 309 673 q 492 659 443 673 q 581 617 541 644 l 634 673 l 715 598 l 659 538 m 549 328 q 539 412 549 374 l 289 146 q 385 115 329 115 q 451 129 421 115 q 503 169 481 142 q 536 236 524 196 q 549 328 549 276 m 220 328 q 222 284 220 304 q 230 245 224 263 l 479 510 q 384 542 439 542 q 318 528 349 542 q 267 488 288 515 q 233 420 245 460 q 220 328 220 380 z "},"ǿ":{"ha":769,"x_min":54,"x_max":715,"o":"m 659 538 q 701 443 686 495 q 715 328 715 390 q 692 187 715 251 q 626 78 669 123 q 522 8 583 33 q 385 -17 460 -17 q 276 -3 326 -17 q 188 39 227 12 l 135 -17 l 54 58 l 111 118 q 68 213 83 161 q 54 328 54 266 q 77 469 54 406 q 143 578 100 533 q 248 649 186 624 q 384 673 309 673 q 492 659 443 673 q 581 617 541 644 l 634 673 l 715 598 l 659 538 m 549 328 q 539 412 549 374 l 289 146 q 385 115 329 115 q 451 129 421 115 q 503 169 481 142 q 536 236 524 196 q 549 328 549 276 m 220 328 q 222 284 220 304 q 230 245 224 263 l 479 510 q 384 542 439 542 q 318 528 349 542 q 267 488 288 515 q 233 420 245 460 q 220 328 220 380 m 555 999 l 444 762 l 319 762 l 399 999 l 555 999 m 157 656 z "},"œ":{"ha":1206,"x_min":54,"x_max":1145,"o":"m 921 113 q 1019 122 968 113 q 1122 149 1069 132 l 1122 21 q 1074 6 1101 13 q 1018 -6 1048 -1 q 958 -14 989 -12 q 897 -17 927 -17 q 814 -9 854 -17 q 739 14 774 -1 q 675 54 704 30 q 626 109 646 77 l 623 109 q 578 58 604 81 q 520 18 552 35 q 450 -8 488 1 q 369 -17 412 -17 q 240 8 298 -17 q 141 78 182 33 q 77 187 100 123 q 54 328 54 251 q 78 469 54 406 q 143 578 101 533 q 245 649 186 624 q 376 673 304 673 q 523 638 460 673 q 627 544 586 603 l 629 544 q 674 600 649 576 q 730 640 700 624 q 792 665 760 656 q 859 673 825 673 q 974 654 921 673 q 1065 595 1027 635 q 1124 491 1103 554 q 1145 338 1145 427 q 1143 281 1145 314 l 713 281 q 733 203 716 235 q 778 151 750 171 q 842 122 805 131 q 921 113 878 113 m 549 328 q 536 420 549 380 q 503 488 524 460 q 450 528 481 515 q 384 542 420 542 q 318 528 349 542 q 267 488 288 515 q 233 420 245 460 q 220 328 220 380 q 233 236 220 276 q 267 169 245 196 q 319 129 289 142 q 385 115 349 115 q 451 129 421 115 q 503 169 481 142 q 536 236 524 196 q 549 328 549 276 m 857 548 q 802 537 826 548 q 761 506 779 526 q 734 461 744 487 q 720 406 724 435 l 979 406 q 971 461 979 435 q 948 506 963 487 q 910 537 932 526 q 857 548 887 548 z "},"ŕ":{"ha":486,"x_min":52,"x_max":479,"o":"m 451 999 l 339 762 l 214 762 l 295 999 l 451 999 m 52 656 m 479 530 l 465 530 q 335 508 391 530 q 249 440 279 486 l 249 0 l 88 0 l 88 657 l 221 657 l 236 566 l 239 566 q 317 645 267 616 q 437 673 367 673 q 479 671 461 673 l 479 530 z "},"ř":{"ha":486,"x_min":21,"x_max":505,"o":"m 362 762 l 222 762 l 80 999 l 205 999 l 291 855 l 294 855 l 379 999 l 505 999 l 362 762 m 21 657 m 479 530 l 465 530 q 335 508 391 530 q 249 440 279 486 l 249 0 l 88 0 l 88 657 l 221 657 l 236 566 l 239 566 q 317 645 267 616 q 437 673 367 673 q 479 671 461 673 l 479 530 z "},"ŗ":{"ha":486,"x_min":88,"x_max":479,"o":"m 148 -230 q 133 -198 148 -208 q 94 -189 118 -189 l 94 -74 q 118 -73 106 -73 q 231 -105 189 -73 q 273 -199 273 -137 q 259 -267 273 -232 q 222 -332 245 -302 l 100 -332 q 134 -278 121 -304 q 148 -230 148 -252 m 479 530 l 465 530 q 335 508 391 530 q 249 440 279 486 l 249 0 l 88 0 l 88 657 l 221 657 l 236 566 l 239 566 q 317 645 267 616 q 437 673 367 673 q 479 671 461 673 l 479 530 z "},"ś":{"ha":589,"x_min":58,"x_max":538,"o":"m 475 999 l 363 762 l 238 762 l 319 999 l 475 999 m 76 656 m 379 191 q 367 225 379 212 q 336 248 355 239 q 291 264 316 257 q 237 277 265 271 q 170 299 202 287 q 112 332 137 312 q 73 384 87 353 q 58 459 58 414 q 78 554 58 514 q 131 621 98 595 q 209 661 165 648 q 303 673 254 673 q 416 664 363 673 q 512 638 469 654 l 512 507 q 465 521 490 515 q 415 532 440 528 q 364 540 389 537 q 317 543 339 543 q 269 538 288 543 q 237 523 249 532 q 219 502 224 514 q 214 477 214 490 q 225 441 214 455 q 258 418 237 427 q 302 403 279 409 q 347 392 326 397 q 415 372 381 384 q 476 340 449 361 q 520 287 503 319 q 538 203 538 254 q 517 106 538 147 q 458 37 496 64 q 368 -4 420 9 q 252 -17 315 -17 q 140 -7 190 -17 q 58 18 90 3 l 58 147 q 155 120 111 127 q 239 113 200 113 q 294 118 269 113 q 339 132 320 122 q 368 156 357 141 q 379 191 379 170 z "},"ŝ":{"ha":589,"x_min":33,"x_max":538,"o":"m 235 999 l 374 999 l 517 762 l 391 762 l 306 906 l 303 906 l 218 762 l 92 762 l 235 999 m 33 657 m 379 191 q 367 225 379 212 q 336 248 355 239 q 291 264 316 257 q 237 277 265 271 q 170 299 202 287 q 112 332 137 312 q 73 384 87 353 q 58 459 58 414 q 78 554 58 514 q 131 621 98 595 q 209 661 165 648 q 303 673 254 673 q 416 664 363 673 q 512 638 469 654 l 512 507 q 465 521 490 515 q 415 532 440 528 q 364 540 389 537 q 317 543 339 543 q 269 538 288 543 q 237 523 249 532 q 219 502 224 514 q 214 477 214 490 q 225 441 214 455 q 258 418 237 427 q 302 403 279 409 q 347 392 326 397 q 415 372 381 384 q 476 340 449 361 q 520 287 503 319 q 538 203 538 254 q 517 106 538 147 q 458 37 496 64 q 368 -4 420 9 q 252 -17 315 -17 q 140 -7 190 -17 q 58 18 90 3 l 58 147 q 155 120 111 127 q 239 113 200 113 q 294 118 269 113 q 339 132 320 122 q 368 156 357 141 q 379 191 379 170 z "},"š":{"ha":589,"x_min":28,"x_max":538,"o":"m 370 762 l 230 762 l 87 999 l 213 999 l 298 855 l 301 855 l 387 999 l 512 999 l 370 762 m 28 657 m 379 191 q 367 225 379 212 q 336 248 355 239 q 291 264 316 257 q 237 277 265 271 q 170 299 202 287 q 112 332 137 312 q 73 384 87 353 q 58 459 58 414 q 78 554 58 514 q 131 621 98 595 q 209 661 165 648 q 303 673 254 673 q 416 664 363 673 q 512 638 469 654 l 512 507 q 465 521 490 515 q 415 532 440 528 q 364 540 389 537 q 317 543 339 543 q 269 538 288 543 q 237 523 249 532 q 219 502 224 514 q 214 477 214 490 q 225 441 214 455 q 258 418 237 427 q 302 403 279 409 q 347 392 326 397 q 415 372 381 384 q 476 340 449 361 q 520 287 503 319 q 538 203 538 254 q 517 106 538 147 q 458 37 496 64 q 368 -4 420 9 q 252 -17 315 -17 q 140 -7 190 -17 q 58 18 90 3 l 58 147 q 155 120 111 127 q 239 113 200 113 q 294 118 269 113 q 339 132 320 122 q 368 156 357 141 q 379 191 379 170 z "},"ş":{"ha":589,"x_min":58,"x_max":538,"o":"m 213 -16 q 124 -4 164 -13 q 58 18 85 5 l 58 147 q 156 120 112 127 q 239 113 200 113 q 294 118 269 113 q 339 132 320 122 q 368 156 357 141 q 379 191 379 170 q 368 225 379 211 q 336 248 356 239 q 291 264 316 257 q 237 277 265 271 q 169 299 201 287 q 112 332 137 312 q 73 384 87 353 q 58 459 58 414 q 78 554 58 514 q 131 621 98 595 q 209 661 165 648 q 303 673 254 673 q 416 664 363 673 q 512 638 469 654 l 512 507 q 465 521 490 515 q 415 532 440 528 q 364 540 389 537 q 317 543 339 543 q 269 538 288 543 q 237 523 249 532 q 219 502 224 514 q 214 477 214 490 q 227 441 214 455 q 259 417 239 427 q 303 403 279 408 q 347 392 326 397 q 414 372 381 384 q 476 340 448 361 q 521 286 504 319 q 538 203 538 252 q 522 117 538 154 q 477 52 506 79 q 407 9 448 25 q 316 -13 366 -7 l 298 -80 q 348 -93 325 -84 q 388 -117 371 -102 q 414 -151 405 -132 q 424 -194 424 -170 q 410 -248 424 -222 q 371 -292 397 -273 q 305 -321 345 -311 q 214 -332 265 -332 q 160 -329 186 -332 q 119 -319 134 -325 l 119 -220 q 161 -229 136 -226 q 207 -232 187 -232 q 250 -228 231 -232 q 278 -217 268 -224 q 292 -203 288 -211 q 296 -189 296 -196 q 267 -157 296 -168 q 174 -146 237 -147 l 213 -16 z "},"ș":{"ha":589,"x_min":58,"x_max":538,"o":"m 267 -230 q 252 -198 267 -208 q 213 -189 237 -189 l 213 -74 q 237 -73 225 -73 q 349 -105 307 -73 q 391 -199 391 -137 q 378 -267 391 -232 q 340 -332 364 -302 l 219 -332 q 253 -278 239 -304 q 267 -230 267 -252 m 379 191 q 367 225 379 212 q 336 248 355 239 q 291 264 316 257 q 237 277 265 271 q 170 299 202 287 q 112 332 137 312 q 73 384 87 353 q 58 459 58 414 q 78 554 58 514 q 131 621 98 595 q 209 661 165 648 q 303 673 254 673 q 416 664 363 673 q 512 638 469 654 l 512 507 q 465 521 490 515 q 415 532 440 528 q 364 540 389 537 q 317 543 339 543 q 269 538 288 543 q 237 523 249 532 q 219 502 224 514 q 214 477 214 490 q 225 441 214 455 q 258 418 237 427 q 302 403 279 409 q 347 392 326 397 q 415 372 381 384 q 476 340 449 361 q 520 287 503 319 q 538 203 538 254 q 517 106 538 147 q 458 37 496 64 q 368 -4 420 9 q 252 -17 315 -17 q 140 -7 190 -17 q 58 18 90 3 l 58 147 q 155 120 111 127 q 239 113 200 113 q 294 118 269 113 q 339 132 320 122 q 368 156 357 141 q 379 191 379 170 z "},"ß":{"ha":863,"x_min":95,"x_max":812,"o":"m 700 795 q 688 729 700 759 q 660 678 677 700 q 622 638 642 656 q 585 602 602 620 q 556 566 568 585 q 545 523 545 547 q 555 488 545 503 q 583 461 566 473 q 623 438 601 449 q 670 414 644 427 q 722 384 696 401 q 767 345 747 368 q 800 291 787 322 q 812 217 812 260 q 792 120 812 163 q 736 47 772 77 q 649 0 700 16 q 536 -17 598 -17 q 436 -8 481 -17 q 367 14 392 1 l 367 144 q 447 120 410 127 q 521 113 484 113 q 617 138 581 113 q 654 212 654 163 q 644 252 654 235 q 616 281 633 269 q 577 304 599 294 q 532 326 555 315 q 479 352 505 338 q 432 387 453 366 q 399 438 412 408 q 386 509 386 467 q 397 577 386 547 q 426 631 409 607 q 464 674 444 654 q 501 712 484 693 q 530 750 518 730 q 541 792 541 770 q 513 847 541 827 q 429 869 485 868 q 352 854 385 869 q 298 811 319 839 q 266 746 277 784 q 256 661 256 707 l 256 0 l 95 0 l 95 667 q 117 802 95 741 q 182 907 140 863 q 287 975 224 951 q 427 999 349 999 q 546 982 494 999 q 632 937 598 965 q 683 871 666 908 q 700 795 700 835 z "},"ſ":{"ha":412,"x_min":95,"x_max":456,"o":"m 95 742 q 113 857 95 808 q 164 937 132 905 q 243 984 197 968 q 343 999 288 999 q 406 994 376 999 q 456 982 435 989 l 456 854 q 411 864 433 860 q 365 867 389 867 q 316 861 336 867 q 282 839 296 854 q 262 800 269 824 q 256 743 256 777 l 256 0 l 95 0 l 95 742 z "},"ť":{"ha":527,"x_min":7,"x_max":559,"o":"m 490 1 q 425 -12 463 -7 q 355 -17 387 -17 q 219 10 272 -17 q 145 87 167 37 q 130 184 130 123 l 130 525 l 7 525 l 7 657 l 130 657 l 130 841 l 290 841 l 290 657 l 480 657 l 480 525 l 290 525 l 290 205 q 302 149 290 168 q 382 118 322 118 q 438 122 410 118 q 490 134 465 127 l 490 1 m 435 825 q 420 857 435 847 q 381 867 405 867 l 381 981 q 404 982 393 982 q 518 950 476 982 q 559 860 559 919 q 546 790 559 825 q 509 723 532 755 l 387 723 q 421 777 407 750 q 435 825 435 804 m 410 657 z "},"ţ":{"ha":527,"x_min":7,"x_max":490,"o":"m 490 1 q 425 -12 463 -7 q 355 -17 387 -17 q 219 10 272 -17 q 145 87 167 37 q 130 184 130 123 l 130 525 l 7 525 l 7 657 l 130 657 l 130 841 l 290 841 l 290 657 l 480 657 l 480 525 l 290 525 l 290 205 q 302 149 290 168 q 382 118 322 118 q 438 122 410 118 q 490 134 465 127 l 490 1 m 278 -230 q 263 -198 278 -208 q 224 -189 248 -189 l 224 -74 q 248 -73 237 -73 q 361 -105 319 -73 q 403 -199 403 -137 q 389 -267 403 -232 q 352 -332 376 -302 l 231 -332 q 264 -278 251 -304 q 278 -230 278 -252 z "},"ŧ":{"ha":527,"x_min":7,"x_max":490,"o":"m 290 205 q 302 149 290 168 q 382 118 322 118 q 438 122 412 118 q 490 134 465 127 l 490 1 q 425 -12 462 -7 q 355 -17 389 -17 q 219 10 272 -17 q 145 87 167 37 q 130 184 130 123 l 130 270 l 7 270 l 7 397 l 130 397 l 130 525 l 7 525 l 7 657 l 130 657 l 130 841 l 290 841 l 290 657 l 480 657 l 480 525 l 290 525 l 290 397 l 445 397 l 445 270 l 290 270 l 290 205 z "},"ù":{"ha":757,"x_min":52,"x_max":675,"o":"m 378 -17 q 214 17 279 -17 q 116 107 149 50 q 90 174 98 138 q 81 256 81 211 l 81 657 l 242 657 l 242 273 q 247 215 242 239 q 261 174 252 191 q 307 129 277 144 q 378 115 337 115 q 453 131 422 115 q 499 180 484 147 q 515 269 515 212 l 515 657 l 675 657 l 675 256 q 648 121 675 176 q 607 64 632 90 q 549 21 583 39 q 473 -7 515 3 q 378 -17 431 -17 m 363 999 l 444 762 l 319 762 l 207 999 l 363 999 m 52 657 z "},"ú":{"ha":757,"x_min":81,"x_max":675,"o":"m 378 -17 q 214 17 279 -17 q 116 107 149 50 q 90 174 98 138 q 81 256 81 211 l 81 657 l 242 657 l 242 273 q 247 215 242 239 q 261 174 252 191 q 307 129 277 144 q 378 115 337 115 q 453 131 422 115 q 499 180 484 147 q 515 269 515 212 l 515 657 l 675 657 l 675 256 q 648 121 675 176 q 607 64 632 90 q 549 21 583 39 q 473 -7 515 3 q 378 -17 431 -17 m 552 999 l 440 762 l 315 762 l 396 999 l 552 999 m 153 656 z "},"û":{"ha":757,"x_min":81,"x_max":675,"o":"m 378 -17 q 214 17 279 -17 q 116 107 149 50 q 90 174 98 138 q 81 256 81 211 l 81 657 l 242 657 l 242 273 q 247 215 242 239 q 261 174 252 191 q 307 129 277 144 q 378 115 337 115 q 453 131 422 115 q 499 180 484 147 q 515 269 515 212 l 515 657 l 675 657 l 675 256 q 648 121 675 176 q 607 64 632 90 q 549 21 583 39 q 473 -7 515 3 q 378 -17 431 -17 m 311 999 l 450 999 l 593 762 l 467 762 l 382 906 l 379 906 l 294 762 l 168 762 l 311 999 m 109 657 z "},"ũ":{"ha":757,"x_min":81,"x_max":675,"o":"m 378 -17 q 214 17 279 -17 q 116 107 149 50 q 90 174 98 138 q 81 256 81 211 l 81 657 l 242 657 l 242 273 q 247 215 242 239 q 261 174 252 191 q 307 129 277 144 q 378 115 337 115 q 453 131 422 115 q 499 180 484 147 q 515 269 515 212 l 515 657 l 675 657 l 675 256 q 648 121 675 176 q 607 64 632 90 q 549 21 583 39 q 473 -7 515 3 q 378 -17 431 -17 m 281 954 q 334 944 309 954 q 381 924 359 935 q 425 901 405 911 q 461 891 446 891 q 488 904 480 891 q 496 948 496 917 l 602 948 q 603 923 603 939 q 597 876 603 903 q 577 827 592 848 q 538 794 562 806 q 481 782 514 782 q 430 791 455 782 q 380 812 404 800 q 335 835 355 825 q 301 844 315 844 q 274 831 282 844 q 267 787 267 819 l 160 787 q 159 805 159 801 q 164 860 159 834 q 185 907 170 885 q 224 941 200 929 q 281 954 248 954 m 138 657 z "},"ü":{"ha":757,"x_min":81,"x_max":675,"o":"m 378 -17 q 214 17 279 -17 q 116 107 149 50 q 90 174 98 138 q 81 256 81 211 l 81 657 l 242 657 l 242 273 q 247 215 242 239 q 261 174 252 191 q 307 129 277 144 q 378 115 337 115 q 453 131 422 115 q 499 180 484 147 q 515 269 515 212 l 515 657 l 675 657 l 675 256 q 648 121 675 176 q 607 64 632 90 q 549 21 583 39 q 473 -7 515 3 q 378 -17 431 -17 m 164 958 l 312 958 l 312 808 l 164 808 l 164 958 m 442 958 l 590 958 l 590 808 l 442 808 l 442 958 m 106 657 z "},"ū":{"ha":757,"x_min":81,"x_max":675,"o":"m 378 -17 q 214 17 279 -17 q 116 107 149 50 q 90 174 98 138 q 81 256 81 211 l 81 657 l 242 657 l 242 273 q 247 215 242 239 q 261 174 252 191 q 307 129 277 144 q 378 115 337 115 q 453 131 422 115 q 499 180 484 147 q 515 269 515 212 l 515 657 l 675 657 l 675 256 q 648 121 675 176 q 607 64 632 90 q 549 21 583 39 q 473 -7 515 3 q 378 -17 431 -17 m 190 907 l 570 907 l 570 794 l 190 794 l 190 907 m 109 657 z "},"ŭ":{"ha":757,"x_min":81,"x_max":675,"o":"m 378 -17 q 214 17 279 -17 q 116 107 149 50 q 90 174 98 138 q 81 256 81 211 l 81 657 l 242 657 l 242 273 q 247 215 242 239 q 261 174 252 191 q 307 129 277 144 q 378 115 337 115 q 453 131 422 115 q 499 180 484 147 q 515 269 515 212 l 515 657 l 675 657 l 675 256 q 648 121 675 176 q 607 64 632 90 q 549 21 583 39 q 473 -7 515 3 q 378 -17 431 -17 m 380 852 q 445 880 420 852 q 474 968 469 908 l 612 968 q 594 876 610 918 q 550 804 579 834 q 479 756 522 773 q 380 739 437 739 q 282 756 325 739 q 211 804 239 773 q 166 876 182 834 q 149 968 151 918 l 287 968 q 316 880 292 908 q 380 852 340 852 m 109 657 z "},"ů":{"ha":757,"x_min":81,"x_max":675,"o":"m 378 -17 q 214 17 279 -17 q 116 107 149 50 q 90 174 98 138 q 81 256 81 211 l 81 657 l 242 657 l 242 273 q 247 215 242 239 q 261 174 252 191 q 307 129 277 144 q 378 115 337 115 q 453 131 422 115 q 499 180 484 147 q 515 269 515 212 l 515 657 l 675 657 l 675 256 q 648 121 675 176 q 607 64 632 90 q 549 21 583 39 q 473 -7 515 3 q 378 -17 431 -17 m 380 739 q 312 749 343 739 q 258 776 281 758 q 223 820 236 794 q 210 878 210 846 q 223 937 210 911 q 258 980 236 962 q 312 1008 281 998 q 380 1017 343 1017 q 448 1008 416 1017 q 501 980 479 998 q 536 937 524 962 q 549 878 549 911 q 536 820 549 846 q 501 776 524 794 q 448 749 479 758 q 380 739 416 739 m 380 941 q 331 925 351 941 q 311 878 311 909 q 331 832 311 848 q 380 816 351 816 q 429 832 409 816 q 448 878 448 848 q 429 925 448 909 q 380 941 409 941 m 109 657 z "},"ű":{"ha":757,"x_min":81,"x_max":675,"o":"m 378 -17 q 214 17 279 -17 q 116 107 149 50 q 90 174 98 138 q 81 256 81 211 l 81 657 l 242 657 l 242 273 q 247 215 242 239 q 261 174 252 191 q 307 129 277 144 q 378 115 337 115 q 453 131 422 115 q 499 180 484 147 q 515 269 515 212 l 515 657 l 675 657 l 675 256 q 648 121 675 176 q 607 64 632 90 q 549 21 583 39 q 473 -7 515 3 q 378 -17 431 -17 m 442 999 l 330 762 l 205 762 l 286 999 l 442 999 m 665 999 l 538 762 l 409 762 l 505 999 l 665 999 m 160 657 z "},"ų":{"ha":757,"x_min":81,"x_max":675,"o":"m 437 -6 q 404 -13 424 -10 q 357 -16 385 -16 q 213 17 277 -16 q 116 107 149 50 q 90 174 98 138 q 81 256 81 211 l 81 657 l 242 657 l 242 273 q 247 215 242 239 q 261 174 252 191 q 307 129 277 144 q 378 115 337 115 q 453 131 422 115 q 499 180 484 147 q 515 269 515 212 l 515 657 l 675 657 l 675 256 q 669 184 675 216 q 650 124 662 152 q 621 72 637 96 q 584 25 604 47 q 536 -27 559 -3 q 494 -76 513 -52 q 464 -125 475 -100 q 452 -175 452 -150 q 468 -210 452 -199 q 511 -220 484 -220 q 593 -205 550 -220 l 593 -315 q 543 -327 573 -321 q 479 -332 513 -332 q 415 -325 444 -332 q 363 -301 385 -317 q 329 -261 342 -285 q 317 -204 317 -237 q 348 -104 317 -151 q 438 -9 378 -56 l 437 -6 z "},"ẁ":{"ha":1040,"x_min":7,"x_max":1034,"o":"m 519 479 q 474 288 500 380 l 395 0 l 237 0 l 7 657 l 176 657 l 261 382 q 313 197 290 286 l 315 197 q 361 382 334 283 l 436 657 l 606 657 l 680 382 q 725 197 703 294 l 728 197 q 779 382 751 288 l 864 657 l 1034 657 l 804 0 l 646 0 l 566 288 q 522 479 539 385 l 519 479 m 510 999 l 591 762 l 466 762 l 354 999 l 510 999 m 199 657 z "},"ẃ":{"ha":1040,"x_min":7,"x_max":1034,"o":"m 519 479 q 474 288 500 380 l 395 0 l 237 0 l 7 657 l 176 657 l 261 382 q 313 197 290 286 l 315 197 q 361 382 334 283 l 436 657 l 606 657 l 680 382 q 725 197 703 294 l 728 197 q 779 382 751 288 l 864 657 l 1034 657 l 804 0 l 646 0 l 566 288 q 522 479 539 385 l 519 479 m 688 999 l 576 762 l 451 762 l 532 999 l 688 999 m 289 656 z "},"ŵ":{"ha":1040,"x_min":7,"x_max":1034,"o":"m 519 479 q 474 288 500 380 l 395 0 l 237 0 l 7 657 l 176 657 l 261 382 q 313 197 290 286 l 315 197 q 361 382 334 283 l 436 657 l 606 657 l 680 382 q 725 197 703 294 l 728 197 q 779 382 751 288 l 864 657 l 1034 657 l 804 0 l 646 0 l 566 288 q 522 479 539 385 l 519 479 m 450 999 l 590 999 l 732 762 l 607 762 l 522 906 l 519 906 l 433 762 l 308 762 l 450 999 m 249 657 z "},"ẅ":{"ha":1040,"x_min":7,"x_max":1034,"o":"m 519 479 q 474 288 500 380 l 395 0 l 237 0 l 7 657 l 176 657 l 261 382 q 313 197 290 286 l 315 197 q 361 382 334 283 l 436 657 l 606 657 l 680 382 q 725 197 703 294 l 728 197 q 779 382 751 288 l 864 657 l 1034 657 l 804 0 l 646 0 l 566 288 q 522 479 539 385 l 519 479 m 307 958 l 455 958 l 455 808 l 307 808 l 307 958 m 585 958 l 733 958 l 733 808 l 585 808 l 585 958 m 249 657 z "},"ỳ":{"ha":713,"x_min":7,"x_max":707,"o":"m 7 657 l 179 657 l 277 419 q 356 218 333 283 l 359 218 q 431 407 376 269 l 532 657 l 707 657 l 283 -315 l 125 -315 l 275 37 l 7 657 m 354 999 l 435 762 l 310 762 l 198 999 l 354 999 m 43 657 z "},"ý":{"ha":713,"x_min":7,"x_max":707,"o":"m 7 657 l 179 657 l 277 419 q 356 218 333 283 l 359 218 q 431 407 376 269 l 532 657 l 707 657 l 283 -315 l 125 -315 l 275 37 l 7 657 m 532 999 l 420 762 l 296 762 l 376 999 l 532 999 m 134 656 z "},"ŷ":{"ha":713,"x_min":7,"x_max":707,"o":"m 7 657 l 179 657 l 277 419 q 356 218 333 283 l 359 218 q 431 407 376 269 l 532 657 l 707 657 l 283 -315 l 125 -315 l 275 37 l 7 657 m 285 999 l 425 999 l 567 762 l 441 762 l 356 906 l 353 906 l 268 762 l 142 762 l 285 999 m 83 657 z "},"ÿ":{"ha":713,"x_min":7,"x_max":707,"o":"m 7 657 l 179 657 l 277 419 q 356 218 333 283 l 359 218 q 431 407 376 269 l 532 657 l 707 657 l 283 -315 l 125 -315 l 275 37 l 7 657 m 144 958 l 292 958 l 292 808 l 144 808 l 144 958 m 422 958 l 570 958 l 570 808 l 422 808 l 422 958 m 86 657 z "},"ź":{"ha":650,"x_min":44,"x_max":606,"o":"m 376 525 l 55 525 l 55 657 l 582 657 l 582 557 l 256 132 l 606 132 l 606 0 l 44 0 l 44 91 l 376 525 m 489 999 l 377 762 l 252 762 l 333 999 l 489 999 m 90 656 z "},"ž":{"ha":650,"x_min":44,"x_max":606,"o":"m 376 525 l 55 525 l 55 657 l 582 657 l 582 557 l 256 132 l 606 132 l 606 0 l 44 0 l 44 91 l 376 525 m 395 762 l 255 762 l 113 999 l 238 999 l 323 855 l 326 855 l 412 999 l 537 999 l 395 762 m 54 657 z "},"ż":{"ha":650,"x_min":44,"x_max":606,"o":"m 376 525 l 55 525 l 55 657 l 582 657 l 582 557 l 256 132 l 606 132 l 606 0 l 44 0 l 44 91 l 376 525 m 241 982 l 410 982 l 410 808 l 241 808 l 241 982 m 56 657 z "},"ŋ":{"ha":770,"x_min":88,"x_max":682,"o":"m 432 -280 q 404 -279 419 -280 q 377 -276 389 -278 l 377 -145 q 412 -149 394 -149 q 466 -141 445 -149 q 499 -118 487 -133 q 516 -81 511 -103 q 522 -30 522 -58 l 522 401 q 519 448 522 429 q 512 480 517 467 q 475 525 500 512 q 415 538 450 538 q 325 516 368 538 q 249 452 282 494 l 249 0 l 88 0 l 88 657 l 221 657 l 236 566 l 239 566 q 275 606 253 586 q 324 640 296 625 q 386 664 352 655 q 457 673 419 673 q 527 665 493 673 q 588 640 560 657 q 637 595 616 623 q 671 530 659 568 q 680 484 677 509 q 682 427 682 459 l 682 -43 q 622 -218 682 -157 q 432 -280 562 -280 z "},"ð":{"ha":757,"x_min":54,"x_max":699,"o":"m 637 831 l 527 801 q 594 701 563 754 q 649 591 625 648 q 686 473 672 534 q 699 349 699 412 q 676 193 699 261 q 611 78 653 124 q 509 7 568 31 q 376 -17 449 -17 q 242 6 302 -17 q 141 72 182 29 q 77 174 99 114 q 54 310 54 235 q 75 436 54 376 q 132 539 95 495 q 219 609 168 583 q 328 635 269 635 q 419 617 380 635 q 486 572 458 599 l 488 573 q 433 669 465 623 q 368 758 402 715 l 181 707 l 146 817 l 283 854 q 215 922 250 890 q 144 982 180 954 l 355 982 q 399 943 377 964 q 444 898 422 922 l 602 941 l 637 831 m 535 310 q 522 390 535 354 q 488 452 509 427 q 436 490 466 477 q 373 503 407 503 q 313 491 340 503 q 264 454 285 478 q 232 393 244 429 q 220 310 220 356 q 232 227 220 264 q 264 165 243 190 q 315 127 286 140 q 378 115 344 115 q 441 127 413 115 q 491 165 470 140 q 524 227 512 190 q 535 310 535 263 z "},"þ":{"ha":764,"x_min":88,"x_max":709,"o":"m 543 328 q 533 418 543 378 q 504 486 523 458 q 455 530 484 515 q 389 545 427 545 q 344 539 366 545 q 305 524 323 533 q 273 503 288 514 q 249 479 259 491 l 249 177 q 273 154 259 165 q 305 133 288 142 q 344 117 323 123 q 389 111 366 111 q 455 126 426 111 q 504 170 484 142 q 533 239 523 199 q 543 328 543 279 m 709 334 q 683 176 709 243 q 616 66 657 109 q 523 3 574 24 q 420 -17 471 -17 q 321 2 364 -17 q 250 50 278 22 l 247 50 q 248 12 248 37 q 249 -42 249 -13 l 249 -315 l 88 -315 l 88 982 l 249 982 l 249 699 q 248 645 249 669 q 247 606 248 620 l 250 606 q 321 654 278 635 q 420 673 363 673 q 523 653 471 673 q 616 592 574 633 q 683 485 657 550 q 709 334 709 420 z "},"ⁿ":{"ha":617,"x_min":68,"x_max":549,"o":"m 206 772 l 209 772 q 236 803 220 788 q 272 828 252 817 q 317 846 292 840 q 373 853 342 853 q 444 842 412 853 q 500 809 477 831 q 536 755 524 787 q 549 680 549 722 l 549 348 l 401 348 l 401 650 q 384 711 401 690 q 330 732 366 732 q 267 713 298 732 q 216 667 236 694 l 216 348 l 68 348 l 68 841 l 195 841 l 206 772 z "},"ﬀ":{"ha":871,"x_min":7,"x_max":916,"o":"m 534 657 l 534 735 q 553 854 534 804 q 607 936 572 904 q 688 984 642 968 q 790 999 735 999 q 860 993 827 999 q 916 979 893 987 l 916 852 q 865 862 894 857 q 808 867 837 867 q 760 861 781 867 q 724 839 739 854 q 702 801 709 825 q 694 743 694 777 l 694 657 l 877 657 l 877 525 l 694 525 l 694 0 l 534 0 l 534 525 l 279 525 l 279 0 l 118 0 l 118 525 l 7 525 l 7 657 l 118 657 l 118 742 q 136 857 118 808 q 188 937 155 905 q 266 984 220 968 q 366 999 311 999 q 429 994 399 999 q 479 982 458 989 l 479 854 q 434 864 458 860 q 388 867 411 867 q 339 861 359 867 q 305 839 319 854 q 285 800 292 824 q 279 743 279 777 l 279 657 l 534 657 z "},"ﬁ":{"ha":787,"x_min":7,"x_max":694,"o":"m 534 525 l 279 525 l 279 0 l 118 0 l 118 525 l 7 525 l 7 657 l 118 657 l 118 718 q 144 847 118 793 q 214 934 171 900 q 314 983 258 968 q 429 999 370 999 q 521 992 477 999 q 603 977 566 986 l 603 849 q 530 862 569 857 q 450 867 491 867 q 386 860 416 867 q 331 837 355 853 q 293 791 307 820 q 279 720 279 763 l 279 657 l 694 657 l 694 0 l 534 0 l 534 525 z "},"ﬃ":{"ha":1202,"x_min":7,"x_max":1110,"o":"m 949 525 l 694 525 l 694 0 l 534 0 l 534 525 l 279 525 l 279 0 l 118 0 l 118 525 l 7 525 l 7 657 l 118 657 l 118 742 q 136 857 118 808 q 188 937 155 905 q 266 984 220 968 q 366 999 311 999 q 428 994 399 999 q 479 982 457 989 l 479 854 q 434 864 458 860 q 388 867 411 867 q 339 861 359 867 q 305 839 319 854 q 285 800 292 824 q 279 743 279 777 l 279 657 l 534 657 l 534 717 q 560 846 534 793 q 630 934 587 900 q 729 983 673 968 q 844 999 785 999 q 937 992 892 999 q 1019 977 981 986 l 1019 849 q 944 862 983 857 q 865 867 905 867 q 801 860 832 867 q 747 837 770 853 q 709 791 723 820 q 694 720 694 763 l 694 657 l 1110 657 l 1110 0 l 949 0 l 949 525 z "},"ﬂ":{"ha":789,"x_min":7,"x_max":694,"o":"m 450 867 q 386 860 417 867 q 332 837 355 853 q 293 791 308 820 q 279 720 279 763 l 279 657 l 441 657 l 441 525 l 279 525 l 279 0 l 118 0 l 118 525 l 7 525 l 7 657 l 118 657 l 118 718 q 145 847 118 793 q 216 934 172 900 q 319 983 261 968 q 437 999 376 999 q 575 988 505 999 q 694 962 645 977 l 694 0 l 534 0 l 534 857 q 450 867 494 867 z "},"ﬄ":{"ha":1205,"x_min":7,"x_max":1110,"o":"m 279 657 l 534 657 l 534 718 q 561 847 534 793 q 632 934 587 900 q 734 983 677 968 q 853 999 792 999 q 986 988 918 999 q 1110 962 1054 978 l 1110 0 l 949 0 l 949 857 q 865 867 909 867 q 802 860 833 867 q 747 837 771 853 q 709 791 724 820 q 694 720 694 763 l 694 657 l 857 657 l 857 525 l 694 525 l 694 0 l 534 0 l 534 525 l 279 525 l 279 0 l 118 0 l 118 525 l 7 525 l 7 657 l 118 657 l 118 742 q 136 857 118 808 q 188 937 155 905 q 266 984 220 968 q 366 999 311 999 q 428 994 399 999 q 479 982 456 989 l 479 854 q 434 864 458 860 q 388 867 410 867 q 339 861 359 867 q 305 839 319 854 q 285 800 292 824 q 279 743 279 777 l 279 657 z "},"&":{"ha":961,"x_min":61,"x_max":927,"o":"m 860 484 q 822 317 850 391 q 749 184 793 242 q 814 117 784 149 q 869 60 845 85 q 908 19 893 35 q 927 0 924 3 l 698 0 q 672 31 686 15 q 634 73 658 47 q 493 5 568 27 q 340 -17 418 -17 q 227 0 278 -17 q 138 49 175 18 q 81 126 102 81 q 61 226 61 171 q 76 310 61 273 q 115 378 90 348 q 171 434 139 409 q 237 479 203 458 q 190 530 212 505 q 151 582 168 555 q 126 639 135 609 q 117 705 117 669 q 135 797 117 756 q 188 866 153 838 q 272 909 222 895 q 385 924 322 924 q 498 911 448 924 q 584 870 549 897 q 637 804 618 844 q 656 712 656 764 q 642 629 656 666 q 604 562 628 592 q 547 508 579 532 q 481 462 515 484 q 557 384 514 428 q 647 291 600 340 q 684 378 669 330 q 703 484 699 427 l 860 484 m 355 115 q 449 129 402 115 q 539 173 496 143 q 487 227 513 199 q 435 280 460 254 q 384 331 409 307 q 338 378 359 356 q 294 347 314 363 q 259 313 273 331 q 236 273 244 294 q 227 228 227 252 q 237 178 227 199 q 265 143 248 157 q 306 122 282 129 q 355 115 329 115 m 283 708 q 289 670 283 688 q 308 635 296 652 q 339 600 321 618 q 379 562 357 583 q 423 592 403 576 q 458 625 444 608 q 482 663 473 643 q 490 706 490 683 q 463 769 490 745 q 387 793 436 793 q 342 786 361 793 q 310 768 323 779 q 290 741 296 756 q 283 708 283 726 z "},"`":{"ha":543,"x_min":0,"x_max":391,"o":"m 311 999 l 391 762 l 267 762 l 155 999 l 311 999 m 0 657 z "},"̀":{"ha":0,"x_min":-628,"x_max":-237,"o":"m -317 999 l -237 762 l -361 762 l -473 999 l -317 999 m -628 657 z "},"´":{"ha":543,"x_min":0,"x_max":399,"o":"m 399 999 l 287 762 l 162 762 l 243 999 l 399 999 m 0 656 z "},"́":{"ha":543,"x_min":-542,"x_max":-143,"o":"m -143 999 l -255 762 l -380 762 l -299 999 l -143 999 m -542 656 z "},"ˆ":{"ha":543,"x_min":0,"x_max":484,"o":"m 201 999 l 341 999 l 484 762 l 358 762 l 273 906 l 270 906 l 184 762 l 59 762 l 201 999 m 0 657 z "},"̂":{"ha":0,"x_min":-582,"x_max":-98,"o":"m -380 999 l -241 999 l -98 762 l -224 762 l -309 906 l -312 906 l -397 762 l -523 762 l -380 999 m -582 657 z "},"ˇ":{"ha":543,"x_min":0,"x_max":484,"o":"m 341 762 l 201 762 l 59 999 l 184 999 l 270 855 l 273 855 l 358 999 l 484 999 l 341 762 m 0 657 z "},"̌":{"ha":0,"x_min":-589,"x_max":-106,"o":"m -248 762 l -388 762 l -530 999 l -405 999 l -319 855 l -317 855 l -231 999 l -106 999 l -248 762 m -589 657 z "},"̕":{"ha":129,"x_min":-29,"x_max":149,"o":"m 24 825 q 9 857 24 847 q -29 867 -5 867 l -29 981 q -6 982 -17 982 q 107 950 66 982 q 149 860 149 919 q 136 790 149 825 q 98 723 122 755 l -23 723 q 11 777 -3 750 q 24 825 24 804 m 0 657 z "},"˜":{"ha":543,"x_min":0,"x_max":465,"o":"m 143 954 q 196 944 171 954 q 243 924 221 935 q 288 901 267 911 q 323 891 308 891 q 350 904 342 891 q 358 948 358 917 l 465 948 q 465 923 465 939 q 460 876 465 903 q 439 827 454 848 q 400 794 425 806 q 344 782 376 782 q 292 791 317 782 q 243 812 267 800 q 197 835 218 825 q 163 844 177 844 q 137 831 144 844 q 129 787 129 819 l 22 787 q 22 805 22 801 q 27 860 22 834 q 47 907 32 885 q 86 941 62 929 q 143 954 111 954 m 0 657 z "},"̃":{"ha":0,"x_min":-553,"x_max":-87,"o":"m -410 954 q -357 944 -382 954 q -309 924 -332 935 q -265 901 -286 911 q -229 891 -245 891 q -202 904 -210 891 q -195 948 -195 917 l -88 948 q -87 923 -87 939 q -93 876 -87 903 q -113 827 -98 848 q -152 794 -128 806 q -209 782 -176 782 q -261 791 -235 782 q -310 812 -286 800 q -355 835 -335 825 q -389 844 -376 844 q -416 831 -408 844 q -424 787 -424 819 l -530 787 q -531 805 -531 801 q -526 860 -531 834 q -506 907 -521 885 q -466 941 -490 929 q -410 954 -442 954 m -553 657 z "},"¨":{"ha":543,"x_min":0,"x_max":484,"o":"m 58 958 l 206 958 l 206 808 l 58 808 l 58 958 m 336 958 l 484 958 l 484 808 l 336 808 l 336 958 m 0 657 z "},"̈":{"ha":0,"x_min":-581,"x_max":-96,"o":"m -522 958 l -374 958 l -374 808 l -522 808 l -522 958 m -244 958 l -96 958 l -96 808 l -244 808 l -244 958 m -581 657 z "},"¯":{"ha":543,"x_min":0,"x_max":461,"o":"m 81 907 l 461 907 l 461 794 l 81 794 l 81 907 m 0 657 z "},"̄":{"ha":0,"x_min":-583,"x_max":-122,"o":"m -502 907 l -122 907 l -122 794 l -502 794 l -502 907 m -583 657 z "},"˘":{"ha":543,"x_min":0,"x_max":503,"o":"m 271 852 q 335 880 311 852 q 365 968 359 908 l 503 968 q 485 876 500 918 q 441 804 470 834 q 370 756 412 773 q 271 739 328 739 q 173 756 216 739 q 101 804 130 773 q 57 876 73 834 q 40 968 42 918 l 178 968 q 207 880 183 908 q 271 852 231 852 m 0 657 z "},"̆":{"ha":0,"x_min":-572,"x_max":-69,"o":"m -300 852 q -236 880 -260 852 q -207 968 -212 908 l -69 968 q -86 876 -71 918 q -131 804 -102 834 q -202 756 -159 773 q -300 739 -244 739 q -399 756 -356 739 q -470 804 -441 773 q -514 876 -499 834 q -532 968 -530 918 l -394 968 q -365 880 -389 908 q -300 852 -340 852 m -572 657 z "},"˚":{"ha":543,"x_min":0,"x_max":441,"o":"m 271 739 q 203 749 235 739 q 150 776 172 758 q 115 820 127 794 q 102 878 102 846 q 115 937 102 911 q 150 980 127 962 q 203 1008 172 998 q 271 1017 235 1017 q 339 1008 308 1017 q 393 980 370 998 q 428 937 415 962 q 441 878 441 911 q 428 820 441 846 q 393 776 415 794 q 339 749 370 758 q 271 739 308 739 m 271 941 q 222 925 242 941 q 203 878 203 909 q 222 832 203 848 q 271 816 242 816 q 320 832 300 816 q 340 878 340 848 q 320 925 340 909 q 271 941 300 941 m 0 657 z "},"̊":{"ha":0,"x_min":-591,"x_max":-150,"o":"m -319 739 q -387 749 -356 739 q -441 776 -418 758 q -476 820 -463 794 q -489 878 -489 846 q -476 937 -489 911 q -441 980 -463 962 q -387 1008 -418 998 q -319 1017 -356 1017 q -252 1008 -283 1017 q -198 980 -220 998 q -163 937 -176 962 q -150 878 -150 911 q -163 820 -150 846 q -198 776 -176 794 q -252 749 -220 758 q -319 739 -283 739 m -319 941 q -368 925 -349 941 q -388 878 -388 909 q -368 832 -388 848 q -319 816 -349 816 q -271 832 -290 816 q -251 878 -251 848 q -271 925 -251 909 q -319 941 -290 941 m -591 657 z "},"˝":{"ha":543,"x_min":0,"x_max":505,"o":"m 282 999 l 170 762 l 45 762 l 126 999 l 282 999 m 505 999 l 378 762 l 249 762 l 345 999 l 505 999 m 0 657 z "},"̋":{"ha":0,"x_min":-559,"x_max":-54,"o":"m -277 999 l -389 762 l -513 762 l -433 999 l -277 999 m -54 999 l -181 762 l -310 762 l -214 999 l -54 999 m -559 657 z "},"˙":{"ha":543,"x_min":0,"x_max":355,"o":"m 186 982 l 355 982 l 355 808 l 186 808 l 186 982 m 0 657 z "},"̇":{"ha":0,"x_min":-593,"x_max":-239,"o":"m -408 982 l -239 982 l -239 808 l -408 808 l -408 982 m -593 657 z "},"¸":{"ha":543,"x_min":125,"x_max":430,"o":"m 226 6 l 328 6 l 304 -80 q 354 -93 331 -84 q 394 -117 377 -102 q 420 -151 411 -132 q 430 -194 430 -170 q 417 -248 430 -222 q 377 -292 404 -273 q 311 -321 351 -311 q 220 -332 272 -332 q 165 -329 191 -332 q 125 -319 139 -325 l 125 -220 q 166 -229 141 -226 q 213 -232 192 -232 q 257 -228 239 -232 q 284 -217 274 -224 q 298 -203 294 -211 q 302 -189 302 -196 q 273 -157 302 -168 q 180 -146 243 -147 l 226 6 z "},"̧":{"ha":0,"x_min":-403,"x_max":-98,"o":"m -302 6 l -200 6 l -224 -80 q -174 -93 -197 -84 q -134 -117 -151 -102 q -107 -151 -117 -132 q -98 -194 -98 -170 q -111 -248 -98 -222 q -151 -292 -124 -273 q -216 -321 -177 -311 q -308 -332 -256 -332 q -362 -329 -336 -332 q -403 -319 -389 -325 l -403 -220 q -361 -229 -387 -226 q -315 -232 -336 -232 q -271 -228 -288 -232 q -243 -217 -254 -224 q -229 -203 -233 -211 q -225 -189 -225 -196 q -255 -157 -225 -168 q -347 -146 -284 -147 l -302 6 z "},"˛":{"ha":543,"x_min":138,"x_max":433,"o":"m 433 20 q 373 -27 402 -3 q 322 -78 345 -52 q 287 -127 300 -103 q 273 -173 273 -152 q 290 -210 273 -199 q 329 -220 307 -220 q 414 -205 371 -220 l 414 -315 q 365 -327 394 -321 q 300 -332 336 -332 q 236 -325 265 -332 q 184 -301 206 -317 q 150 -261 163 -285 q 138 -204 138 -237 q 178 -89 138 -146 q 288 20 218 -32 l 433 20 z "},"̨":{"ha":0,"x_min":-361,"x_max":-66,"o":"m -66 20 q -126 -27 -97 -3 q -177 -78 -155 -52 q -213 -127 -199 -103 q -226 -173 -226 -152 q -209 -210 -226 -199 q -170 -220 -193 -220 q -85 -205 -128 -220 l -85 -315 q -134 -327 -105 -321 q -199 -332 -163 -332 q -263 -325 -234 -332 q -315 -301 -293 -317 q -349 -261 -336 -285 q -361 -204 -361 -237 q -321 -89 -361 -146 q -211 20 -281 -32 l -66 20 z "},"̦":{"ha":543,"x_min":205,"x_max":383,"o":"m 258 -230 q 243 -198 258 -208 q 205 -189 229 -189 l 205 -74 q 229 -73 217 -73 q 341 -105 299 -73 q 383 -199 383 -137 q 370 -267 383 -232 q 332 -332 356 -302 l 211 -332 q 245 -278 231 -304 q 258 -230 258 -252 z "},"̒":{"ha":0,"x_min":-492,"x_max":0,"o":"m -367 897 q -352 865 -367 875 q -313 855 -337 855 l -313 741 q -333 740 -323 740 q -449 771 -406 740 q -492 862 -492 802 q -478 932 -492 897 q -441 999 -465 967 l -319 999 q -353 944 -339 970 q -367 897 -367 918 m 0 657 z "},",":{"ha":440,"x_min":7,"x_max":325,"o":"m 137 181 l 325 181 l 178 -279 l 7 -279 l 137 181 z "},";":{"ha":440,"x_min":7,"x_max":325,"o":"m 137 181 l 325 181 l 178 -279 l 7 -279 l 137 181 m 131 610 l 313 610 l 313 429 l 131 429 l 131 610 z "},":":{"ha":406,"x_min":112,"x_max":294,"o":"m 112 181 l 294 181 l 294 0 l 112 0 l 112 181 m 112 610 l 294 610 l 294 429 l 112 429 l 112 610 z "},".":{"ha":406,"x_min":112,"x_max":294,"o":"m 112 181 l 294 181 l 294 0 l 112 0 l 112 181 z "},"…":{"ha":1219,"x_min":112,"x_max":1107,"o":"m 112 181 l 294 181 l 294 0 l 112 0 l 112 181 m 518 181 l 701 181 l 701 0 l 518 0 l 518 181 m 924 181 l 1107 181 l 1107 0 l 924 0 l 924 181 z "},"-":{"ha":462,"x_min":81,"x_max":380,"o":"m 81 412 l 380 412 l 380 267 l 81 267 l 81 412 z "},"!":{"ha":406,"x_min":112,"x_max":294,"o":"m 293 907 l 277 326 l 130 326 l 113 907 l 293 907 m 112 181 l 294 181 l 294 0 l 112 0 l 112 181 z "},"¡":{"ha":406,"x_min":112,"x_max":294,"o":"m 113 -262 l 130 332 l 277 332 l 293 -262 l 113 -262 m 112 657 l 294 657 l 294 476 l 112 476 l 112 657 z "},"?":{"ha":624,"x_min":68,"x_max":563,"o":"m 563 696 q 554 626 563 656 q 530 575 545 597 q 496 536 515 553 q 456 506 477 520 q 408 475 432 490 q 366 441 385 460 q 335 397 347 422 q 323 336 323 372 l 323 326 l 172 326 q 171 341 171 332 q 170 355 170 350 q 183 441 170 406 q 217 501 197 476 q 263 544 238 526 q 313 578 288 562 q 345 601 330 589 q 372 625 360 612 q 390 655 383 639 q 397 692 397 671 q 363 765 397 738 q 260 793 330 793 q 157 780 208 793 q 68 749 106 767 l 68 880 q 114 898 88 890 q 166 912 139 906 q 223 921 194 918 q 279 924 252 924 q 399 908 346 924 q 488 863 452 892 q 544 790 524 833 q 563 696 563 748 m 159 181 l 342 181 l 342 0 l 159 0 l 159 181 z "},"¿":{"ha":624,"x_min":60,"x_max":555,"o":"m 464 476 l 281 476 l 281 657 l 464 657 l 464 476 m 60 -60 q 72 17 60 -16 q 101 74 83 50 q 142 117 119 98 q 188 153 165 136 q 230 185 210 169 q 266 220 250 201 q 291 264 281 239 q 300 321 300 288 l 300 332 l 452 332 q 453 316 452 326 q 453 302 453 307 q 444 229 453 260 q 419 172 435 197 q 385 130 404 148 q 345 96 365 111 q 301 65 323 79 q 263 34 280 50 q 237 -2 247 18 q 227 -48 227 -22 q 260 -121 227 -94 q 363 -149 293 -149 q 466 -136 416 -149 q 555 -105 517 -123 l 555 -236 q 510 -254 535 -245 q 457 -268 484 -262 q 400 -277 429 -273 q 345 -280 372 -280 q 224 -265 277 -280 q 135 -222 172 -250 q 80 -153 99 -194 q 60 -60 60 -113 z "},"‘":{"ha":337,"x_min":20,"x_max":296,"o":"m 20 907 l 165 907 l 296 534 l 124 534 l 20 907 z "},"’":{"ha":337,"x_min":41,"x_max":317,"o":"m 144 907 l 317 907 l 185 534 l 41 534 l 144 907 z "},"“":{"ha":632,"x_min":20,"x_max":591,"o":"m 20 907 l 165 907 l 296 534 l 124 534 l 20 907 m 294 907 l 444 907 l 591 534 l 414 534 l 294 907 z "},"”":{"ha":632,"x_min":41,"x_max":612,"o":"m 144 907 l 317 907 l 185 534 l 41 534 l 144 907 m 434 907 l 612 907 l 465 534 l 315 534 l 434 907 z "},"‚":{"ha":337,"x_min":23,"x_max":299,"o":"m 127 171 l 299 171 l 168 -203 l 23 -203 l 127 171 z "},"„":{"ha":632,"x_min":23,"x_max":594,"o":"m 127 171 l 299 171 l 168 -203 l 23 -203 l 127 171 m 416 171 l 594 171 l 447 -203 l 297 -203 l 416 171 z "},"‹":{"ha":414,"x_min":51,"x_max":356,"o":"m 51 321 l 218 583 l 356 583 l 221 321 l 356 60 l 218 60 l 51 321 z "},"›":{"ha":414,"x_min":58,"x_max":363,"o":"m 195 60 l 58 60 l 193 321 l 58 583 l 195 583 l 363 321 l 195 60 z "},"«":{"ha":713,"x_min":51,"x_max":656,"o":"m 51 321 l 245 583 l 382 583 l 221 321 l 382 60 l 245 60 l 51 321 m 351 321 l 518 583 l 656 583 l 521 321 l 656 60 l 518 60 l 351 321 z "},"»":{"ha":713,"x_min":58,"x_max":663,"o":"m 469 60 l 331 60 l 492 321 l 331 583 l 469 583 l 663 321 l 469 60 m 195 60 l 58 60 l 193 321 l 58 583 l 195 583 l 363 321 l 195 60 z "},"/":{"ha":409,"x_min":5,"x_max":404,"o":"m 5 -169 l 263 907 l 404 907 l 146 -169 l 5 -169 z "},"|":{"ha":329,"x_min":95,"x_max":234,"o":"m 234 -315 l 95 -315 l 95 982 l 234 982 l 234 -315 z "},"–":{"ha":678,"x_min":0,"x_max":678,"o":"m 0 399 l 678 399 l 678 273 l 0 273 l 0 399 z "},"—":{"ha":1153,"x_min":0,"x_max":1153,"o":"m 0 399 l 1153 399 l 1153 273 l 0 273 l 0 399 z "},"―":{"ha":1153,"x_min":0,"x_max":1153,"o":"m 0 399 l 1153 399 l 1153 273 l 0 273 l 0 399 z "},"•":{"ha":616,"x_min":95,"x_max":521,"o":"m 95 452 q 111 537 95 498 q 156 604 127 576 q 223 649 184 633 q 308 665 262 665 q 392 649 353 665 q 460 604 431 633 q 505 537 488 576 q 521 452 521 498 q 505 368 521 407 q 460 300 488 329 q 392 256 431 272 q 308 239 353 239 q 223 256 262 239 q 156 300 184 272 q 111 368 127 329 q 95 452 95 407 z "},"·":{"ha":406,"x_min":112,"x_max":294,"o":"m 112 424 l 294 424 l 294 243 l 112 243 l 112 424 z "},"(":{"ha":425,"x_min":68,"x_max":397,"o":"m 68 352 q 80 496 68 429 q 112 622 92 564 q 158 730 132 681 q 211 818 184 779 q 264 886 238 857 q 311 932 290 914 l 397 852 q 328 762 361 812 q 269 651 294 713 q 229 516 243 590 q 214 352 214 441 q 229 188 214 262 q 269 53 243 114 q 328 -58 294 -9 q 397 -148 361 -108 l 311 -228 q 264 -182 290 -210 q 211 -114 238 -153 q 158 -26 184 -75 q 112 82 132 23 q 80 208 92 140 q 68 352 68 276 z "},")":{"ha":425,"x_min":27,"x_max":357,"o":"m 357 352 q 345 208 357 276 q 312 82 332 140 q 267 -26 292 23 q 214 -114 241 -75 q 161 -182 186 -153 q 114 -228 135 -210 l 27 -148 q 97 -58 64 -108 q 156 53 130 -9 q 196 188 181 114 q 211 352 211 262 q 196 516 211 441 q 156 651 181 590 q 97 762 130 713 q 27 852 64 812 l 114 932 q 160 886 134 914 q 214 818 186 857 q 267 730 241 779 q 312 622 292 681 q 345 496 332 564 q 357 352 357 429 z "},"[":{"ha":438,"x_min":95,"x_max":397,"o":"m 95 907 l 397 907 l 397 790 l 234 790 l 234 -85 l 397 -85 l 397 -203 l 95 -203 l 95 907 z "},"]":{"ha":438,"x_min":41,"x_max":343,"o":"m 343 -203 l 41 -203 l 41 -85 l 204 -85 l 204 790 l 41 790 l 41 907 l 343 907 l 343 -203 z "},"{":{"ha":424,"x_min":54,"x_max":393,"o":"m 205 351 q 232 339 215 349 q 265 312 249 330 q 293 270 281 295 q 305 210 305 244 q 297 147 305 175 q 277 95 288 119 q 250 39 262 65 q 237 -14 237 12 q 272 -82 237 -62 q 374 -103 307 -103 l 393 -103 l 393 -220 l 354 -220 q 243 -207 292 -220 q 160 -169 194 -194 q 109 -109 127 -144 q 91 -29 91 -73 q 95 12 91 -7 q 107 48 100 31 q 123 82 114 66 q 140 115 132 98 q 162 163 153 138 q 172 217 172 188 q 165 256 172 240 q 145 280 159 271 q 109 293 131 290 q 54 297 86 297 l 54 407 q 109 411 86 407 q 145 424 131 414 q 165 448 159 433 q 172 487 172 464 q 160 547 172 519 q 133 604 148 576 q 104 664 117 633 q 91 733 91 695 q 109 813 91 777 q 160 873 127 848 q 243 911 194 898 q 354 924 292 924 l 393 924 l 393 807 l 374 807 q 271 786 304 807 q 237 718 237 765 q 244 677 237 697 q 263 636 252 658 q 278 606 271 622 q 292 573 286 591 q 301 536 298 556 q 305 494 305 517 q 293 434 305 460 q 265 392 281 409 q 232 365 249 374 q 205 353 215 355 l 205 351 z "},"}":{"ha":424,"x_min":31,"x_max":370,"o":"m 218 353 q 192 365 209 355 q 159 392 175 374 q 131 434 142 409 q 119 494 119 460 q 122 536 119 517 q 132 573 126 556 q 146 606 138 591 q 161 636 153 622 q 179 677 172 658 q 187 718 187 697 q 153 786 187 765 q 50 807 119 807 l 31 807 l 31 924 l 70 924 q 181 911 132 924 q 263 873 230 898 q 315 813 297 848 q 333 733 333 777 q 320 664 333 695 q 291 604 307 633 q 264 547 276 576 q 252 487 252 519 q 259 448 252 464 q 279 424 265 433 q 315 411 293 414 q 370 407 338 407 l 370 297 q 315 293 338 297 q 279 280 293 290 q 259 256 265 271 q 252 217 252 240 q 262 163 252 188 q 283 115 271 138 q 301 82 292 98 q 317 48 310 66 q 329 12 324 31 q 333 -29 333 -7 q 315 -109 333 -73 q 263 -169 297 -144 q 181 -207 230 -194 q 70 -220 132 -220 l 31 -220 l 31 -103 l 50 -103 q 152 -82 117 -103 q 187 -14 187 -62 q 174 39 187 12 q 147 95 161 65 q 127 147 136 119 q 119 210 119 175 q 131 270 119 244 q 159 312 142 295 q 192 339 175 330 q 218 351 209 349 l 218 353 z "},"*":{"ha":733,"x_min":68,"x_max":665,"o":"m 402 652 l 509 720 l 625 760 l 665 638 l 549 599 l 422 590 l 421 587 l 519 505 l 596 399 l 492 323 l 416 430 l 369 549 l 364 549 l 317 430 l 241 323 l 137 399 l 214 505 l 312 587 l 311 590 l 184 599 l 68 638 l 108 760 l 224 720 l 331 652 l 334 655 l 302 779 l 302 907 l 431 907 l 431 779 l 399 655 l 402 652 z "},"†":{"ha":659,"x_min":68,"x_max":591,"o":"m 393 779 l 362 655 l 365 652 l 477 683 l 591 683 l 591 563 l 477 563 l 365 593 l 362 591 l 393 467 l 363 87 l 295 87 l 265 467 l 296 591 l 294 593 l 181 563 l 68 563 l 68 683 l 181 683 l 294 652 l 296 655 l 265 779 l 265 907 l 393 907 l 393 779 z "},"‡":{"ha":659,"x_min":68,"x_max":591,"o":"m 393 440 l 362 317 l 365 314 l 477 345 l 591 345 l 591 224 l 477 224 l 365 255 l 362 252 l 393 129 l 393 0 l 265 0 l 265 129 l 296 252 l 294 255 l 181 224 l 68 224 l 68 345 l 181 345 l 294 314 l 296 317 l 265 440 l 265 467 l 296 591 l 294 593 l 181 563 l 68 563 l 68 683 l 181 683 l 294 652 l 296 655 l 265 779 l 265 907 l 393 907 l 393 779 l 362 655 l 365 652 l 477 683 l 591 683 l 591 563 l 477 563 l 365 593 l 362 591 l 393 467 l 393 440 z "},"§":{"ha":624,"x_min":61,"x_max":563,"o":"m 553 62 q 532 -77 553 -14 q 473 -185 512 -140 q 379 -255 435 -231 q 253 -280 323 -280 q 149 -270 199 -280 q 61 -244 98 -260 l 61 -109 q 146 -134 102 -124 q 227 -144 191 -144 q 302 -121 277 -144 q 328 -55 328 -97 q 314 8 328 -24 q 278 77 300 41 q 229 153 256 113 q 175 237 201 193 q 136 311 155 273 q 102 393 117 350 q 80 483 88 435 q 71 582 71 530 q 92 722 71 659 q 151 830 113 785 q 245 900 190 875 q 371 924 301 924 q 475 914 425 924 q 563 888 526 904 l 563 753 q 477 779 522 768 q 397 789 433 789 q 322 765 347 789 q 296 699 296 741 q 309 640 296 671 q 341 576 321 610 q 386 507 361 543 q 436 429 411 470 q 479 351 458 392 q 517 265 500 311 q 543 169 533 220 q 553 62 553 119 m 173 600 q 181 517 173 557 q 203 441 189 478 q 234 369 216 404 q 271 300 252 334 q 324 213 297 256 q 372 128 351 170 q 408 43 394 85 q 421 -44 421 0 q 417 -90 421 -67 l 427 -90 q 446 -27 440 -63 q 451 45 451 8 q 443 129 451 88 q 420 207 434 169 q 388 280 406 245 q 349 351 370 316 q 297 436 323 395 q 250 520 271 478 q 216 603 229 562 q 203 688 203 645 q 207 734 203 711 l 197 734 q 178 672 184 707 q 173 600 173 636 z "},"¶":{"ha":830,"x_min":64,"x_max":722,"o":"m 338 -262 l 338 218 q 226 260 276 230 q 140 334 176 290 q 84 435 104 378 q 64 559 64 492 q 91 700 64 636 q 164 810 117 764 q 276 882 211 857 q 431 907 341 907 l 722 907 l 722 -262 l 589 -262 l 589 781 l 470 781 l 470 -262 l 338 -262 z "},"Α":{"ha":913,"x_min":20,"x_max":892,"o":"m 628 231 l 286 231 l 197 0 l 20 0 l 380 907 l 532 907 l 892 0 l 717 0 l 628 231 m 456 689 q 371 451 408 547 l 340 370 l 574 370 l 543 451 q 458 689 506 547 l 456 689 z "},"Β":{"ha":865,"x_min":109,"x_max":804,"o":"m 766 666 q 739 558 766 607 q 652 476 713 509 l 652 473 q 714 444 686 462 q 762 401 742 426 q 793 345 782 376 q 804 275 804 314 q 794 204 804 242 q 757 131 783 166 q 686 65 730 95 q 575 18 642 35 q 538 10 558 14 q 494 4 518 7 q 439 1 469 2 q 372 0 410 0 l 109 0 l 109 907 l 424 907 q 587 887 525 907 q 667 848 633 872 q 723 794 701 824 q 755 732 745 765 q 766 666 766 699 m 275 395 l 275 139 l 383 139 q 458 141 427 139 q 511 149 489 144 q 569 169 546 157 q 606 198 592 182 q 627 233 621 214 q 633 274 633 252 q 612 340 633 312 q 546 383 591 369 q 500 392 526 389 q 432 395 473 395 l 275 395 m 425 534 q 526 547 492 534 q 579 590 563 563 q 595 652 595 618 q 576 716 595 688 q 514 758 558 745 q 471 766 496 764 q 411 768 447 768 l 275 768 l 275 534 l 425 534 z "},"Γ":{"ha":757,"x_min":109,"x_max":723,"o":"m 109 0 l 109 907 l 723 907 l 723 768 l 275 768 l 275 0 l 109 0 z "},"Δ":{"ha":894,"x_min":41,"x_max":853,"o":"m 41 108 l 369 907 l 525 907 l 853 108 l 853 0 l 41 0 l 41 108 m 446 695 q 357 458 406 581 l 230 139 l 665 139 l 538 458 q 449 695 489 581 l 446 695 z "},"Ε":{"ha":789,"x_min":109,"x_max":721,"o":"m 275 139 l 721 139 l 721 0 l 109 0 l 109 907 l 696 907 l 696 768 l 275 768 l 275 534 l 637 534 l 637 395 l 275 395 l 275 139 z "},"Ζ":{"ha":835,"x_min":61,"x_max":774,"o":"m 768 907 l 768 817 l 282 139 l 774 139 l 774 0 l 61 0 l 61 90 l 547 768 l 73 768 l 73 907 l 768 907 z "},"Η":{"ha":970,"x_min":109,"x_max":861,"o":"m 275 534 l 695 534 l 695 907 l 861 907 l 861 0 l 695 0 l 695 395 l 275 395 l 275 0 l 109 0 l 109 907 l 275 907 l 275 534 z "},"Θ":{"ha":1020,"x_min":68,"x_max":952,"o":"m 781 454 q 760 598 781 536 q 704 702 740 661 q 618 764 668 743 q 510 784 569 784 q 401 764 451 784 q 316 702 352 743 q 260 598 280 661 q 239 454 239 536 q 260 309 239 371 q 316 206 280 247 q 401 144 352 165 q 510 123 451 123 q 618 144 569 123 q 704 206 668 165 q 760 309 740 247 q 781 454 781 371 m 952 454 q 923 263 952 350 q 837 115 893 177 q 697 18 780 52 q 510 -17 615 -17 q 322 18 405 -17 q 183 115 240 52 q 97 263 127 177 q 68 454 68 350 q 97 644 68 557 q 183 793 127 730 q 322 890 240 855 q 510 924 405 924 q 697 890 615 924 q 837 793 780 855 q 923 644 893 730 q 952 454 952 557 m 321 534 l 699 534 l 699 395 l 321 395 l 321 534 z "},"Ι":{"ha":383,"x_min":109,"x_max":275,"o":"m 109 0 l 109 907 l 275 907 l 275 0 l 109 0 z "},"Κ":{"ha":878,"x_min":109,"x_max":857,"o":"m 109 0 l 109 907 l 275 907 l 275 494 l 277 494 l 620 907 l 826 907 l 448 458 l 857 0 l 644 0 l 277 410 l 275 410 l 275 0 l 109 0 z "},"Λ":{"ha":899,"x_min":20,"x_max":879,"o":"m 449 686 q 366 451 425 610 l 197 0 l 20 0 l 375 907 l 524 907 l 879 0 l 703 0 l 535 451 q 452 686 477 610 l 449 686 z "},"Μ":{"ha":1147,"x_min":109,"x_max":1039,"o":"m 575 243 q 649 473 605 351 l 806 907 l 1039 907 l 1039 0 l 873 0 l 873 460 q 881 694 873 561 l 875 694 q 848 608 863 656 q 815 513 832 559 l 627 0 l 520 0 l 332 513 q 300 608 315 559 q 273 694 284 656 l 267 694 q 275 460 275 569 l 275 0 l 109 0 l 109 907 l 340 907 l 497 475 q 571 243 536 368 l 575 243 z "},"Ν":{"ha":1010,"x_min":109,"x_max":902,"o":"m 581 486 q 740 239 679 347 l 744 239 q 736 496 736 416 l 736 907 l 902 907 l 902 0 l 728 0 l 432 418 q 271 669 354 526 l 267 669 q 275 411 275 503 l 275 0 l 109 0 l 109 907 l 283 907 l 581 486 z "},"Ξ":{"ha":828,"x_min":61,"x_max":767,"o":"m 85 907 l 743 907 l 743 768 l 85 768 l 85 907 m 133 534 l 695 534 l 695 395 l 133 395 l 133 534 m 61 139 l 767 139 l 767 0 l 61 0 l 61 139 z "},"Ο":{"ha":1020,"x_min":68,"x_max":952,"o":"m 781 454 q 760 598 781 536 q 704 702 740 661 q 618 764 668 743 q 510 784 569 784 q 401 764 451 784 q 316 702 352 743 q 260 598 280 661 q 239 454 239 536 q 260 309 239 371 q 316 206 280 247 q 401 144 352 165 q 510 123 451 123 q 618 144 569 123 q 704 206 668 165 q 760 309 740 247 q 781 454 781 371 m 952 454 q 923 263 952 350 q 837 115 893 177 q 697 18 780 52 q 510 -17 615 -17 q 322 18 405 -17 q 183 115 240 52 q 97 263 127 177 q 68 454 68 350 q 97 644 68 557 q 183 793 127 730 q 322 890 240 855 q 510 924 405 924 q 697 890 615 924 q 837 793 780 855 q 923 644 893 730 q 952 454 952 557 z "},"Π":{"ha":943,"x_min":109,"x_max":835,"o":"m 835 907 l 835 0 l 669 0 l 669 768 l 275 768 l 275 0 l 109 0 l 109 907 l 835 907 z "},"Ρ":{"ha":834,"x_min":109,"x_max":766,"o":"m 359 351 q 315 352 337 351 q 275 355 294 353 l 275 0 l 109 0 l 109 907 l 370 907 q 485 902 436 907 q 573 884 534 896 q 716 793 666 856 q 766 635 766 731 q 739 516 766 569 q 660 427 712 464 q 532 371 608 391 q 359 351 457 351 m 275 494 q 311 491 289 492 q 357 490 333 490 q 469 501 424 490 q 543 531 515 512 q 583 578 570 551 q 595 638 595 606 q 576 707 595 678 q 513 753 558 736 q 454 765 489 761 q 368 768 419 768 l 275 768 l 275 494 z "},"Σ":{"ha":837,"x_min":61,"x_max":769,"o":"m 610 484 l 372 231 q 275 137 305 161 l 275 134 q 447 139 378 139 l 769 139 l 769 0 l 61 0 l 61 108 l 416 481 l 93 800 l 93 907 l 764 907 l 764 768 l 476 768 q 317 772 394 768 l 317 770 q 412 682 357 738 l 610 484 z "},"Τ":{"ha":792,"x_min":20,"x_max":772,"o":"m 479 0 l 313 0 l 313 768 l 20 768 l 20 907 l 772 907 l 772 768 l 479 768 l 479 0 z "},"Υ":{"ha":865,"x_min":20,"x_max":844,"o":"m 433 476 q 513 674 461 568 q 650 907 566 781 l 844 907 q 717 732 770 812 q 627 583 664 652 q 569 454 591 513 q 535 342 547 395 q 519 243 523 290 q 515 151 515 196 l 515 0 l 349 0 l 349 151 q 346 243 349 196 q 330 342 342 290 q 296 454 318 395 q 237 583 274 513 q 148 732 201 652 q 20 907 94 812 l 215 907 q 351 674 299 781 q 431 476 404 568 l 433 476 z "},"Φ":{"ha":1095,"x_min":68,"x_max":1027,"o":"m 631 -52 l 465 -52 l 465 48 q 296 94 370 59 q 171 184 222 130 q 94 309 121 238 q 68 460 68 379 q 95 613 68 542 q 173 738 122 684 q 297 828 224 793 q 465 873 371 863 l 465 973 l 631 973 l 631 873 q 798 828 724 863 q 922 738 871 793 q 1000 613 973 684 q 1027 460 1027 542 q 1001 309 1027 379 q 924 184 975 238 q 800 94 873 130 q 631 48 726 59 l 631 -52 m 237 460 q 254 350 237 398 q 301 268 271 302 q 373 213 332 233 q 465 184 415 192 l 465 737 q 373 709 415 730 q 301 654 332 688 q 254 571 271 619 q 237 460 237 523 m 859 460 q 842 571 859 523 q 794 654 825 619 q 722 709 764 688 q 631 737 680 730 l 631 184 q 722 213 680 192 q 794 268 764 233 q 842 350 825 302 q 859 460 859 398 z "},"Χ":{"ha":883,"x_min":14,"x_max":869,"o":"m 348 721 q 440 584 414 625 l 444 584 q 535 720 480 641 l 665 907 l 856 907 l 540 461 l 869 0 l 681 0 l 539 203 q 443 344 487 277 l 440 344 q 344 203 394 275 l 202 0 l 14 0 l 343 461 l 27 907 l 218 907 l 348 721 z "},"Ψ":{"ha":1025,"x_min":68,"x_max":957,"o":"m 595 407 q 686 432 649 411 q 746 501 723 454 q 780 626 770 548 q 791 822 791 704 q 790 863 791 842 q 789 907 790 884 l 954 907 q 956 851 956 878 q 957 798 957 824 q 938 563 957 661 q 876 399 919 464 q 764 300 833 334 q 595 260 695 267 l 595 0 l 429 0 l 429 260 q 261 300 330 267 q 149 399 192 334 q 87 563 106 464 q 68 798 68 661 q 68 851 68 824 q 71 907 69 878 l 235 907 q 234 863 235 884 q 234 822 234 842 q 244 626 234 704 q 278 501 255 548 q 339 432 302 454 q 429 407 376 411 l 429 907 l 595 907 l 595 407 z "},"Ω":{"ha":1054,"x_min":81,"x_max":972,"o":"m 527 784 q 424 767 473 784 q 338 716 375 751 q 279 628 300 682 q 257 502 257 575 q 275 377 257 435 q 321 270 293 319 q 385 179 350 220 q 453 102 420 137 l 453 0 l 81 0 l 81 139 l 137 139 q 218 138 185 139 q 272 135 251 136 l 272 138 q 202 204 236 165 q 143 290 169 242 q 101 392 117 337 q 85 509 85 448 q 116 673 85 597 q 202 805 146 749 q 341 893 259 861 q 527 924 423 924 q 713 893 631 924 q 851 806 795 861 q 938 677 908 751 q 968 518 968 604 q 953 397 968 454 q 912 293 938 341 q 853 207 887 245 q 782 138 819 168 l 782 135 q 836 138 803 136 q 917 139 869 139 l 972 139 l 972 0 l 601 0 l 601 102 q 669 179 635 137 q 732 270 704 220 q 779 377 761 319 q 797 502 797 435 q 775 628 797 575 q 716 716 753 682 q 630 767 679 751 q 527 784 581 784 z "},"Ά":{"ha":913,"x_min":20,"x_max":892,"o":"m 245 907 l 173 650 l 36 650 l 95 907 l 245 907 m 628 231 l 286 231 l 197 0 l 20 0 l 380 907 l 532 907 l 892 0 l 717 0 l 628 231 m 456 689 q 371 451 408 547 l 340 370 l 574 370 l 543 451 q 458 689 506 547 l 456 689 z "},"Έ":{"ha":946,"x_min":0,"x_max":878,"o":"m 209 907 l 137 650 l 0 650 l 59 907 l 209 907 m 432 139 l 878 139 l 878 0 l 266 0 l 266 907 l 854 907 l 854 768 l 432 768 l 432 534 l 794 534 l 794 395 l 432 395 l 432 139 z "},"Ή":{"ha":1127,"x_min":0,"x_max":1019,"o":"m 209 907 l 137 650 l 0 650 l 59 907 l 209 907 m 432 534 l 852 534 l 852 907 l 1019 907 l 1019 0 l 852 0 l 852 395 l 432 395 l 432 0 l 266 0 l 266 907 l 432 907 l 432 534 z "},"Ί":{"ha":541,"x_min":0,"x_max":432,"o":"m 209 907 l 137 650 l 0 650 l 59 907 l 209 907 m 266 0 l 266 907 l 432 907 l 432 0 l 266 0 z "},"Ϊ":{"ha":383,"x_min":-64,"x_max":422,"o":"m 109 0 l 109 907 l 275 907 l 275 0 l 109 0 m -9 1135 l 143 1135 l 143 982 l -9 982 l -9 1135 m 271 1135 l 422 1135 l 422 982 l 271 982 l 271 1135 m -64 907 z "},"Ό":{"ha":1154,"x_min":0,"x_max":1086,"o":"m 209 907 l 137 650 l 0 650 l 59 907 l 209 907 m 914 454 q 894 598 914 536 q 838 702 873 661 q 752 764 802 743 q 644 784 703 784 q 535 764 585 784 q 450 702 486 743 q 393 598 414 661 q 373 454 373 536 q 393 309 373 371 q 450 206 414 247 q 535 144 486 165 q 644 123 585 123 q 752 144 703 123 q 838 206 802 165 q 894 309 873 247 q 914 454 914 371 m 1086 454 q 1056 263 1086 350 q 970 115 1027 177 q 831 18 913 52 q 644 -17 749 -17 q 456 18 538 -17 q 317 115 374 52 q 231 263 260 177 q 201 454 201 350 q 231 644 201 557 q 317 793 260 730 q 456 890 374 855 q 644 924 538 924 q 831 890 749 924 q 970 793 913 855 q 1056 644 1027 730 q 1086 454 1086 557 z "},"Ύ":{"ha":1082,"x_min":0,"x_max":1062,"o":"m 209 907 l 137 650 l 0 650 l 59 907 l 209 907 m 651 476 q 731 674 679 568 q 867 907 783 781 l 1062 907 q 935 732 988 812 q 845 583 882 652 q 786 454 808 513 q 752 342 764 395 q 737 243 741 290 q 733 151 733 196 l 733 0 l 567 0 l 567 151 q 563 243 567 196 q 548 342 559 290 q 514 454 536 395 q 455 583 492 513 q 365 732 418 652 q 238 907 312 812 l 433 907 q 569 674 517 781 q 648 476 621 568 l 651 476 z "},"Ϋ":{"ha":865,"x_min":20,"x_max":844,"o":"m 433 476 q 513 674 461 568 q 650 907 566 781 l 844 907 q 717 732 770 812 q 627 583 664 652 q 569 454 591 513 q 535 342 547 395 q 519 243 523 290 q 515 151 515 196 l 515 0 l 349 0 l 349 151 q 346 243 349 196 q 330 342 342 290 q 296 454 318 395 q 237 583 274 513 q 148 732 201 652 q 20 907 94 812 l 215 907 q 351 674 299 781 q 431 476 404 568 l 433 476 m 227 1135 l 379 1135 l 379 982 l 227 982 l 227 1135 m 507 1135 l 659 1135 l 659 982 l 507 982 l 507 1135 m 172 907 z "},"Ώ":{"ha":1181,"x_min":0,"x_max":1099,"o":"m 209 907 l 137 650 l 0 650 l 59 907 l 209 907 m 654 784 q 551 767 600 784 q 465 716 502 751 q 406 628 427 682 q 384 502 384 575 q 402 377 384 435 q 448 270 420 319 q 512 179 477 220 q 580 102 547 137 l 580 0 l 208 0 l 208 139 l 264 139 q 345 138 312 139 q 399 135 378 136 l 399 138 q 329 204 363 165 q 270 290 296 242 q 228 392 243 337 q 212 509 212 448 q 242 673 212 597 q 329 805 273 749 q 468 893 386 861 q 654 924 550 924 q 840 893 758 924 q 978 806 922 861 q 1065 677 1035 751 q 1095 518 1095 604 q 1080 397 1095 454 q 1039 293 1065 341 q 980 207 1014 245 q 909 138 946 168 l 909 135 q 963 138 930 136 q 1044 139 996 139 l 1099 139 l 1099 0 l 728 0 l 728 102 q 796 179 762 137 q 859 270 831 220 q 906 377 888 319 q 924 502 924 435 q 902 628 924 575 q 843 716 880 682 q 757 767 806 751 q 654 784 708 784 z "},"α":{"ha":810,"x_min":54,"x_max":780,"o":"m 750 657 q 720 589 737 629 q 684 505 702 549 q 649 415 666 460 q 621 329 633 370 q 635 233 627 272 q 656 171 644 195 q 688 138 669 148 q 731 127 706 127 q 780 133 758 127 l 780 -1 q 744 -7 764 -5 q 703 -9 723 -9 q 641 2 669 -9 q 592 35 613 14 q 557 84 571 56 q 537 144 543 112 l 534 144 q 500 82 521 111 q 451 31 479 52 q 387 -4 422 9 q 310 -17 352 -17 q 209 5 256 -17 q 128 69 162 26 q 74 174 94 111 q 54 318 54 237 q 76 473 54 406 q 135 584 98 539 q 221 651 172 629 q 326 673 270 673 q 464 629 408 673 q 544 505 519 585 l 547 505 q 573 601 560 559 q 592 657 587 642 l 750 657 m 337 118 q 397 140 371 118 q 442 194 423 161 q 472 267 461 227 q 488 342 484 307 q 467 413 480 378 q 436 476 454 448 q 395 521 418 504 q 344 538 372 538 q 294 525 317 538 q 255 484 271 511 q 230 417 239 457 q 220 324 220 377 q 227 252 220 288 q 247 185 233 215 q 283 137 260 155 q 337 118 305 118 z "},"β":{"ha":798,"x_min":102,"x_max":734,"o":"m 683 736 q 676 672 683 703 q 654 614 669 641 q 618 565 640 587 q 565 528 595 543 l 565 526 q 691 438 648 500 q 734 286 734 375 q 713 166 734 222 q 655 70 693 111 q 562 6 616 29 q 440 -17 507 -17 q 347 -3 391 -17 q 262 47 302 12 l 259 47 q 261 -26 260 2 q 261 -95 261 -54 l 261 -315 l 102 -315 l 102 693 q 106 769 102 738 q 119 827 110 801 q 162 902 135 869 q 224 956 189 934 q 301 988 259 977 q 391 999 344 999 q 506 982 452 999 q 598 931 559 964 q 660 848 637 897 q 683 736 683 799 m 340 584 q 364 581 351 582 q 388 581 376 581 q 450 593 425 581 q 490 628 475 606 q 511 678 505 650 q 517 736 517 706 q 508 789 517 765 q 484 830 500 813 q 445 858 468 848 q 392 867 422 867 q 353 862 372 867 q 317 846 334 857 q 289 818 301 836 q 269 776 277 801 q 263 743 265 762 q 261 696 261 724 l 261 180 q 330 133 294 149 q 410 117 367 117 q 481 130 452 117 q 530 164 511 142 q 558 217 549 186 q 568 281 568 247 q 555 358 568 326 q 519 411 543 391 q 465 441 496 431 q 395 450 433 450 q 370 450 385 450 q 340 447 356 449 l 340 584 z "},"γ":{"ha":728,"x_min":20,"x_max":701,"o":"m 231 -315 q 250 -111 250 -203 q 231 86 250 -15 q 180 287 212 187 q 107 481 149 387 q 20 657 66 575 l 196 657 q 252 548 224 611 q 304 415 280 484 q 346 277 328 347 q 370 150 363 208 l 372 150 q 421 256 397 198 q 466 380 445 315 q 504 515 487 445 q 531 657 521 585 l 701 657 q 654 455 685 555 q 583 263 623 355 q 499 88 543 170 q 412 -60 454 5 q 418 -260 418 -174 l 418 -315 l 231 -315 z "},"δ":{"ha":768,"x_min":54,"x_max":713,"o":"m 547 300 q 538 371 547 338 q 512 433 528 404 q 474 489 496 463 q 426 538 452 515 q 346 502 383 523 q 280 452 308 481 q 236 383 252 422 q 220 292 220 344 q 232 222 220 255 q 264 166 243 190 q 315 128 286 142 q 380 115 345 115 q 503 162 459 115 q 547 300 547 210 m 345 828 q 363 788 345 809 q 409 744 380 768 q 472 693 437 720 q 544 632 508 665 q 607 568 576 602 q 661 492 637 533 q 699 404 685 451 q 713 300 713 356 q 689 172 713 231 q 620 72 665 113 q 513 6 576 30 q 374 -17 451 -17 q 243 6 302 -17 q 142 69 184 28 q 77 165 100 109 q 54 289 54 222 q 75 407 54 353 q 131 502 96 460 q 214 576 167 545 q 313 630 260 608 l 313 633 q 262 677 286 654 q 221 725 238 700 q 194 778 203 751 q 184 836 184 806 q 199 903 184 873 q 242 955 214 933 q 310 987 271 976 q 398 999 349 999 q 479 994 438 999 q 558 981 519 989 q 633 962 597 972 q 699 941 669 952 l 699 803 q 549 851 621 831 q 414 870 476 870 q 360 858 376 870 q 345 828 345 845 z "},"ε":{"ha":667,"x_min":64,"x_max":620,"o":"m 513 271 q 447 275 487 273 q 367 277 408 277 q 231 199 231 277 q 264 136 231 159 q 366 113 298 113 q 498 130 432 113 q 620 170 565 146 l 620 39 q 567 18 597 28 q 500 0 536 7 q 426 -12 465 -7 q 349 -17 387 -17 q 223 -2 277 -17 q 134 41 170 14 q 82 105 99 68 q 64 185 64 142 q 98 284 64 245 q 185 341 131 323 l 185 344 q 114 395 141 359 q 86 482 86 431 q 106 560 86 525 q 163 621 126 595 q 252 660 200 646 q 369 673 304 673 q 483 666 422 673 q 596 644 543 658 l 596 515 q 480 537 532 530 q 387 543 428 543 q 288 524 322 543 q 253 468 253 504 q 258 441 253 454 q 278 419 264 429 q 315 403 292 409 q 376 397 338 397 q 437 398 407 397 q 513 404 468 399 l 513 271 z "},"ζ":{"ha":644,"x_min":54,"x_max":641,"o":"m 631 890 q 476 779 550 841 q 345 647 401 716 q 254 499 288 577 q 220 345 220 422 q 237 263 220 295 q 281 211 254 231 q 346 178 309 191 q 421 155 382 165 q 501 134 462 145 q 572 102 541 122 q 622 50 603 82 q 641 -36 641 17 q 619 -146 641 -83 q 557 -272 597 -210 l 387 -272 q 451 -158 430 -207 q 471 -76 471 -109 q 453 -31 471 -48 q 405 -2 435 -13 q 338 18 375 9 q 260 40 300 27 q 184 72 221 52 q 118 124 147 92 q 72 205 90 157 q 54 325 54 254 q 81 484 54 408 q 157 628 108 559 q 277 755 207 696 q 433 866 347 815 l 433 869 q 127 831 291 843 l 127 970 q 372 977 220 970 q 631 1000 523 985 l 631 890 z "},"η":{"ha":815,"x_min":27,"x_max":713,"o":"m 113 667 q 211 641 176 667 q 259 561 245 615 l 262 561 q 301 603 279 583 q 351 639 323 623 q 413 664 378 654 q 489 673 448 673 q 544 668 515 673 q 602 650 574 663 q 653 613 629 636 q 693 553 677 589 q 708 496 703 529 q 713 416 713 463 l 713 -315 l 553 -315 l 553 396 q 550 445 553 425 q 543 479 548 466 q 504 525 530 511 q 443 538 477 538 q 356 512 399 538 q 277 436 313 485 l 277 0 l 117 0 l 117 483 q 107 520 117 507 q 73 532 97 532 q 27 526 56 532 l 27 656 q 113 667 76 667 z "},"θ":{"ha":793,"x_min":68,"x_max":726,"o":"m 726 497 q 704 273 726 370 q 640 113 682 177 q 536 16 597 48 q 397 -17 475 -17 q 256 13 317 -17 q 152 105 194 43 q 89 262 111 168 q 68 484 68 356 q 90 708 68 612 q 154 869 112 804 q 257 966 196 934 q 396 999 318 999 q 538 968 476 999 q 641 876 600 938 q 704 720 683 814 q 726 497 726 625 m 397 115 q 513 194 473 115 q 557 439 553 273 l 235 439 q 279 192 239 270 q 397 115 319 115 m 397 867 q 284 795 324 867 q 237 571 244 722 l 557 571 q 543 705 554 648 q 511 797 531 761 q 463 850 491 833 q 397 867 434 867 z "},"ι":{"ha":393,"x_min":95,"x_max":363,"o":"m 363 -1 q 312 -8 339 -5 q 267 -10 284 -10 q 186 1 219 -10 q 133 34 153 12 q 104 85 113 55 q 95 155 95 116 l 95 657 l 256 657 l 256 174 q 268 138 256 148 q 308 127 281 127 q 363 132 328 127 l 363 -1 z "},"κ":{"ha":758,"x_min":88,"x_max":751,"o":"m 249 217 l 249 0 l 88 0 l 88 657 l 249 657 l 249 399 l 252 399 l 421 550 q 495 612 463 588 q 557 649 527 635 q 621 668 587 663 q 699 673 654 673 l 699 536 q 650 531 672 536 q 606 515 628 526 q 561 486 585 504 q 506 441 537 468 l 433 377 l 751 0 l 551 0 l 320 279 l 249 217 z "},"λ":{"ha":726,"x_min":20,"x_max":705,"o":"m 164 999 q 259 982 219 999 q 332 928 300 965 q 390 836 363 892 q 446 702 417 781 l 705 0 l 534 0 l 444 265 q 382 458 399 395 l 379 458 q 304 265 357 395 l 196 0 l 20 0 l 300 640 q 233 798 258 759 q 184 851 208 837 q 127 866 160 866 q 94 863 111 866 q 62 856 77 861 l 62 983 q 110 995 84 991 q 164 999 136 999 z "},"μ":{"ha":838,"x_min":102,"x_max":807,"o":"m 807 -1 q 770 -7 791 -5 q 734 -9 749 -9 q 640 22 675 -9 q 596 110 606 54 l 593 110 q 554 51 576 75 q 507 12 532 27 q 454 -10 481 -3 q 398 -17 427 -17 q 356 -12 378 -17 q 316 2 335 -7 q 280 25 296 11 q 254 58 264 39 l 250 58 q 254 22 252 45 q 258 -30 256 -1 q 261 -94 260 -59 q 262 -165 262 -128 l 262 -315 l 102 -315 l 102 657 l 262 657 l 262 302 q 264 253 262 275 q 271 216 266 232 q 315 147 284 170 q 393 124 346 124 q 479 148 441 124 q 534 220 516 172 q 546 268 542 240 q 549 336 549 296 l 549 657 l 710 657 l 710 237 q 712 191 710 212 q 722 157 715 171 q 742 136 729 143 q 774 128 754 128 q 807 132 791 128 l 807 -1 z "},"ν":{"ha":694,"x_min":20,"x_max":650,"o":"m 650 657 l 650 642 q 629 446 650 535 q 571 279 608 357 q 487 134 535 202 q 384 0 438 66 l 256 0 l 20 657 l 190 657 l 288 371 q 310 309 300 336 q 326 260 319 281 q 337 222 332 239 q 347 190 342 205 l 349 190 q 399 271 376 224 q 440 374 422 318 q 469 492 458 429 q 479 618 479 555 q 479 635 479 624 q 478 657 479 646 l 650 657 z "},"ξ":{"ha":646,"x_min":68,"x_max":643,"o":"m 585 444 l 559 444 q 428 433 488 444 q 325 399 368 422 q 258 344 282 377 q 233 267 233 311 q 250 213 233 233 q 292 181 267 193 q 355 160 317 169 q 431 144 393 152 q 508 125 470 136 q 576 94 546 115 q 625 41 606 74 q 643 -43 643 8 q 635 -103 643 -71 q 616 -164 628 -135 q 590 -221 604 -194 q 562 -272 576 -249 l 391 -272 q 448 -169 422 -224 q 473 -76 473 -113 q 457 -28 473 -45 q 414 -1 441 -12 q 355 16 388 9 q 283 31 321 23 q 205 53 243 40 q 136 89 166 66 q 86 149 105 112 q 68 241 68 185 q 83 330 68 291 q 127 401 99 370 q 193 455 155 432 q 276 496 231 479 l 276 498 q 164 550 202 515 q 126 644 126 586 q 188 779 126 722 q 376 884 250 837 l 376 886 q 123 854 210 860 l 123 984 q 337 987 199 984 q 627 999 475 990 l 627 882 q 489 841 551 863 q 383 793 427 819 q 316 738 340 768 q 292 673 292 708 q 303 625 292 644 q 338 593 314 606 q 403 576 363 581 q 501 571 443 571 q 585 573 539 571 l 585 444 z "},"ο":{"ha":769,"x_min":54,"x_max":715,"o":"m 549 328 q 536 420 549 380 q 503 488 524 460 q 450 528 481 515 q 384 542 420 542 q 318 528 349 542 q 267 488 288 515 q 233 420 245 460 q 220 328 220 380 q 233 236 220 276 q 267 169 245 196 q 319 129 289 142 q 385 115 349 115 q 451 129 421 115 q 503 169 481 142 q 536 236 524 196 q 549 328 549 276 m 715 328 q 692 187 715 251 q 626 78 669 123 q 522 8 583 33 q 385 -17 460 -17 q 247 8 308 -17 q 142 78 185 33 q 77 187 100 123 q 54 328 54 251 q 77 469 54 406 q 143 578 100 533 q 248 649 186 624 q 384 673 309 673 q 523 649 461 673 q 627 578 584 624 q 692 469 669 533 q 715 328 715 406 z "},"π":{"ha":845,"x_min":31,"x_max":814,"o":"m 319 519 l 319 0 l 158 0 l 158 519 l 31 519 l 31 657 l 814 657 l 814 519 l 686 519 l 686 174 q 699 138 686 148 q 739 127 711 127 q 793 132 760 127 l 793 -1 q 742 -8 769 -5 q 698 -10 715 -10 q 617 1 650 -10 q 564 34 584 12 q 534 85 543 55 q 526 155 526 116 l 526 519 l 319 519 z "},"ρ":{"ha":785,"x_min":102,"x_max":731,"o":"m 102 305 q 105 395 102 356 q 118 464 109 433 q 170 570 137 529 q 244 633 203 610 q 330 665 286 656 q 416 673 375 673 q 550 648 491 673 q 650 576 610 622 q 710 468 690 530 q 731 333 731 406 q 707 183 731 249 q 642 74 683 118 q 546 6 601 29 q 431 -17 492 -17 q 331 2 370 -17 q 263 50 291 22 l 260 50 q 262 -65 262 -13 l 262 -315 l 102 -315 l 102 305 m 565 334 q 553 426 565 386 q 522 492 542 465 q 474 533 501 519 q 414 547 446 547 q 370 541 391 547 q 330 520 349 534 q 298 483 312 506 q 275 429 283 460 q 265 373 268 405 q 262 300 262 341 l 262 182 q 323 134 286 153 q 406 115 361 115 q 467 126 438 115 q 517 163 495 137 q 552 231 539 189 q 565 334 565 273 z "},"σ":{"ha":802,"x_min":54,"x_max":775,"o":"m 692 525 q 610 527 653 525 l 610 524 q 646 484 629 507 q 676 433 663 461 q 696 373 689 406 q 704 304 704 340 q 683 178 704 237 q 621 77 662 120 q 518 8 579 33 q 376 -17 457 -17 q 241 8 301 -17 q 140 77 182 33 q 76 183 98 121 q 54 320 54 245 q 100 503 54 425 q 233 621 146 581 q 273 637 252 630 q 319 648 294 644 q 375 655 345 652 q 444 657 406 657 l 775 657 l 775 525 l 692 525 m 412 525 q 319 507 355 525 q 261 460 283 490 q 230 393 239 431 q 220 315 220 355 q 233 229 220 267 q 267 166 245 192 q 318 128 288 141 q 380 115 347 115 q 496 166 454 115 q 538 312 538 218 q 529 382 538 350 q 507 440 521 414 q 475 488 493 467 q 440 525 458 509 l 412 525 z "},"ς":{"ha":600,"x_min":54,"x_max":566,"o":"m 397 -79 q 382 -32 397 -51 q 343 0 368 -14 q 288 23 318 13 q 225 48 258 34 q 162 83 193 62 q 107 135 131 104 q 69 213 83 166 q 54 326 54 260 q 82 484 54 417 q 156 593 110 551 q 260 654 203 635 q 376 673 318 673 q 554 640 476 673 l 554 509 q 477 533 515 524 q 398 542 439 542 q 334 531 366 542 q 277 496 302 520 q 236 432 252 471 q 220 336 220 393 q 235 256 220 288 q 275 202 250 224 q 330 168 299 181 q 393 142 361 154 q 457 116 426 130 q 512 82 488 103 q 551 30 536 62 q 566 -48 566 -3 q 544 -161 566 -102 q 486 -272 521 -219 l 313 -272 q 377 -161 357 -210 q 397 -79 397 -111 z "},"τ":{"ha":625,"x_min":31,"x_max":595,"o":"m 31 657 l 595 657 l 595 519 l 363 519 l 363 179 q 382 132 363 146 q 437 118 401 118 q 486 121 459 118 q 528 128 512 125 l 528 -2 q 463 -13 498 -9 q 400 -17 427 -17 q 250 28 298 -17 q 203 168 203 73 l 203 519 l 31 519 l 31 657 z "},"υ":{"ha":763,"x_min":31,"x_max":702,"o":"m 93 490 q 85 515 93 507 q 63 524 77 524 q 31 517 51 524 l 31 656 q 74 664 51 661 q 117 667 97 667 q 173 660 148 667 q 217 634 199 652 q 245 589 235 617 q 255 519 255 560 q 253 471 255 498 q 250 413 252 444 q 247 350 248 382 q 245 288 245 317 q 279 160 245 206 q 383 115 313 115 q 446 128 418 115 q 494 169 474 141 q 525 238 514 196 q 536 339 536 281 q 530 410 536 372 q 515 488 525 448 q 492 572 505 529 q 463 657 479 614 l 628 657 q 653 590 640 628 q 677 510 667 552 q 695 423 688 468 q 702 336 702 378 q 682 191 702 256 q 622 79 662 125 q 523 8 583 33 q 382 -17 463 -17 q 255 3 311 -17 q 159 60 199 22 q 99 152 120 97 q 79 276 79 206 q 81 337 79 307 q 86 396 83 368 q 91 448 88 424 q 93 490 93 473 z "},"φ":{"ha":970,"x_min":54,"x_max":916,"o":"m 220 329 q 234 247 220 284 q 272 182 248 210 q 331 136 297 154 q 406 110 366 117 l 406 551 q 331 526 366 545 q 272 478 297 507 q 234 411 248 449 q 220 329 220 374 m 564 982 l 564 684 q 710 645 645 675 q 821 566 774 614 q 891 458 867 519 q 916 329 916 397 q 891 200 916 260 q 820 92 866 139 q 708 16 773 45 q 564 -22 644 -14 l 564 -315 l 406 -315 l 406 -22 q 262 16 327 -14 q 151 92 197 45 q 79 200 104 139 q 54 329 54 260 q 79 458 54 397 q 150 566 104 519 q 261 645 196 614 q 406 684 326 675 l 406 982 l 564 982 m 750 329 q 736 411 750 374 q 698 478 723 449 q 639 526 673 507 q 564 551 605 545 l 564 110 q 639 136 605 117 q 698 182 673 154 q 736 247 723 210 q 750 329 750 284 z "},"χ":{"ha":734,"x_min":-41,"x_max":721,"o":"m 37 662 q 114 673 72 673 q 206 655 165 673 q 278 596 247 636 q 333 493 310 555 q 371 341 356 430 l 374 341 q 418 430 396 388 q 461 507 441 473 l 548 657 l 721 657 l 423 159 q 465 -7 445 61 q 508 -117 486 -75 q 557 -177 530 -159 q 617 -195 583 -195 q 667 -191 642 -195 l 667 -317 q 629 -326 650 -323 q 591 -328 609 -328 q 497 -313 540 -328 q 419 -259 454 -298 q 359 -156 385 -221 q 313 8 332 -91 l 311 8 q 291 -33 302 -10 q 267 -79 279 -55 q 240 -127 254 -103 q 215 -172 227 -151 l 132 -315 l -41 -315 l 260 187 q 219 357 237 289 q 182 465 201 425 q 139 523 163 506 q 78 541 115 541 q 37 536 60 541 l 37 662 z "},"ψ":{"ha":1019,"x_min":64,"x_max":955,"o":"m 590 113 q 683 145 644 119 q 745 226 721 172 q 780 368 769 280 q 791 584 791 455 q 791 657 791 620 l 954 657 q 955 594 955 617 q 947 398 955 484 q 922 246 939 312 q 877 132 905 180 q 808 53 849 85 q 714 4 768 22 q 590 -19 660 -13 l 590 -315 l 429 -315 l 429 -19 q 306 4 359 -13 q 211 53 252 22 q 142 132 170 85 q 97 246 115 180 q 72 398 80 312 q 64 594 64 484 q 65 657 64 608 l 229 657 q 228 584 228 595 q 239 368 228 455 q 274 226 250 280 q 337 145 298 172 q 429 113 375 119 l 429 868 l 590 868 l 590 113 z "},"ω":{"ha":1066,"x_min":64,"x_max":1002,"o":"m 532 147 q 511 93 525 121 q 473 39 497 64 q 412 -1 448 15 q 322 -17 375 -17 q 216 5 263 -17 q 135 69 168 27 q 83 170 101 111 q 64 304 64 229 q 72 410 64 361 q 94 503 80 460 q 125 584 107 546 q 164 657 143 623 l 334 657 q 292 576 311 616 q 259 493 273 536 q 238 406 245 451 q 231 311 231 361 q 236 235 231 271 q 255 173 242 199 q 287 130 267 146 q 334 115 307 115 q 381 127 359 115 q 419 167 403 140 q 444 235 435 194 q 453 332 453 276 q 452 399 453 360 q 448 477 451 438 l 618 477 q 614 399 615 438 q 613 332 613 360 q 622 235 613 276 q 647 167 631 194 q 685 127 663 140 q 732 115 707 115 q 779 130 760 115 q 811 173 799 146 q 830 235 824 199 q 836 311 836 271 q 828 406 836 361 q 807 493 821 451 q 774 576 793 536 q 732 657 755 616 l 902 657 q 941 584 923 623 q 972 503 959 546 q 994 410 986 460 q 1002 304 1002 361 q 984 170 1002 229 q 932 69 966 111 q 851 5 899 27 q 744 -17 803 -17 q 654 -1 691 -17 q 593 39 618 15 q 555 93 569 64 q 534 147 542 121 l 532 147 z "},"ά":{"ha":810,"x_min":54,"x_max":780,"o":"m 750 657 q 720 589 737 629 q 684 505 702 549 q 649 415 666 460 q 621 329 633 370 q 635 233 627 272 q 656 171 644 195 q 688 138 669 148 q 731 127 706 127 q 780 133 758 127 l 780 -1 q 744 -7 764 -5 q 703 -9 723 -9 q 641 2 669 -9 q 592 35 613 14 q 557 84 571 56 q 537 144 543 112 l 534 144 q 500 82 521 111 q 451 31 479 52 q 387 -4 422 9 q 310 -17 352 -17 q 209 5 256 -17 q 128 69 162 26 q 74 174 94 111 q 54 318 54 237 q 76 473 54 406 q 135 584 98 539 q 221 651 172 629 q 326 673 270 673 q 464 629 408 673 q 544 505 519 585 l 547 505 q 573 601 560 559 q 592 657 587 642 l 750 657 m 337 118 q 397 140 371 118 q 442 194 423 161 q 472 267 461 227 q 488 342 484 307 q 467 413 480 378 q 436 476 454 448 q 395 521 418 504 q 344 538 372 538 q 294 525 317 538 q 255 484 271 511 q 230 417 239 457 q 220 324 220 377 q 227 252 220 288 q 247 185 233 215 q 283 137 260 155 q 337 118 305 118 m 597 999 l 448 762 l 311 762 l 435 999 l 597 999 m 170 659 z "},"έ":{"ha":667,"x_min":64,"x_max":620,"o":"m 513 271 q 447 275 487 273 q 367 277 408 277 q 231 199 231 277 q 264 136 231 159 q 366 113 298 113 q 498 130 432 113 q 620 170 565 146 l 620 39 q 567 18 597 28 q 500 0 536 7 q 426 -12 465 -7 q 349 -17 387 -17 q 223 -2 277 -17 q 134 41 170 14 q 82 105 99 68 q 64 185 64 142 q 98 284 64 245 q 185 341 131 323 l 185 344 q 114 395 141 359 q 86 482 86 431 q 106 560 86 525 q 163 621 126 595 q 252 660 200 646 q 369 673 304 673 q 483 666 422 673 q 596 644 543 658 l 596 515 q 480 537 532 530 q 387 543 428 543 q 288 524 322 543 q 253 468 253 504 q 258 441 253 454 q 278 419 264 429 q 315 403 292 409 q 376 397 338 397 q 437 398 407 397 q 513 404 468 399 l 513 271 m 600 999 l 452 762 l 315 762 l 439 999 l 600 999 m 173 659 z "},"ή":{"ha":815,"x_min":27,"x_max":713,"o":"m 113 667 q 211 641 176 667 q 259 561 245 615 l 262 561 q 301 603 279 583 q 351 639 323 623 q 413 664 378 654 q 489 673 448 673 q 544 668 515 673 q 602 650 574 663 q 653 613 629 636 q 693 553 677 589 q 708 496 703 529 q 713 416 713 463 l 713 -315 l 553 -315 l 553 396 q 550 445 553 425 q 543 479 548 466 q 504 525 530 511 q 443 538 477 538 q 356 512 399 538 q 277 436 313 485 l 277 0 l 117 0 l 117 483 q 107 520 117 507 q 73 532 97 532 q 27 526 56 532 l 27 656 q 113 667 76 667 m 678 999 l 530 762 l 393 762 l 517 999 l 678 999 m 251 659 z "},"ί":{"ha":393,"x_min":-31,"x_max":396,"o":"m 363 -1 q 312 -8 339 -5 q 267 -10 284 -10 q 186 1 219 -10 q 133 34 153 12 q 104 85 113 55 q 95 155 95 116 l 95 657 l 256 657 l 256 174 q 268 138 256 148 q 308 127 281 127 q 363 132 328 127 l 363 -1 m 396 999 l 248 762 l 111 762 l 235 999 l 396 999 m -31 659 z "},"ϊ":{"ha":393,"x_min":-91,"x_max":393,"o":"m 363 -1 q 312 -8 339 -5 q 267 -10 284 -10 q 186 1 219 -10 q 133 34 153 12 q 104 85 113 55 q 95 155 95 116 l 95 657 l 256 657 l 256 174 q 268 138 256 148 q 308 127 281 127 q 363 132 328 127 l 363 -1 m -33 958 l 115 958 l 115 808 l -33 808 l -33 958 m 245 958 l 393 958 l 393 808 l 245 808 l 245 958 m -91 657 z "},"ΐ":{"ha":393,"x_min":-71,"x_max":433,"o":"m 363 -1 q 312 -8 339 -5 q 267 -10 284 -10 q 186 1 219 -10 q 133 34 153 12 q 104 85 113 55 q 95 155 95 116 l 95 657 l 256 657 l 256 174 q 268 138 256 148 q 308 127 281 127 q 363 132 328 127 l 363 -1 m -33 944 l 101 944 l 101 808 l -33 808 l -33 944 m 299 944 l 433 944 l 433 808 l 299 808 l 299 944 m 281 999 l 234 762 l 127 762 l 151 999 l 281 999 m -71 656 z "},"ό":{"ha":769,"x_min":54,"x_max":715,"o":"m 549 328 q 536 420 549 380 q 503 488 524 460 q 450 528 481 515 q 384 542 420 542 q 318 528 349 542 q 267 488 288 515 q 233 420 245 460 q 220 328 220 380 q 233 236 220 276 q 267 169 245 196 q 319 129 289 142 q 385 115 349 115 q 451 129 421 115 q 503 169 481 142 q 536 236 524 196 q 549 328 549 276 m 715 328 q 692 187 715 251 q 626 78 669 123 q 522 8 583 33 q 385 -17 460 -17 q 247 8 308 -17 q 142 78 185 33 q 77 187 100 123 q 54 328 54 251 q 77 469 54 406 q 143 578 100 533 q 248 649 186 624 q 384 673 309 673 q 523 649 461 673 q 627 578 584 624 q 692 469 669 533 q 715 328 715 406 m 607 999 l 458 762 l 321 762 l 446 999 l 607 999 m 180 659 z "},"ύ":{"ha":763,"x_min":31,"x_max":702,"o":"m 589 999 l 441 762 l 304 762 l 428 999 l 589 999 m 162 659 m 93 490 q 85 515 93 507 q 63 524 77 524 q 31 517 51 524 l 31 656 q 74 664 51 661 q 117 667 97 667 q 173 660 148 667 q 217 634 199 652 q 245 589 235 617 q 255 519 255 560 q 253 471 255 498 q 250 413 252 444 q 247 350 248 382 q 245 288 245 317 q 279 160 245 206 q 383 115 313 115 q 446 128 418 115 q 494 169 474 141 q 525 238 514 196 q 536 339 536 281 q 530 410 536 372 q 515 488 525 448 q 492 572 505 529 q 463 657 479 614 l 628 657 q 653 590 640 628 q 677 510 667 552 q 695 423 688 468 q 702 336 702 378 q 682 191 702 256 q 622 79 662 125 q 523 8 583 33 q 382 -17 463 -17 q 255 3 311 -17 q 159 60 199 22 q 99 152 120 97 q 79 276 79 206 q 81 337 79 307 q 86 396 83 368 q 91 448 88 424 q 93 490 93 473 z "},"ϋ":{"ha":763,"x_min":31,"x_max":702,"o":"m 163 958 l 311 958 l 311 808 l 163 808 l 163 958 m 441 958 l 589 958 l 589 808 l 441 808 l 441 958 m 104 657 m 93 490 q 85 515 93 507 q 63 524 77 524 q 31 517 51 524 l 31 656 q 74 664 51 661 q 117 667 97 667 q 173 660 148 667 q 217 634 199 652 q 245 589 235 617 q 255 519 255 560 q 253 471 255 498 q 250 413 252 444 q 247 350 248 382 q 245 288 245 317 q 279 160 245 206 q 383 115 313 115 q 446 128 418 115 q 494 169 474 141 q 525 238 514 196 q 536 339 536 281 q 530 410 536 372 q 515 488 525 448 q 492 572 505 529 q 463 657 479 614 l 628 657 q 653 590 640 628 q 677 510 667 552 q 695 423 688 468 q 702 336 702 378 q 682 191 702 256 q 622 79 662 125 q 523 8 583 33 q 382 -17 463 -17 q 255 3 311 -17 q 159 60 199 22 q 99 152 120 97 q 79 276 79 206 q 81 337 79 307 q 86 396 83 368 q 91 448 88 424 q 93 490 93 473 z "},"ΰ":{"ha":763,"x_min":31,"x_max":702,"o":"m 143 944 l 277 944 l 277 808 l 143 808 l 143 944 m 475 944 l 610 944 l 610 808 l 475 808 l 475 944 m 458 999 l 410 762 l 303 762 l 328 999 l 458 999 m 105 656 m 93 490 q 85 515 93 507 q 63 524 77 524 q 31 517 51 524 l 31 656 q 74 664 51 661 q 117 667 97 667 q 173 660 148 667 q 217 634 199 652 q 245 589 235 617 q 255 519 255 560 q 253 471 255 498 q 250 413 252 444 q 247 350 248 382 q 245 288 245 317 q 279 160 245 206 q 383 115 313 115 q 446 128 418 115 q 494 169 474 141 q 525 238 514 196 q 536 339 536 281 q 530 410 536 372 q 515 488 525 448 q 492 572 505 529 q 463 657 479 614 l 628 657 q 653 590 640 628 q 677 510 667 552 q 695 423 688 468 q 702 336 702 378 q 682 191 702 256 q 622 79 662 125 q 523 8 583 33 q 382 -17 463 -17 q 255 3 311 -17 q 159 60 199 22 q 99 152 120 97 q 79 276 79 206 q 81 337 79 307 q 86 396 83 368 q 91 448 88 424 q 93 490 93 473 z "}}}
